<svg xmlns="http://www.w3.org/2000/svg" xmlns:xlink="http://www.w3.org/1999/xlink" contentStyleType="text/css" data-diagram-type="ACTIVITY" height="1324px" preserveAspectRatio="none" style="width:386px;height:1324px;background:#FFFFFF;" version="1.1" viewBox="0 0 386 1324" width="386px" zoomAndPan="magnify"><defs/><g><ellipse cx="188.9854" cy="20" fill="#222222" rx="10" ry="10" style="stroke:#222222;stroke-width:1;"/><rect fill="#F1F1F1" height="33.9688" rx="12.5" ry="12.5" style="stroke:#181818;stroke-width:0.5;" width="305.5625" x="36.2041" y="50"/><text fill="#000000" font-family="sans-serif" font-size="12" lengthAdjust="spacing" textLength="285.5625" x="46.2041" y="71.1387">Data Analyst selects "Seasonal Trends" module</text><rect fill="#F1F1F1" height="33.9688" rx="12.5" ry="12.5" style="stroke:#181818;stroke-width:0.5;" width="304.584" x="36.6934" y="103.9688"/><text fill="#000000" font-family="sans-serif" font-size="12" lengthAdjust="spacing" textLength="284.584" x="46.6934" y="125.1074">System prompts Analyst to define time window</text><rect fill="#F1F1F1" height="33.9688" rx="12.5" ry="12.5" style="stroke:#181818;stroke-width:0.5;" width="224.9082" x="76.5313" y="201.9375"/><text fill="#000000" font-family="sans-serif" font-size="12" lengthAdjust="spacing" textLength="204.9082" x="86.5313" y="223.0762">Data Analyst defines time window</text><rect fill="#F1F1F1" height="33.9688" rx="12.5" ry="12.5" style="stroke:#181818;stroke-width:0.5;" width="211.4199" x="83.2754" y="263.4063"/><text fill="#000000" font-family="sans-serif" font-size="12" lengthAdjust="spacing" textLength="191.4199" x="93.2754" y="284.5449">System retrieves historical data</text><polygon fill="#F1F1F1" points="188.9854,157.9375,200.9854,169.9375,188.9854,181.9375,176.9854,169.9375,188.9854,157.9375" style="stroke:#181818;stroke-width:0.5;"/><polygon fill="#F1F1F1" points="119.0886,317.375,258.8821,317.375,270.8821,329.375,258.8821,341.375,119.0886,341.375,107.0886,329.375,119.0886,317.375" style="stroke:#181818;stroke-width:0.5;"/><text fill="#000000" font-family="sans-serif" font-size="11" lengthAdjust="spacing" textLength="139.7935" x="119.0886" y="333.1831">Historical data sufficient?</text><text fill="#000000" font-family="sans-serif" font-size="11" lengthAdjust="spacing" textLength="13.7017" x="270.8821" y="326.7808">no</text><rect fill="#F1F1F1" height="75.875" rx="12.5" ry="12.5" style="stroke:#181818;stroke-width:0.5;" width="230.6797" x="73.6455" y="361.375"/><text fill="#000000" font-family="sans-serif" font-size="12" lengthAdjust="spacing" textLength="210.6797" x="83.6455" y="382.5137">Data Analyst specifies parameters:</text><text fill="#000000" font-family="sans-serif" font-size="12" lengthAdjust="spacing" textLength="91.9277" x="83.6455" y="396.4824">&#8226; Route/Region</text><text fill="#000000" font-family="sans-serif" font-size="12" lengthAdjust="spacing" textLength="124.6523" x="83.6455" y="410.4512">&#8226; Age group of users</text><text fill="#000000" font-family="sans-serif" font-size="12" lengthAdjust="spacing" textLength="145.8105" x="83.6455" y="424.4199">&#8226; (Optional) Time of day</text><rect fill="#F1F1F1" height="61.9063" rx="12.5" ry="12.5" style="stroke:#181818;stroke-width:0.5;" width="326.75" x="25.6104" y="457.25"/><text fill="#000000" font-family="sans-serif" font-size="12" lengthAdjust="spacing" textLength="207.334" x="35.6104" y="478.3887">System generates report showing:</text><text fill="#000000" font-family="sans-serif" font-size="12" lengthAdjust="spacing" textLength="306.75" x="35.6104" y="492.3574">&#8226; Route popularity trend across given time window</text><text fill="#000000" font-family="sans-serif" font-size="12" lengthAdjust="spacing" textLength="185.0918" x="35.6104" y="506.3262">&#8226; Specified demographic shifts</text><rect fill="#F1F1F1" height="33.9688" rx="12.5" ry="12.5" style="stroke:#181818;stroke-width:0.5;" width="272.0527" x="52.959" y="587.5586"/><text fill="#000000" font-family="sans-serif" font-size="12" lengthAdjust="spacing" textLength="252.0527" x="62.959" y="608.6973">System provides graphical representation</text><rect fill="#F1F1F1" height="33.9688" rx="12.5" ry="12.5" style="stroke:#181818;stroke-width:0.5;" width="278.6387" x="49.666" y="689.9297"/><text fill="#000000" font-family="sans-serif" font-size="12" lengthAdjust="spacing" textLength="258.6387" x="59.666" y="711.0684">Data Analyst applies filters to reduce noise</text><rect fill="#F1F1F1" height="33.9688" rx="12.5" ry="12.5" style="stroke:#181818;stroke-width:0.5;" width="195.8633" x="91.0537" y="758.8984"/><text fill="#000000" font-family="sans-serif" font-size="12" lengthAdjust="spacing" textLength="175.8633" x="101.0537" y="780.0371">System updates visualization</text><polygon fill="#F1F1F1" points="135.6396,641.5273,242.3311,641.5273,254.3311,653.5273,242.3311,665.5273,135.6396,665.5273,123.6396,653.5273,135.6396,641.5273" style="stroke:#181818;stroke-width:0.5;"/><text fill="#000000" font-family="sans-serif" font-size="11" lengthAdjust="spacing" textLength="19.0083" x="192.9854" y="675.7378">yes</text><text fill="#000000" font-family="sans-serif" font-size="11" lengthAdjust="spacing" textLength="106.6914" x="135.6396" y="657.3354">View too cluttered?</text><polygon fill="#F1F1F1" points="188.9854,812.8672,200.9854,824.8672,188.9854,836.8672,176.9854,824.8672,188.9854,812.8672" style="stroke:#181818;stroke-width:0.5;"/><polygon fill="#F1F1F1" points="104.5813,539.1563,273.3894,539.1563,285.3894,551.1563,273.3894,563.1563,104.5813,563.1563,92.5813,551.1563,104.5813,539.1563" style="stroke:#181818;stroke-width:0.5;"/><text fill="#000000" font-family="sans-serif" font-size="11" lengthAdjust="spacing" textLength="19.0083" x="192.9854" y="573.3667">yes</text><text fill="#000000" font-family="sans-serif" font-size="11" lengthAdjust="spacing" textLength="168.8081" x="104.5813" y="554.9644">Visualization option activated?</text><polygon fill="#F1F1F1" points="188.9854,856.8672,200.9854,868.8672,188.9854,880.8672,176.9854,868.8672,188.9854,856.8672" style="stroke:#181818;stroke-width:0.5;"/><rect fill="#F1F1F1" height="33.9688" rx="12.5" ry="12.5" style="stroke:#181818;stroke-width:0.5;" width="197.5625" x="90.2041" y="900.8672"/><text fill="#000000" font-family="sans-serif" font-size="12" lengthAdjust="spacing" textLength="177.5625" x="100.2041" y="922.0059">Data Analyst reviews insights</text><rect fill="#F1F1F1" height="33.9688" rx="12.5" ry="12.5" style="stroke:#181818;stroke-width:0.5;" width="186.9043" x="95.5332" y="954.8359"/><text fill="#000000" font-family="sans-serif" font-size="12" lengthAdjust="spacing" textLength="166.9043" x="105.5332" y="975.9746">Data Analyst exports report</text><rect fill="#F1F1F1" height="47.9375" rx="12.5" ry="12.5" style="stroke:#181818;stroke-width:0.5;" width="208.5078" x="84.7314" y="1057.207"/><text fill="#000000" font-family="sans-serif" font-size="12" lengthAdjust="spacing" textLength="188.5078" x="94.7314" y="1078.3457">System displays error message</text><text fill="#000000" font-family="sans-serif" font-size="12" lengthAdjust="spacing" textLength="180.0293" x="94.7314" y="1092.3145">and technical-support contact</text><polygon fill="#F1F1F1" points="48.7058,1008.8047,329.2649,1008.8047,341.2649,1020.8047,329.2649,1032.8047,48.7058,1032.8047,36.7058,1020.8047,48.7058,1008.8047" style="stroke:#181818;stroke-width:0.5;"/><text fill="#000000" font-family="sans-serif" font-size="11" lengthAdjust="spacing" textLength="19.0083" x="192.9854" y="1043.0151">yes</text><text fill="#000000" font-family="sans-serif" font-size="11" lengthAdjust="spacing" textLength="280.5591" x="48.7058" y="1024.6128">Export fails due to permissions or technical errors?</text><polygon fill="#F1F1F1" points="188.9854,1125.1445,200.9854,1137.1445,188.9854,1149.1445,176.9854,1137.1445,188.9854,1125.1445" style="stroke:#181818;stroke-width:0.5;"/><rect fill="#F1F1F1" height="33.9688" rx="12.5" ry="12.5" style="stroke:#181818;stroke-width:0.5;" width="355.9707" x="11" y="1169.1445"/><text fill="#000000" font-family="sans-serif" font-size="12" lengthAdjust="spacing" textLength="335.9707" x="21" y="1190.2832">Data Analyst shares findings with relevant departments</text><rect fill="#F1F1F1" height="47.9375" rx="12.5" ry="12.5" style="stroke:#181818;stroke-width:0.5;" width="313.2852" x="32.3428" y="1223.1133"/><text fill="#000000" font-family="sans-serif" font-size="12" lengthAdjust="spacing" textLength="172.4766" x="42.3428" y="1244.252">Insights used for scheduling,</text><text fill="#000000" font-family="sans-serif" font-size="12" lengthAdjust="spacing" textLength="293.2852" x="42.3428" y="1258.2207">capacity planning and communication strategies</text><ellipse cx="188.9854" cy="1302.0508" fill="transparent" rx="11" ry="11" style="stroke:#222222;stroke-width:1;"/><ellipse cx="188.9854" cy="1302.0508" fill="#222222" rx="6" ry="6" style="stroke:#222222;stroke-width:1;"/><line style="stroke:#181818;stroke-width:1;" x1="188.9854" x2="188.9854" y1="30" y2="50"/><polygon fill="#181818" points="184.9854,40,188.9854,50,192.9854,40,188.9854,44" style="stroke:#181818;stroke-width:1;"/><line style="stroke:#181818;stroke-width:1;" x1="188.9854" x2="188.9854" y1="83.9688" y2="103.9688"/><polygon fill="#181818" points="184.9854,93.9688,188.9854,103.9688,192.9854,93.9688,188.9854,97.9688" style="stroke:#181818;stroke-width:1;"/><line style="stroke:#181818;stroke-width:1;" x1="188.9854" x2="188.9854" y1="235.9063" y2="263.4063"/><polygon fill="#181818" points="184.9854,253.4063,188.9854,263.4063,192.9854,253.4063,188.9854,257.4063" style="stroke:#181818;stroke-width:1;"/><line style="stroke:#181818;stroke-width:1;" x1="188.9854" x2="188.9854" y1="181.9375" y2="201.9375"/><polygon fill="#181818" points="184.9854,191.9375,188.9854,201.9375,192.9854,191.9375,188.9854,195.9375" style="stroke:#181818;stroke-width:1;"/><line style="stroke:#181818;stroke-width:1;" x1="270.8821" x2="313.4395" y1="329.375" y2="329.375"/><polygon fill="#181818" points="309.4395,255.9063,313.4395,245.9063,317.4395,255.9063,313.4395,251.9063" style="stroke:#181818;stroke-width:1;"/><line style="stroke:#181818;stroke-width:1;" x1="313.4395" x2="313.4395" y1="169.9375" y2="329.375"/><line style="stroke:#181818;stroke-width:1;" x1="313.4395" x2="200.9854" y1="169.9375" y2="169.9375"/><polygon fill="#181818" points="210.9854,165.9375,200.9854,169.9375,210.9854,173.9375,206.9854,169.9375" style="stroke:#181818;stroke-width:1;"/><line style="stroke:#181818;stroke-width:1;" x1="188.9854" x2="188.9854" y1="297.375" y2="317.375"/><polygon fill="#181818" points="184.9854,307.375,188.9854,317.375,192.9854,307.375,188.9854,311.375" style="stroke:#181818;stroke-width:1;"/><line style="stroke:#181818;stroke-width:1;" x1="188.9854" x2="188.9854" y1="137.9375" y2="157.9375"/><polygon fill="#181818" points="184.9854,147.9375,188.9854,157.9375,192.9854,147.9375,188.9854,151.9375" style="stroke:#181818;stroke-width:1;"/><line style="stroke:#181818;stroke-width:1;" x1="188.9854" x2="188.9854" y1="341.375" y2="361.375"/><polygon fill="#181818" points="184.9854,351.375,188.9854,361.375,192.9854,351.375,188.9854,355.375" style="stroke:#181818;stroke-width:1;"/><line style="stroke:#181818;stroke-width:1;" x1="188.9854" x2="188.9854" y1="437.25" y2="457.25"/><polygon fill="#181818" points="184.9854,447.25,188.9854,457.25,192.9854,447.25,188.9854,451.25" style="stroke:#181818;stroke-width:1;"/><line style="stroke:#181818;stroke-width:1;" x1="188.9854" x2="188.9854" y1="723.8984" y2="758.8984"/><polygon fill="#181818" points="184.9854,748.8984,188.9854,758.8984,192.9854,748.8984,188.9854,752.8984" style="stroke:#181818;stroke-width:1;"/><line style="stroke:#181818;stroke-width:1;" x1="188.9854" x2="188.9854" y1="665.5273" y2="689.9297"/><polygon fill="#181818" points="184.9854,679.9297,188.9854,689.9297,192.9854,679.9297,188.9854,683.9297" style="stroke:#181818;stroke-width:1;"/><line style="stroke:#181818;stroke-width:1;" x1="254.3311" x2="338.3047" y1="653.5273" y2="653.5273"/><polygon fill="#181818" points="334.3047,731.3984,338.3047,741.3984,342.3047,731.3984,338.3047,735.3984" style="stroke:#181818;stroke-width:1;"/><line style="stroke:#181818;stroke-width:1;" x1="338.3047" x2="338.3047" y1="653.5273" y2="824.8672"/><line style="stroke:#181818;stroke-width:1;" x1="338.3047" x2="200.9854" y1="824.8672" y2="824.8672"/><polygon fill="#181818" points="210.9854,820.8672,200.9854,824.8672,210.9854,828.8672,206.9854,824.8672" style="stroke:#181818;stroke-width:1;"/><line style="stroke:#181818;stroke-width:1;" x1="188.9854" x2="188.9854" y1="792.8672" y2="812.8672"/><polygon fill="#181818" points="184.9854,802.8672,188.9854,812.8672,192.9854,802.8672,188.9854,806.8672" style="stroke:#181818;stroke-width:1;"/><line style="stroke:#181818;stroke-width:1;" x1="188.9854" x2="188.9854" y1="621.5273" y2="641.5273"/><polygon fill="#181818" points="184.9854,631.5273,188.9854,641.5273,192.9854,631.5273,188.9854,635.5273" style="stroke:#181818;stroke-width:1;"/><line style="stroke:#181818;stroke-width:1;" x1="188.9854" x2="188.9854" y1="563.1563" y2="587.5586"/><polygon fill="#181818" points="184.9854,577.5586,188.9854,587.5586,192.9854,577.5586,188.9854,581.5586" style="stroke:#181818;stroke-width:1;"/><line style="stroke:#181818;stroke-width:1;" x1="285.3894" x2="360.3047" y1="551.1563" y2="551.1563"/><polygon fill="#181818" points="356.3047,696.9141,360.3047,706.9141,364.3047,696.9141,360.3047,700.9141" style="stroke:#181818;stroke-width:1;"/><line style="stroke:#181818;stroke-width:1;" x1="360.3047" x2="360.3047" y1="551.1563" y2="868.8672"/><line style="stroke:#181818;stroke-width:1;" x1="360.3047" x2="200.9854" y1="868.8672" y2="868.8672"/><polygon fill="#181818" points="210.9854,864.8672,200.9854,868.8672,210.9854,872.8672,206.9854,868.8672" style="stroke:#181818;stroke-width:1;"/><line style="stroke:#181818;stroke-width:1;" x1="188.9854" x2="188.9854" y1="836.8672" y2="856.8672"/><polygon fill="#181818" points="184.9854,846.8672,188.9854,856.8672,192.9854,846.8672,188.9854,850.8672" style="stroke:#181818;stroke-width:1;"/><line style="stroke:#181818;stroke-width:1;" x1="188.9854" x2="188.9854" y1="519.1563" y2="539.1563"/><polygon fill="#181818" points="184.9854,529.1563,188.9854,539.1563,192.9854,529.1563,188.9854,533.1563" style="stroke:#181818;stroke-width:1;"/><line style="stroke:#181818;stroke-width:1;" x1="188.9854" x2="188.9854" y1="880.8672" y2="900.8672"/><polygon fill="#181818" points="184.9854,890.8672,188.9854,900.8672,192.9854,890.8672,188.9854,894.8672" style="stroke:#181818;stroke-width:1;"/><line style="stroke:#181818;stroke-width:1;" x1="188.9854" x2="188.9854" y1="934.8359" y2="954.8359"/><polygon fill="#181818" points="184.9854,944.8359,188.9854,954.8359,192.9854,944.8359,188.9854,948.8359" style="stroke:#181818;stroke-width:1;"/><line style="stroke:#181818;stroke-width:1;" x1="188.9854" x2="188.9854" y1="1032.8047" y2="1057.207"/><polygon fill="#181818" points="184.9854,1047.207,188.9854,1057.207,192.9854,1047.207,188.9854,1051.207" style="stroke:#181818;stroke-width:1;"/><line style="stroke:#181818;stroke-width:1;" x1="341.2649" x2="353.2649" y1="1020.8047" y2="1020.8047"/><polygon fill="#181818" points="349.2649,1071.1758,353.2649,1081.1758,357.2649,1071.1758,353.2649,1075.1758" style="stroke:#181818;stroke-width:1;"/><line style="stroke:#181818;stroke-width:1;" x1="353.2649" x2="353.2649" y1="1020.8047" y2="1137.1445"/><line style="stroke:#181818;stroke-width:1;" x1="353.2649" x2="200.9854" y1="1137.1445" y2="1137.1445"/><polygon fill="#181818" points="210.9854,1133.1445,200.9854,1137.1445,210.9854,1141.1445,206.9854,1137.1445" style="stroke:#181818;stroke-width:1;"/><line style="stroke:#181818;stroke-width:1;" x1="188.9854" x2="188.9854" y1="1105.1445" y2="1125.1445"/><polygon fill="#181818" points="184.9854,1115.1445,188.9854,1125.1445,192.9854,1115.1445,188.9854,1119.1445" style="stroke:#181818;stroke-width:1;"/><line style="stroke:#181818;stroke-width:1;" x1="188.9854" x2="188.9854" y1="988.8047" y2="1008.8047"/><polygon fill="#181818" points="184.9854,998.8047,188.9854,1008.8047,192.9854,998.8047,188.9854,1002.8047" style="stroke:#181818;stroke-width:1;"/><line style="stroke:#181818;stroke-width:1;" x1="188.9854" x2="188.9854" y1="1149.1445" y2="1169.1445"/><polygon fill="#181818" points="184.9854,1159.1445,188.9854,1169.1445,192.9854,1159.1445,188.9854,1163.1445" style="stroke:#181818;stroke-width:1;"/><line style="stroke:#181818;stroke-width:1;" x1="188.9854" x2="188.9854" y1="1203.1133" y2="1223.1133"/><polygon fill="#181818" points="184.9854,1213.1133,188.9854,1223.1133,192.9854,1213.1133,188.9854,1217.1133" style="stroke:#181818;stroke-width:1;"/><line style="stroke:#181818;stroke-width:1;" x1="188.9854" x2="188.9854" y1="1271.0508" y2="1291.0508"/><polygon fill="#181818" points="184.9854,1281.0508,188.9854,1291.0508,192.9854,1281.0508,188.9854,1285.0508" style="stroke:#181818;stroke-width:1;"/><!--SRC=[TPEnZjH038RxF8LrrQu4ehyjq4aWSHNItObg6sl6IInDPaPZJvQbubbuD9u4JvA3tGMQ51xxz-_FZYWMxUu_e28yH0ndKH0Av5JWxfbGaWNXfL3qSWTJyZNGeRj_jZoQ89SqPSjyhTG4ddgE1CeJmOcZJwT3rnNAXDe1N3TQS-KwsP8szK9Qc6PB65aq5NPcnPl0OHE4qyY1OFVf-XcazZqxfgZlzy02kvZstUsGcHptRE8P2qwaLEJ-67z-_m5FgIgzUwA1KrmZ3mF1K5BDa7geOgbhVFSvApT2UtXfCzYhn_CVFWD5AgZMn0odObt7P7CEbuqWfrm35jOpQECCw4eIWO5dYfTirgBdpRWtV5CQ2kQHdGbphsAekOVT5vQAWRzXCmTfyMYgohDvySP4HrFUdKds5xXjcJDxyxff6arpNKYCuwBKThFAqybMdS25giRjRydRHMFEeQ7kEJJExKwigZg2c5Zei9PiFchs2xBvSegMOcouxzRlpJOBpMPAWAFmC3OGr-_qjU5_NSE6wUCIX1uv2FXApLQcCh68THH81PJS61SKL4egyZzsdYK7FCkQ1XE9u437YBREtnflfUQbeqj6r9cDVyuY8vQ5bJt6GMpvEfhnG3F6zi_OlUfaEsb3FcxpjgFqq5jhSQEH3LRvvXWTPdJjiCnSZ1Q3PiYbQQhDqN8Nekr21rlFeRFVAFy2]--></g></svg>