<?xml version="1.0" encoding="us-ascii" standalone="no"?><svg xmlns="http://www.w3.org/2000/svg" xmlns:xlink="http://www.w3.org/1999/xlink" contentStyleType="text/css" height="1194px" preserveAspectRatio="none" style="width:1260px;height:1194px;background:#FFFFFF;" version="1.1" viewBox="0 0 1260 1194" width="1260px" zoomAndPan="magnify"><defs/><g><text fill="#000000" font-family="sans-serif" font-size="14" font-weight="bold" lengthAdjust="spacing" textLength="121" x="562.5" y="24.9659">LS Domain Model</text><!--class ModeOfTravel--><g id="elem_ModeOfTravel"><rect codeLine="6" fill="#F1F1F1" height="105.2038" id="ModeOfTravel" rx="2.5" ry="2.5" style="stroke:#181818;stroke-width:0.5;" width="127" x="328" y="75.5679"/><ellipse cx="343" cy="91.5679" fill="#EB937F" rx="11" ry="11" style="stroke:#181818;stroke-width:1.0;"/><path d="M339.3594,98.0679 L339.3594,85.9273 L347.0156,85.9273 L347.0156,88.0523 L341.7344,88.0523 L341.7344,90.7085 L346.75,90.7085 L346.75,92.8335 L341.7344,92.8335 L341.7344,95.9429 L347.0156,95.9429 L347.0156,98.0679 L339.3594,98.0679 Z " fill="#000000"/><text fill="#000000" font-family="sans-serif" font-size="14" lengthAdjust="spacing" textLength="95" x="357" y="96.9999">ModeOfTravel</text><line style="stroke:#181818;stroke-width:0.5;" x1="329" x2="454" y1="107.5679" y2="107.5679"/><text fill="#000000" font-family="sans-serif" font-size="14" lengthAdjust="spacing" textLength="32" x="334" y="126.5339">FAST</text><text fill="#000000" font-family="sans-serif" font-size="14" lengthAdjust="spacing" textLength="44" x="334" y="145.6018">CHEAP</text><text fill="#000000" font-family="sans-serif" font-size="14" lengthAdjust="spacing" textLength="46" x="334" y="164.6697">GREEN</text><line style="stroke:#181818;stroke-width:0.5;" x1="329" x2="454" y1="172.7717" y2="172.7717"/></g><!--class TransportationType--><g id="elem_TransportationType"><rect codeLine="11" fill="#F1F1F1" height="162.4075" id="TransportationType" rx="2.5" ry="2.5" style="stroke:#181818;stroke-width:0.5;" width="164" x="490.5" y="47.0679"/><ellipse cx="505.5" cy="63.0679" fill="#EB937F" rx="11" ry="11" style="stroke:#181818;stroke-width:1.0;"/><path d="M501.8594,69.5679 L501.8594,57.4273 L509.5156,57.4273 L509.5156,59.5523 L504.2344,59.5523 L504.2344,62.2085 L509.25,62.2085 L509.25,64.3335 L504.2344,64.3335 L504.2344,67.4429 L509.5156,67.4429 L509.5156,69.5679 L501.8594,69.5679 Z " fill="#000000"/><text fill="#000000" font-family="sans-serif" font-size="14" lengthAdjust="spacing" textLength="132" x="519.5" y="68.4999">TransportationType</text><line style="stroke:#181818;stroke-width:0.5;" x1="491.5" x2="653.5" y1="79.0679" y2="79.0679"/><text fill="#000000" font-family="sans-serif" font-size="14" lengthAdjust="spacing" textLength="27" x="496.5" y="98.0339">BUS</text><text fill="#000000" font-family="sans-serif" font-size="14" lengthAdjust="spacing" textLength="39" x="496.5" y="117.1018">TRAM</text><text fill="#000000" font-family="sans-serif" font-size="14" lengthAdjust="spacing" textLength="49" x="496.5" y="136.1697">METRO</text><text fill="#000000" font-family="sans-serif" font-size="14" lengthAdjust="spacing" textLength="27" x="496.5" y="155.2376">CAR</text><text fill="#000000" font-family="sans-serif" font-size="14" lengthAdjust="spacing" textLength="55" x="496.5" y="174.3055">BICYCLE</text><text fill="#000000" font-family="sans-serif" font-size="14" lengthAdjust="spacing" textLength="38" x="496.5" y="193.3734">WALK</text><line style="stroke:#181818;stroke-width:0.5;" x1="491.5" x2="653.5" y1="201.4754" y2="201.4754"/></g><!--class SearchTimeType--><g id="elem_SearchTimeType"><rect codeLine="19" fill="#F1F1F1" height="86.1358" id="SearchTimeType" rx="2.5" ry="2.5" style="stroke:#181818;stroke-width:0.5;" width="143" x="320" y="270.0679"/><ellipse cx="335" cy="286.0679" fill="#EB937F" rx="11" ry="11" style="stroke:#181818;stroke-width:1.0;"/><path d="M331.3594,292.5679 L331.3594,280.4273 L339.0156,280.4273 L339.0156,282.5523 L333.7344,282.5523 L333.7344,285.2085 L338.75,285.2085 L338.75,287.3335 L333.7344,287.3335 L333.7344,290.4429 L339.0156,290.4429 L339.0156,292.5679 L331.3594,292.5679 Z " fill="#000000"/><text fill="#000000" font-family="sans-serif" font-size="14" lengthAdjust="spacing" textLength="111" x="349" y="291.4999">SearchTimeType</text><line style="stroke:#181818;stroke-width:0.5;" x1="321" x2="462" y1="302.0679" y2="302.0679"/><text fill="#000000" font-family="sans-serif" font-size="14" lengthAdjust="spacing" textLength="79" x="326" y="321.0339">DEPARTURE</text><text fill="#000000" font-family="sans-serif" font-size="14" lengthAdjust="spacing" textLength="56" x="326" y="340.1018">ARRIVAL</text><line style="stroke:#181818;stroke-width:0.5;" x1="321" x2="462" y1="348.2038" y2="348.2038"/></g><!--class User--><g id="elem_User"><rect codeLine="25" fill="#F1F1F1" height="86.1358" id="User" rx="2.5" ry="2.5" style="stroke:#181818;stroke-width:0.5;" width="107" x="690" y="85.0679"/><ellipse cx="724.8" cy="101.0679" fill="#ADD1B2" rx="11" ry="11" style="stroke:#181818;stroke-width:1.0;"/><path d="M724.2688,107.9898 Q722.5188,107.9898 721.3781,107.2554 Q720.2531,106.5054 719.6906,105.1617 Q719.1438,103.8023 719.1438,102.0054 Q719.1438,99.9742 719.8,98.521 Q720.4563,97.0679 721.7375,96.2867 Q723.0188,95.5054 724.8938,95.5054 Q725.7844,95.5054 726.4563,95.6929 Q727.1281,95.8648 727.8156,96.2085 L727.0031,98.2242 Q726.3781,97.9117 725.8313,97.7867 Q725.3,97.6617 724.8156,97.6617 Q723.6438,97.6617 722.9406,98.1929 Q722.2375,98.7242 721.9406,99.6773 Q721.6438,100.6304 721.6438,101.896 Q721.6438,103.9117 722.3625,104.8804 Q723.0813,105.8335 724.675,105.8335 Q725.2688,105.8335 725.8938,105.6773 Q726.5188,105.521 727.3469,105.146 L727.3469,107.3648 Q726.6125,107.6773 725.8156,107.8335 Q725.0344,107.9898 724.2688,107.9898 Z " fill="#000000"/><text fill="#000000" font-family="sans-serif" font-size="14" lengthAdjust="spacing" textLength="31" x="743.2" y="106.4999">User</text><line style="stroke:#181818;stroke-width:0.5;" x1="691" x2="796" y1="117.0679" y2="117.0679"/><text fill="#000000" font-family="sans-serif" font-size="14" lengthAdjust="spacing" textLength="95" x="696" y="136.0339">+userId: UUID</text><text fill="#000000" font-family="sans-serif" font-size="14" lengthAdjust="spacing" textLength="95" x="696" y="155.1018">+name: String</text><line style="stroke:#181818;stroke-width:0.5;" x1="691" x2="796" y1="163.2038" y2="163.2038"/></g><!--class LightSpeedUser--><g id="elem_LightSpeedUser"><rect codeLine="29" fill="#F1F1F1" height="48" id="LightSpeedUser" rx="2.5" ry="2.5" style="stroke:#181818;stroke-width:0.5;" width="139" x="581" y="289.0679"/><ellipse cx="596" cy="305.0679" fill="#ADD1B2" rx="11" ry="11" style="stroke:#181818;stroke-width:1.0;"/><path d="M595.4688,311.9898 Q593.7188,311.9898 592.5781,311.2554 Q591.4531,310.5054 590.8906,309.1617 Q590.3438,307.8023 590.3438,306.0054 Q590.3438,303.9742 591,302.521 Q591.6563,301.0679 592.9375,300.2867 Q594.2188,299.5054 596.0938,299.5054 Q596.9844,299.5054 597.6563,299.6929 Q598.3281,299.8648 599.0156,300.2085 L598.2031,302.2242 Q597.5781,301.9117 597.0313,301.7867 Q596.5,301.6617 596.0156,301.6617 Q594.8438,301.6617 594.1406,302.1929 Q593.4375,302.7242 593.1406,303.6773 Q592.8438,304.6304 592.8438,305.896 Q592.8438,307.9117 593.5625,308.8804 Q594.2813,309.8335 595.875,309.8335 Q596.4688,309.8335 597.0938,309.6773 Q597.7188,309.521 598.5469,309.146 L598.5469,311.3648 Q597.8125,311.6773 597.0156,311.8335 Q596.2344,311.9898 595.4688,311.9898 Z " fill="#000000"/><text fill="#000000" font-family="sans-serif" font-size="14" lengthAdjust="spacing" textLength="107" x="610" y="310.4999">LightSpeedUser</text><line style="stroke:#181818;stroke-width:0.5;" x1="582" x2="719" y1="321.0679" y2="321.0679"/><line style="stroke:#181818;stroke-width:0.5;" x1="582" x2="719" y1="329.0679" y2="329.0679"/></g><!--class DataAnalyst--><g id="elem_DataAnalyst"><rect codeLine="30" fill="#F1F1F1" height="48" id="DataAnalyst" rx="2.5" ry="2.5" style="stroke:#181818;stroke-width:0.5;" width="112" x="792.5" y="289.0679"/><ellipse cx="807.5" cy="305.0679" fill="#ADD1B2" rx="11" ry="11" style="stroke:#181818;stroke-width:1.0;"/><path d="M806.9688,311.9898 Q805.2188,311.9898 804.0781,311.2554 Q802.9531,310.5054 802.3906,309.1617 Q801.8438,307.8023 801.8438,306.0054 Q801.8438,303.9742 802.5,302.521 Q803.1563,301.0679 804.4375,300.2867 Q805.7188,299.5054 807.5938,299.5054 Q808.4844,299.5054 809.1563,299.6929 Q809.8281,299.8648 810.5156,300.2085 L809.7031,302.2242 Q809.0781,301.9117 808.5313,301.7867 Q808,301.6617 807.5156,301.6617 Q806.3438,301.6617 805.6406,302.1929 Q804.9375,302.7242 804.6406,303.6773 Q804.3438,304.6304 804.3438,305.896 Q804.3438,307.9117 805.0625,308.8804 Q805.7813,309.8335 807.375,309.8335 Q807.9688,309.8335 808.5938,309.6773 Q809.2188,309.521 810.0469,309.146 L810.0469,311.3648 Q809.3125,311.6773 808.5156,311.8335 Q807.7344,311.9898 806.9688,311.9898 Z " fill="#000000"/><text fill="#000000" font-family="sans-serif" font-size="14" lengthAdjust="spacing" textLength="80" x="821.5" y="310.4999">DataAnalyst</text><line style="stroke:#181818;stroke-width:0.5;" x1="793.5" x2="903.5" y1="321.0679" y2="321.0679"/><line style="stroke:#181818;stroke-width:0.5;" x1="793.5" x2="903.5" y1="329.0679" y2="329.0679"/></g><!--class UserSettings--><g id="elem_UserSettings"><rect codeLine="36" fill="#F1F1F1" height="105.2038" id="UserSettings" rx="2.5" ry="2.5" style="stroke:#181818;stroke-width:0.5;" width="335" x="68" y="435.0679"/><ellipse cx="188.25" cy="451.0679" fill="#ADD1B2" rx="11" ry="11" style="stroke:#181818;stroke-width:1.0;"/><path d="M187.7188,457.9898 Q185.9688,457.9898 184.8281,457.2554 Q183.7031,456.5054 183.1406,455.1617 Q182.5938,453.8023 182.5938,452.0054 Q182.5938,449.9742 183.25,448.521 Q183.9063,447.0679 185.1875,446.2867 Q186.4688,445.5054 188.3438,445.5054 Q189.2344,445.5054 189.9063,445.6929 Q190.5781,445.8648 191.2656,446.2085 L190.4531,448.2242 Q189.8281,447.9117 189.2813,447.7867 Q188.75,447.6617 188.2656,447.6617 Q187.0938,447.6617 186.3906,448.1929 Q185.6875,448.7242 185.3906,449.6773 Q185.0938,450.6304 185.0938,451.896 Q185.0938,453.9117 185.8125,454.8804 Q186.5313,455.8335 188.125,455.8335 Q188.7188,455.8335 189.3438,455.6773 Q189.9688,455.521 190.7969,455.146 L190.7969,457.3648 Q190.0625,457.6773 189.2656,457.8335 Q188.4844,457.9898 187.7188,457.9898 Z " fill="#000000"/><text fill="#000000" font-family="sans-serif" font-size="14" lengthAdjust="spacing" textLength="86" x="208.75" y="456.4999">UserSettings</text><line style="stroke:#181818;stroke-width:0.5;" x1="69" x2="402" y1="467.0679" y2="467.0679"/><text fill="#000000" font-family="sans-serif" font-size="14" lengthAdjust="spacing" textLength="206" x="74" y="486.0339">+modeOfTravel: ModeOfTravel</text><text fill="#000000" font-family="sans-serif" font-size="14" lengthAdjust="spacing" textLength="245" x="74" y="505.1018">+wheelchairAccessibleOnly: Boolean</text><text fill="#000000" font-family="sans-serif" font-size="14" lengthAdjust="spacing" textLength="323" x="74" y="524.1697">+transportationTypes: List&lt;TransportationType&gt;</text><line style="stroke:#181818;stroke-width:0.5;" x1="69" x2="402" y1="532.2717" y2="532.2717"/></g><!--class RouteSearch--><g id="elem_RouteSearch"><rect codeLine="43" fill="#F1F1F1" height="86.1358" id="RouteSearch" rx="2.5" ry="2.5" style="stroke:#181818;stroke-width:0.5;" width="201" x="438" y="444.5679"/><ellipse cx="491.75" cy="460.5679" fill="#ADD1B2" rx="11" ry="11" style="stroke:#181818;stroke-width:1.0;"/><path d="M491.2188,467.4898 Q489.4688,467.4898 488.3281,466.7554 Q487.2031,466.0054 486.6406,464.6617 Q486.0938,463.3023 486.0938,461.5054 Q486.0938,459.4742 486.75,458.021 Q487.4063,456.5679 488.6875,455.7867 Q489.9688,455.0054 491.8438,455.0054 Q492.7344,455.0054 493.4063,455.1929 Q494.0781,455.3648 494.7656,455.7085 L493.9531,457.7242 Q493.3281,457.4117 492.7813,457.2867 Q492.25,457.1617 491.7656,457.1617 Q490.5938,457.1617 489.8906,457.6929 Q489.1875,458.2242 488.8906,459.1773 Q488.5938,460.1304 488.5938,461.396 Q488.5938,463.4117 489.3125,464.3804 Q490.0313,465.3335 491.625,465.3335 Q492.2188,465.3335 492.8438,465.1773 Q493.4688,465.021 494.2969,464.646 L494.2969,466.8648 Q493.5625,467.1773 492.7656,467.3335 Q491.9844,467.4898 491.2188,467.4898 Z " fill="#000000"/><text fill="#000000" font-family="sans-serif" font-size="14" lengthAdjust="spacing" textLength="85" x="512.25" y="465.9999">RouteSearch</text><line style="stroke:#181818;stroke-width:0.5;" x1="439" x2="638" y1="476.5679" y2="476.5679"/><text fill="#000000" font-family="sans-serif" font-size="14" lengthAdjust="spacing" textLength="178" x="444" y="495.5339">+referenceTime: DateTime</text><text fill="#000000" font-family="sans-serif" font-size="14" lengthAdjust="spacing" textLength="189" x="444" y="514.6018">+timeType: SearchTimeType</text><line style="stroke:#181818;stroke-width:0.5;" x1="439" x2="638" y1="522.7038" y2="522.7038"/></g><!--class RouteOption--><g id="elem_RouteOption"><rect codeLine="50" fill="#F1F1F1" height="143.3396" id="RouteOption" rx="2.5" ry="2.5" style="stroke:#181818;stroke-width:0.5;" width="193" x="182" y="619.0679"/><ellipse cx="231.75" cy="635.0679" fill="#ADD1B2" rx="11" ry="11" style="stroke:#181818;stroke-width:1.0;"/><path d="M231.2188,641.9898 Q229.4688,641.9898 228.3281,641.2554 Q227.2031,640.5054 226.6406,639.1617 Q226.0938,637.8023 226.0938,636.0054 Q226.0938,633.9742 226.75,632.521 Q227.4063,631.0679 228.6875,630.2867 Q229.9688,629.5054 231.8438,629.5054 Q232.7344,629.5054 233.4063,629.6929 Q234.0781,629.8648 234.7656,630.2085 L233.9531,632.2242 Q233.3281,631.9117 232.7813,631.7867 Q232.25,631.6617 231.7656,631.6617 Q230.5938,631.6617 229.8906,632.1929 Q229.1875,632.7242 228.8906,633.6773 Q228.5938,634.6304 228.5938,635.896 Q228.5938,637.9117 229.3125,638.8804 Q230.0313,639.8335 231.625,639.8335 Q232.2188,639.8335 232.8438,639.6773 Q233.4688,639.521 234.2969,639.146 L234.2969,641.3648 Q233.5625,641.6773 232.7656,641.8335 Q231.9844,641.9898 231.2188,641.9898 Z " fill="#000000"/><text fill="#000000" font-family="sans-serif" font-size="14" lengthAdjust="spacing" textLength="85" x="252.25" y="640.4999">RouteOption</text><line style="stroke:#181818;stroke-width:0.5;" x1="183" x2="374" y1="651.0679" y2="651.0679"/><text fill="#000000" font-family="sans-serif" font-size="14" lengthAdjust="spacing" textLength="97" x="188" y="670.0339">+cost: Decimal</text><text fill="#000000" font-family="sans-serif" font-size="14" lengthAdjust="spacing" textLength="107" x="188" y="689.1018">+duration: Time</text><text fill="#000000" font-family="sans-serif" font-size="14" lengthAdjust="spacing" textLength="177" x="188" y="708.1697">+carbonEmission: Decimal</text><text fill="#000000" font-family="sans-serif" font-size="14" lengthAdjust="spacing" textLength="181" x="188" y="727.2376">+departureTime: DateTime</text><text fill="#000000" font-family="sans-serif" font-size="14" lengthAdjust="spacing" textLength="156" x="188" y="746.3055">+arrivalTime: DateTime</text><line style="stroke:#181818;stroke-width:0.5;" x1="183" x2="374" y1="754.4075" y2="754.4075"/></g><!--class PathSegment--><g id="elem_PathSegment"><rect codeLine="59" fill="#F1F1F1" height="143.3396" id="PathSegment" rx="2.5" ry="2.5" style="stroke:#181818;stroke-width:0.5;" width="201" x="7" y="841.0679"/><ellipse cx="58.25" cy="857.0679" fill="#ADD1B2" rx="11" ry="11" style="stroke:#181818;stroke-width:1.0;"/><path d="M57.7188,863.9898 Q55.9688,863.9898 54.8281,863.2554 Q53.7031,862.5054 53.1406,861.1617 Q52.5938,859.8023 52.5938,858.0054 Q52.5938,855.9742 53.25,854.521 Q53.9063,853.0679 55.1875,852.2867 Q56.4688,851.5054 58.3438,851.5054 Q59.2344,851.5054 59.9063,851.6929 Q60.5781,851.8648 61.2656,852.2085 L60.4531,854.2242 Q59.8281,853.9117 59.2813,853.7867 Q58.75,853.6617 58.2656,853.6617 Q57.0938,853.6617 56.3906,854.1929 Q55.6875,854.7242 55.3906,855.6773 Q55.0938,856.6304 55.0938,857.896 Q55.0938,859.9117 55.8125,860.8804 Q56.5313,861.8335 58.125,861.8335 Q58.7188,861.8335 59.3438,861.6773 Q59.9688,861.521 60.7969,861.146 L60.7969,863.3648 Q60.0625,863.6773 59.2656,863.8335 Q58.4844,863.9898 57.7188,863.9898 Z " fill="#000000"/><text fill="#000000" font-family="sans-serif" font-size="14" lengthAdjust="spacing" textLength="90" x="78.75" y="862.4999">PathSegment</text><line style="stroke:#181818;stroke-width:0.5;" x1="8" x2="207" y1="873.0679" y2="873.0679"/><text fill="#000000" font-family="sans-serif" font-size="14" lengthAdjust="spacing" textLength="103" x="13" y="892.0339">+order: Integer</text><text fill="#000000" font-family="sans-serif" font-size="14" lengthAdjust="spacing" textLength="186" x="13" y="911.1018">+mode: TransportationType</text><text fill="#000000" font-family="sans-serif" font-size="14" lengthAdjust="spacing" textLength="167" x="13" y="930.1697">+segmentDuration: Time</text><text fill="#000000" font-family="sans-serif" font-size="14" lengthAdjust="spacing" textLength="158" x="13" y="949.2376">+segmentCost: Decimal</text><text fill="#000000" font-family="sans-serif" font-size="14" lengthAdjust="spacing" textLength="189" x="13" y="968.3055">+segmentEmission: Decimal</text><line style="stroke:#181818;stroke-width:0.5;" x1="8" x2="207" y1="976.4075" y2="976.4075"/></g><!--class Location--><g id="elem_Location"><rect codeLine="68" fill="#F1F1F1" height="124.2717" id="Location" rx="2.5" ry="2.5" style="stroke:#181818;stroke-width:0.5;" width="141" x="108" y="1063.0679"/><ellipse cx="146.85" cy="1079.0679" fill="#ADD1B2" rx="11" ry="11" style="stroke:#181818;stroke-width:1.0;"/><path d="M146.3188,1085.9898 Q144.5688,1085.9898 143.4281,1085.2554 Q142.3031,1084.5054 141.7406,1083.1617 Q141.1938,1081.8023 141.1938,1080.0054 Q141.1938,1077.9742 141.85,1076.521 Q142.5063,1075.0679 143.7875,1074.2867 Q145.0688,1073.5054 146.9438,1073.5054 Q147.8344,1073.5054 148.5063,1073.6929 Q149.1781,1073.8648 149.8656,1074.2085 L149.0531,1076.2242 Q148.4281,1075.9117 147.8813,1075.7867 Q147.35,1075.6617 146.8656,1075.6617 Q145.6938,1075.6617 144.9906,1076.1929 Q144.2875,1076.7242 143.9906,1077.6773 Q143.6938,1078.6304 143.6938,1079.896 Q143.6938,1081.9117 144.4125,1082.8804 Q145.1313,1083.8335 146.725,1083.8335 Q147.3188,1083.8335 147.9438,1083.6773 Q148.5688,1083.521 149.3969,1083.146 L149.3969,1085.3648 Q148.6625,1085.6773 147.8656,1085.8335 Q147.0844,1085.9898 146.3188,1085.9898 Z " fill="#000000"/><text fill="#000000" font-family="sans-serif" font-size="14" lengthAdjust="spacing" textLength="56" x="166.15" y="1084.4999">Location</text><line style="stroke:#181818;stroke-width:0.5;" x1="109" x2="248" y1="1095.0679" y2="1095.0679"/><text fill="#000000" font-family="sans-serif" font-size="14" lengthAdjust="spacing" textLength="118" x="114" y="1114.0339">+locationId: UUID</text><text fill="#000000" font-family="sans-serif" font-size="14" lengthAdjust="spacing" textLength="95" x="114" y="1133.1018">+name: String</text><text fill="#000000" font-family="sans-serif" font-size="14" lengthAdjust="spacing" textLength="116" x="114" y="1152.1697">+latitude: Double</text><text fill="#000000" font-family="sans-serif" font-size="14" lengthAdjust="spacing" textLength="129" x="114" y="1171.2376">+longitude: Double</text><line style="stroke:#181818;stroke-width:0.5;" x1="109" x2="248" y1="1179.3396" y2="1179.3396"/></g><!--class RouteFilter--><g id="elem_RouteFilter"><rect codeLine="79" fill="#F1F1F1" height="67.0679" id="RouteFilter" rx="2.5" ry="2.5" style="stroke:#181818;stroke-width:0.5;" width="141" x="468" y="657.0679"/><ellipse cx="501" cy="673.0679" fill="#A9DCDF" rx="11" ry="11" style="stroke:#181818;stroke-width:1.0;"/><path d="M496.1719,678.8179 L499.5156,666.6304 L502.6563,666.6304 L506.0313,678.8179 L503.5625,678.8179 L502.8281,675.8023 L499.3125,675.8023 L498.5625,678.8179 L496.1719,678.8179 Z M500.5781,670.771 L499.8281,673.771 L502.3438,673.771 L501.625,670.771 Q501.4844,670.1929 501.3594,669.646 Q501.2344,669.0835 501.0938,668.5054 Q500.9844,669.0835 500.8438,669.646 Q500.7031,670.1929 500.5781,670.771 Z " fill="#000000"/><text fill="#000000" font-family="sans-serif" font-size="14" font-style="italic" lengthAdjust="spacing" textLength="69" x="519" y="678.4999">RouteFilter</text><line style="stroke:#181818;stroke-width:0.5;" x1="469" x2="608" y1="689.0679" y2="689.0679"/><text fill="#000000" font-family="sans-serif" font-size="14" lengthAdjust="spacing" textLength="129" x="474" y="708.0339">+filterName: String</text><line style="stroke:#181818;stroke-width:0.5;" x1="469" x2="608" y1="716.1358" y2="716.1358"/></g><!--class GreenFilter--><g id="elem_GreenFilter"><rect codeLine="82" fill="#F1F1F1" height="48" id="GreenFilter" rx="2.5" ry="2.5" style="stroke:#181818;stroke-width:0.5;" width="107" x="384" y="888.5679"/><ellipse cx="399" cy="904.5679" fill="#ADD1B2" rx="11" ry="11" style="stroke:#181818;stroke-width:1.0;"/><path d="M398.4688,911.4898 Q396.7188,911.4898 395.5781,910.7554 Q394.4531,910.0054 393.8906,908.6617 Q393.3438,907.3023 393.3438,905.5054 Q393.3438,903.4742 394,902.021 Q394.6563,900.5679 395.9375,899.7867 Q397.2188,899.0054 399.0938,899.0054 Q399.9844,899.0054 400.6563,899.1929 Q401.3281,899.3648 402.0156,899.7085 L401.2031,901.7242 Q400.5781,901.4117 400.0313,901.2867 Q399.5,901.1617 399.0156,901.1617 Q397.8438,901.1617 397.1406,901.6929 Q396.4375,902.2242 396.1406,903.1773 Q395.8438,904.1304 395.8438,905.396 Q395.8438,907.4117 396.5625,908.3804 Q397.2813,909.3335 398.875,909.3335 Q399.4688,909.3335 400.0938,909.1773 Q400.7188,909.021 401.5469,908.646 L401.5469,910.8648 Q400.8125,911.1773 400.0156,911.3335 Q399.2344,911.4898 398.4688,911.4898 Z " fill="#000000"/><text fill="#000000" font-family="sans-serif" font-size="14" lengthAdjust="spacing" textLength="75" x="413" y="909.9999">GreenFilter</text><line style="stroke:#181818;stroke-width:0.5;" x1="385" x2="490" y1="920.5679" y2="920.5679"/><line style="stroke:#181818;stroke-width:0.5;" x1="385" x2="490" y1="928.5679" y2="928.5679"/></g><!--class WheelchairFilter--><g id="elem_WheelchairFilter"><rect codeLine="83" fill="#F1F1F1" height="48" id="WheelchairFilter" rx="2.5" ry="2.5" style="stroke:#181818;stroke-width:0.5;" width="142" x="526.5" y="888.5679"/><ellipse cx="541.5" cy="904.5679" fill="#ADD1B2" rx="11" ry="11" style="stroke:#181818;stroke-width:1.0;"/><path d="M540.9688,911.4898 Q539.2188,911.4898 538.0781,910.7554 Q536.9531,910.0054 536.3906,908.6617 Q535.8438,907.3023 535.8438,905.5054 Q535.8438,903.4742 536.5,902.021 Q537.1563,900.5679 538.4375,899.7867 Q539.7188,899.0054 541.5938,899.0054 Q542.4844,899.0054 543.1563,899.1929 Q543.8281,899.3648 544.5156,899.7085 L543.7031,901.7242 Q543.0781,901.4117 542.5313,901.2867 Q542,901.1617 541.5156,901.1617 Q540.3438,901.1617 539.6406,901.6929 Q538.9375,902.2242 538.6406,903.1773 Q538.3438,904.1304 538.3438,905.396 Q538.3438,907.4117 539.0625,908.3804 Q539.7813,909.3335 541.375,909.3335 Q541.9688,909.3335 542.5938,909.1773 Q543.2188,909.021 544.0469,908.646 L544.0469,910.8648 Q543.3125,911.1773 542.5156,911.3335 Q541.7344,911.4898 540.9688,911.4898 Z " fill="#000000"/><text fill="#000000" font-family="sans-serif" font-size="14" lengthAdjust="spacing" textLength="110" x="555.5" y="909.9999">WheelchairFilter</text><line style="stroke:#181818;stroke-width:0.5;" x1="527.5" x2="667.5" y1="920.5679" y2="920.5679"/><line style="stroke:#181818;stroke-width:0.5;" x1="527.5" x2="667.5" y1="928.5679" y2="928.5679"/></g><!--class TransportTypeFilter--><g id="elem_TransportTypeFilter"><rect codeLine="84" fill="#F1F1F1" height="48" id="TransportTypeFilter" rx="2.5" ry="2.5" style="stroke:#181818;stroke-width:0.5;" width="164" x="703.5" y="888.5679"/><ellipse cx="718.5" cy="904.5679" fill="#ADD1B2" rx="11" ry="11" style="stroke:#181818;stroke-width:1.0;"/><path d="M717.9688,911.4898 Q716.2188,911.4898 715.0781,910.7554 Q713.9531,910.0054 713.3906,908.6617 Q712.8438,907.3023 712.8438,905.5054 Q712.8438,903.4742 713.5,902.021 Q714.1563,900.5679 715.4375,899.7867 Q716.7188,899.0054 718.5938,899.0054 Q719.4844,899.0054 720.1563,899.1929 Q720.8281,899.3648 721.5156,899.7085 L720.7031,901.7242 Q720.0781,901.4117 719.5313,901.2867 Q719,901.1617 718.5156,901.1617 Q717.3438,901.1617 716.6406,901.6929 Q715.9375,902.2242 715.6406,903.1773 Q715.3438,904.1304 715.3438,905.396 Q715.3438,907.4117 716.0625,908.3804 Q716.7813,909.3335 718.375,909.3335 Q718.9688,909.3335 719.5938,909.1773 Q720.2188,909.021 721.0469,908.646 L721.0469,910.8648 Q720.3125,911.1773 719.5156,911.3335 Q718.7344,911.4898 717.9688,911.4898 Z " fill="#000000"/><text fill="#000000" font-family="sans-serif" font-size="14" lengthAdjust="spacing" textLength="132" x="732.5" y="909.9999">TransportTypeFilter</text><line style="stroke:#181818;stroke-width:0.5;" x1="704.5" x2="866.5" y1="920.5679" y2="920.5679"/><line style="stroke:#181818;stroke-width:0.5;" x1="704.5" x2="866.5" y1="928.5679" y2="928.5679"/></g><!--class PersonalStatistics--><g id="elem_PersonalStatistics"><rect codeLine="94" fill="#F1F1F1" height="67.0679" id="PersonalStatistics" rx="2.5" ry="2.5" style="stroke:#181818;stroke-width:0.5;" width="176" x="674.5" y="454.0679"/><ellipse cx="701.2" cy="470.0679" fill="#ADD1B2" rx="11" ry="11" style="stroke:#181818;stroke-width:1.0;"/><path d="M700.6688,476.9898 Q698.9188,476.9898 697.7781,476.2554 Q696.6531,475.5054 696.0906,474.1617 Q695.5438,472.8023 695.5438,471.0054 Q695.5438,468.9742 696.2,467.521 Q696.8563,466.0679 698.1375,465.2867 Q699.4188,464.5054 701.2938,464.5054 Q702.1844,464.5054 702.8563,464.6929 Q703.5281,464.8648 704.2156,465.2085 L703.4031,467.2242 Q702.7781,466.9117 702.2313,466.7867 Q701.7,466.6617 701.2156,466.6617 Q700.0438,466.6617 699.3406,467.1929 Q698.6375,467.7242 698.3406,468.6773 Q698.0438,469.6304 698.0438,470.896 Q698.0438,472.9117 698.7625,473.8804 Q699.4813,474.8335 701.075,474.8335 Q701.6688,474.8335 702.2938,474.6773 Q702.9188,474.521 703.7469,474.146 L703.7469,476.3648 Q703.0125,476.6773 702.2156,476.8335 Q701.4344,476.9898 700.6688,476.9898 Z " fill="#000000"/><text fill="#000000" font-family="sans-serif" font-size="14" lengthAdjust="spacing" textLength="118" x="717.8" y="475.4999">PersonalStatistics</text><line style="stroke:#181818;stroke-width:0.5;" x1="675.5" x2="849.5" y1="486.0679" y2="486.0679"/><text fill="#000000" font-family="sans-serif" font-size="14" lengthAdjust="spacing" textLength="164" x="680.5" y="505.0339">+generatedAt: DateTime</text><line style="stroke:#181818;stroke-width:0.5;" x1="675.5" x2="849.5" y1="513.1358" y2="513.1358"/></g><!--class EmissionStatistics--><g id="elem_EmissionStatistics"><rect codeLine="97" fill="#F1F1F1" height="48" id="EmissionStatistics" rx="2.5" ry="2.5" style="stroke:#181818;stroke-width:0.5;" width="152" x="644.5" y="666.5679"/><ellipse cx="659.5" cy="682.5679" fill="#ADD1B2" rx="11" ry="11" style="stroke:#181818;stroke-width:1.0;"/><path d="M658.9688,689.4898 Q657.2188,689.4898 656.0781,688.7554 Q654.9531,688.0054 654.3906,686.6617 Q653.8438,685.3023 653.8438,683.5054 Q653.8438,681.4742 654.5,680.021 Q655.1563,678.5679 656.4375,677.7867 Q657.7188,677.0054 659.5938,677.0054 Q660.4844,677.0054 661.1563,677.1929 Q661.8281,677.3648 662.5156,677.7085 L661.7031,679.7242 Q661.0781,679.4117 660.5313,679.2867 Q660,679.1617 659.5156,679.1617 Q658.3438,679.1617 657.6406,679.6929 Q656.9375,680.2242 656.6406,681.1773 Q656.3438,682.1304 656.3438,683.396 Q656.3438,685.4117 657.0625,686.3804 Q657.7813,687.3335 659.375,687.3335 Q659.9688,687.3335 660.5938,687.1773 Q661.2188,687.021 662.0469,686.646 L662.0469,688.8648 Q661.3125,689.1773 660.5156,689.3335 Q659.7344,689.4898 658.9688,689.4898 Z " fill="#000000"/><text fill="#000000" font-family="sans-serif" font-size="14" lengthAdjust="spacing" textLength="120" x="673.5" y="687.9999">EmissionStatistics</text><line style="stroke:#181818;stroke-width:0.5;" x1="645.5" x2="795.5" y1="698.5679" y2="698.5679"/><line style="stroke:#181818;stroke-width:0.5;" x1="645.5" x2="795.5" y1="706.5679" y2="706.5679"/></g><!--class ExpenditureSummary--><g id="elem_ExpenditureSummary"><rect codeLine="98" fill="#F1F1F1" height="105.2038" id="ExpenditureSummary" rx="2.5" ry="2.5" style="stroke:#181818;stroke-width:0.5;" width="178" x="831.5" y="638.0679"/><ellipse cx="846.5" cy="654.0679" fill="#ADD1B2" rx="11" ry="11" style="stroke:#181818;stroke-width:1.0;"/><path d="M845.9688,660.9898 Q844.2188,660.9898 843.0781,660.2554 Q841.9531,659.5054 841.3906,658.1617 Q840.8438,656.8023 840.8438,655.0054 Q840.8438,652.9742 841.5,651.521 Q842.1563,650.0679 843.4375,649.2867 Q844.7188,648.5054 846.5938,648.5054 Q847.4844,648.5054 848.1563,648.6929 Q848.8281,648.8648 849.5156,649.2085 L848.7031,651.2242 Q848.0781,650.9117 847.5313,650.7867 Q847,650.6617 846.5156,650.6617 Q845.3438,650.6617 844.6406,651.1929 Q843.9375,651.7242 843.6406,652.6773 Q843.3438,653.6304 843.3438,654.896 Q843.3438,656.9117 844.0625,657.8804 Q844.7813,658.8335 846.375,658.8335 Q846.9688,658.8335 847.5938,658.6773 Q848.2188,658.521 849.0469,658.146 L849.0469,660.3648 Q848.3125,660.6773 847.5156,660.8335 Q846.7344,660.9898 845.9688,660.9898 Z " fill="#000000"/><text fill="#000000" font-family="sans-serif" font-size="14" lengthAdjust="spacing" textLength="146" x="860.5" y="659.4999">ExpenditureSummary</text><line style="stroke:#181818;stroke-width:0.5;" x1="832.5" x2="1008.5" y1="670.0679" y2="670.0679"/><text fill="#000000" font-family="sans-serif" font-size="14" lengthAdjust="spacing" textLength="123" x="837.5" y="689.0339">+periodStart: Date</text><text fill="#000000" font-family="sans-serif" font-size="14" lengthAdjust="spacing" textLength="117" x="837.5" y="708.1018">+periodEnd: Date</text><text fill="#000000" font-family="sans-serif" font-size="14" lengthAdjust="spacing" textLength="139" x="837.5" y="727.1697">+totalSpent: Decimal</text><line style="stroke:#181818;stroke-width:0.5;" x1="832.5" x2="1008.5" y1="735.2717" y2="735.2717"/></g><!--class StatisticsPlatform--><g id="elem_StatisticsPlatform"><rect codeLine="107" fill="#F1F1F1" height="67.0679" id="StatisticsPlatform" rx="2.5" ry="2.5" style="stroke:#181818;stroke-width:0.5;" width="149" x="935" y="454.0679"/><ellipse cx="950" cy="470.0679" fill="#ADD1B2" rx="11" ry="11" style="stroke:#181818;stroke-width:1.0;"/><path d="M949.4688,476.9898 Q947.7188,476.9898 946.5781,476.2554 Q945.4531,475.5054 944.8906,474.1617 Q944.3438,472.8023 944.3438,471.0054 Q944.3438,468.9742 945,467.521 Q945.6563,466.0679 946.9375,465.2867 Q948.2188,464.5054 950.0938,464.5054 Q950.9844,464.5054 951.6563,464.6929 Q952.3281,464.8648 953.0156,465.2085 L952.2031,467.2242 Q951.5781,466.9117 951.0313,466.7867 Q950.5,466.6617 950.0156,466.6617 Q948.8438,466.6617 948.1406,467.1929 Q947.4375,467.7242 947.1406,468.6773 Q946.8438,469.6304 946.8438,470.896 Q946.8438,472.9117 947.5625,473.8804 Q948.2813,474.8335 949.875,474.8335 Q950.4688,474.8335 951.0938,474.6773 Q951.7188,474.521 952.5469,474.146 L952.5469,476.3648 Q951.8125,476.6773 951.0156,476.8335 Q950.2344,476.9898 949.4688,476.9898 Z " fill="#000000"/><text fill="#000000" font-family="sans-serif" font-size="14" lengthAdjust="spacing" textLength="117" x="964" y="475.4999">StatisticsPlatform</text><line style="stroke:#181818;stroke-width:0.5;" x1="936" x2="1083" y1="486.0679" y2="486.0679"/><text fill="#000000" font-family="sans-serif" font-size="14" lengthAdjust="spacing" textLength="123" x="941" y="505.0339">+platformId: UUID</text><line style="stroke:#181818;stroke-width:0.5;" x1="936" x2="1083" y1="513.1358" y2="513.1358"/></g><!--class SeasonalTrendsModule--><g id="elem_SeasonalTrendsModule"><rect codeLine="110" fill="#F1F1F1" height="124.2717" id="SeasonalTrendsModule" rx="2.5" ry="2.5" style="stroke:#181818;stroke-width:0.5;" width="190" x="1044.5" y="628.5679"/><ellipse cx="1059.5" cy="644.5679" fill="#ADD1B2" rx="11" ry="11" style="stroke:#181818;stroke-width:1.0;"/><path d="M1058.9688,651.4898 Q1057.2188,651.4898 1056.0781,650.7554 Q1054.9531,650.0054 1054.3906,648.6617 Q1053.8438,647.3023 1053.8438,645.5054 Q1053.8438,643.4742 1054.5,642.021 Q1055.1563,640.5679 1056.4375,639.7867 Q1057.7188,639.0054 1059.5938,639.0054 Q1060.4844,639.0054 1061.1563,639.1929 Q1061.8281,639.3648 1062.5156,639.7085 L1061.7031,641.7242 Q1061.0781,641.4117 1060.5313,641.2867 Q1060,641.1617 1059.5156,641.1617 Q1058.3438,641.1617 1057.6406,641.6929 Q1056.9375,642.2242 1056.6406,643.1773 Q1056.3438,644.1304 1056.3438,645.396 Q1056.3438,647.4117 1057.0625,648.3804 Q1057.7813,649.3335 1059.375,649.3335 Q1059.9688,649.3335 1060.5938,649.1773 Q1061.2188,649.021 1062.0469,648.646 L1062.0469,650.8648 Q1061.3125,651.1773 1060.5156,651.3335 Q1059.7344,651.4898 1058.9688,651.4898 Z " fill="#000000"/><text fill="#000000" font-family="sans-serif" font-size="14" lengthAdjust="spacing" textLength="158" x="1073.5" y="649.9999">SeasonalTrendsModule</text><line style="stroke:#181818;stroke-width:0.5;" x1="1045.5" x2="1233.5" y1="660.5679" y2="660.5679"/><text fill="#000000" font-family="sans-serif" font-size="14" lengthAdjust="spacing" textLength="141" x="1050.5" y="679.5339">+timeWindow: String</text><text fill="#000000" font-family="sans-serif" font-size="14" lengthAdjust="spacing" textLength="101" x="1050.5" y="698.6018">+region: String</text><text fill="#000000" font-family="sans-serif" font-size="14" lengthAdjust="spacing" textLength="124" x="1050.5" y="717.6697">+ageGroup: String</text><text fill="#000000" font-family="sans-serif" font-size="14" lengthAdjust="spacing" textLength="128" x="1050.5" y="736.7376">+timeOfDay: String</text><line style="stroke:#181818;stroke-width:0.5;" x1="1045.5" x2="1233.5" y1="744.8396" y2="744.8396"/></g><!--class SeasonalTravelPatternReport--><g id="elem_SeasonalTravelPatternReport"><rect codeLine="116" fill="#F1F1F1" height="86.1358" id="SeasonalTravelPatternReport" rx="2.5" ry="2.5" style="stroke:#181818;stroke-width:0.5;" width="227" x="1026" y="869.5679"/><ellipse cx="1041" cy="885.5679" fill="#ADD1B2" rx="11" ry="11" style="stroke:#181818;stroke-width:1.0;"/><path d="M1040.4688,892.4898 Q1038.7188,892.4898 1037.5781,891.7554 Q1036.4531,891.0054 1035.8906,889.6617 Q1035.3438,888.3023 1035.3438,886.5054 Q1035.3438,884.4742 1036,883.021 Q1036.6563,881.5679 1037.9375,880.7867 Q1039.2188,880.0054 1041.0938,880.0054 Q1041.9844,880.0054 1042.6563,880.1929 Q1043.3281,880.3648 1044.0156,880.7085 L1043.2031,882.7242 Q1042.5781,882.4117 1042.0313,882.2867 Q1041.5,882.1617 1041.0156,882.1617 Q1039.8438,882.1617 1039.1406,882.6929 Q1038.4375,883.2242 1038.1406,884.1773 Q1037.8438,885.1304 1037.8438,886.396 Q1037.8438,888.4117 1038.5625,889.3804 Q1039.2813,890.3335 1040.875,890.3335 Q1041.4688,890.3335 1042.0938,890.1773 Q1042.7188,890.021 1043.5469,889.646 L1043.5469,891.8648 Q1042.8125,892.1773 1042.0156,892.3335 Q1041.2344,892.4898 1040.4688,892.4898 Z " fill="#000000"/><text fill="#000000" font-family="sans-serif" font-size="14" lengthAdjust="spacing" textLength="195" x="1055" y="890.9999">SeasonalTravelPatternReport</text><line style="stroke:#181818;stroke-width:0.5;" x1="1027" x2="1252" y1="901.5679" y2="901.5679"/><text fill="#000000" font-family="sans-serif" font-size="14" lengthAdjust="spacing" textLength="166" x="1032" y="920.5339">+popularityTrend: String</text><text fill="#000000" font-family="sans-serif" font-size="14" lengthAdjust="spacing" textLength="178" x="1032" y="939.6018">+demographicShift: String</text><line style="stroke:#181818;stroke-width:0.5;" x1="1027" x2="1252" y1="947.7038" y2="947.7038"/></g><!--reverse link User to LightSpeedUser--><g id="link_User_LightSpeedUser"><path codeLine="32" d="M713.7749,187.5546 C695.2049,224.0946 677.27,259.3879 662.3,288.8479 " fill="none" id="User-backto-LightSpeedUser" style="stroke:#181818;stroke-width:1.0;"/><polygon fill="none" points="721.93,171.5079,708.426,184.8362,719.1238,190.2729,721.93,171.5079" style="stroke:#181818;stroke-width:1.0;"/></g><!--reverse link User to DataAnalyst--><g id="link_User_DataAnalyst"><path codeLine="33" d="M776.8063,187.1215 C797.7663,223.6615 818.28,259.3879 835.18,288.8479 " fill="none" id="User-backto-DataAnalyst" style="stroke:#181818;stroke-width:1.0;"/><polygon fill="none" points="767.85,171.5079,771.6017,190.107,782.0108,184.1361,767.85,171.5079" style="stroke:#181818;stroke-width:1.0;"/></g><!--link LightSpeedUser to UserSettings--><g id="link_LightSpeedUser_UserSettings"><path codeLine="41" d="M594.96,337.1579 C535.11,362.0279 437.91,402.4379 359.67,434.9579 " fill="none" id="LightSpeedUser-UserSettings" style="stroke:#181818;stroke-width:1.0;"/><text fill="#000000" font-family="sans-serif" font-size="13" lengthAdjust="spacing" textLength="21" x="469.5" y="400.9649">has</text><text fill="#000000" font-family="sans-serif" font-size="13" lengthAdjust="spacing" textLength="7" x="573.569" y="359.0848">1</text><text fill="#000000" font-family="sans-serif" font-size="13" lengthAdjust="spacing" textLength="7" x="369.6392" y="423.2967">1</text></g><!--link LightSpeedUser to RouteSearch--><g id="link_LightSpeedUser_RouteSearch"><path codeLine="47" d="M635.4,337.3279 C617.6,364.7379 587.7,410.7979 565.81,444.5079 " fill="none" id="LightSpeedUser-RouteSearch" style="stroke:#181818;stroke-width:1.0;"/><text fill="#000000" font-family="sans-serif" font-size="13" lengthAdjust="spacing" textLength="47" x="602.5" y="400.9649">initiates</text><text fill="#000000" font-family="sans-serif" font-size="13" lengthAdjust="spacing" textLength="7" x="624.0988" y="358.8823">1</text><text fill="#000000" font-family="sans-serif" font-size="13" lengthAdjust="spacing" textLength="7" x="562.7535" y="432.9125">*</text></g><!--link RouteSearch to RouteOption--><g id="link_RouteSearch_RouteOption"><path codeLine="57" d="M484,530.7079 C450.94,556.2579 407.91,589.5179 369.78,618.9979 " fill="none" id="RouteSearch-RouteOption" style="stroke:#181818;stroke-width:1.0;"/><text fill="#000000" font-family="sans-serif" font-size="13" lengthAdjust="spacing" textLength="29" x="433.5" y="584.9649">finds</text><text fill="#000000" font-family="sans-serif" font-size="13" lengthAdjust="spacing" textLength="7" x="468.1188" y="552.556">1</text><text fill="#000000" font-family="sans-serif" font-size="13" lengthAdjust="spacing" textLength="7" x="372.3809" y="607.1573">*</text></g><!--link RouteOption to PathSegment--><g id="link_RouteOption_PathSegment"><path codeLine="66" d="M199.44,762.0679 C190.24,771.7479 181.35,781.8679 173.5,792.0679 C162.01,806.9979 151.29,824.1779 141.97,840.7779 " fill="none" id="RouteOption-PathSegment" style="stroke:#181818;stroke-width:1.0;"/><text fill="#000000" font-family="sans-serif" font-size="13" lengthAdjust="spacing" textLength="77" x="174.5" y="806.9649">composedOf</text><text fill="#000000" font-family="sans-serif" font-size="13" lengthAdjust="spacing" textLength="7" x="183.926" y="784.2338">1</text><text fill="#000000" font-family="sans-serif" font-size="13" lengthAdjust="spacing" textLength="7" x="138.1638" y="829.4139">*</text></g><!--link PathSegment to Location--><g id="link_PathSegment_Location"><path codeLine="74" d="M53.56,984.2279 C47.27,1000.4079 45.55,1017.4479 53.5,1033.0679 C65.37,1056.3979 81.3395,1071.817 102.7495,1086.107 " fill="none" id="PathSegment-to-Location" style="stroke:#181818;stroke-width:1.0;"/><polygon fill="#181818" points="107.74,1089.4379,102.4748,1081.1146,103.5812,1086.6622,98.0336,1087.7686,107.74,1089.4379" style="stroke:#181818;stroke-width:1.0;"/><text fill="#000000" font-family="sans-serif" font-size="13" lengthAdjust="spacing" textLength="80" x="54.5" y="1028.9649">startLocation</text><text fill="#000000" font-family="sans-serif" font-size="13" lengthAdjust="spacing" textLength="7" x="40.6365" y="1006.4103">*</text><text fill="#000000" font-family="sans-serif" font-size="13" lengthAdjust="spacing" textLength="7" x="93.0819" y="1081.8064">1</text></g><!--link PathSegment to Location--><g id="link_PathSegment_Location"><path codeLine="75" d="M131.34,984.2479 C139.92,1009.6879 147.6025,1032.4726 155.8925,1057.0526 " fill="none" id="PathSegment-to-Location-1" style="stroke:#181818;stroke-width:1.0;"/><polygon fill="#181818" points="157.81,1062.7379,158.724,1052.9316,156.2121,1058.0001,151.1435,1055.4882,157.81,1062.7379" style="stroke:#181818;stroke-width:1.0;"/><text fill="#000000" font-family="sans-serif" font-size="13" lengthAdjust="spacing" textLength="75" x="148.5" y="1028.9649">endLocation</text><text fill="#000000" font-family="sans-serif" font-size="13" lengthAdjust="spacing" textLength="7" x="126.4376" y="1006.4324">*</text><text fill="#000000" font-family="sans-serif" font-size="13" lengthAdjust="spacing" textLength="7" x="148.013" y="1051.4703">1</text></g><!--link RouteOption to Location--><g id="link_RouteOption_Location"><path codeLine="76" d="M277.18,762.1379 C273.99,832.5579 263.85,942.9479 232.5,1033.0679 C229,1043.1279 227.1191,1048.0061 221.9691,1057.7261 " fill="none" id="RouteOption-to-Location" style="stroke:#181818;stroke-width:1.0;"/><polygon fill="#181818" points="219.16,1063.0279,226.9082,1056.9479,221.5009,1058.6098,219.8391,1053.2025,219.16,1063.0279" style="stroke:#181818;stroke-width:1.0;"/><text fill="#000000" font-family="sans-serif" font-size="13" lengthAdjust="spacing" textLength="68" x="272.5" y="917.9649">destination</text><text fill="#000000" font-family="sans-serif" font-size="13" lengthAdjust="spacing" textLength="7" x="269.6829" y="784.311">*</text><text fill="#000000" font-family="sans-serif" font-size="13" lengthAdjust="spacing" textLength="7" x="216.6889" y="1051.3543">1</text></g><!--reverse link RouteFilter to GreenFilter--><g id="link_RouteFilter_GreenFilter"><path codeLine="86" d="M515.8703,740.8666 C495.1803,785.9366 466.07,849.3279 448.08,888.5279 " fill="none" id="RouteFilter-backto-GreenFilter" style="stroke:#181818;stroke-width:1.0;"/><polygon fill="none" points="523.38,724.5079,510.4175,738.3633,521.3232,743.3698,523.38,724.5079" style="stroke:#181818;stroke-width:1.0;"/></g><!--reverse link RouteFilter to WheelchairFilter--><g id="link_RouteFilter_WheelchairFilter"><path codeLine="87" d="M551.9936,741.8933 C564.0836,786.9633 580.81,849.3279 591.32,888.5279 " fill="none" id="RouteFilter-backto-WheelchairFilter" style="stroke:#181818;stroke-width:1.0;"/><polygon fill="none" points="547.33,724.5079,546.1985,743.4478,557.7887,740.3387,547.33,724.5079" style="stroke:#181818;stroke-width:1.0;"/></g><!--reverse link RouteFilter to TransportTypeFilter--><g id="link_RouteFilter_TransportTypeFilter"><path codeLine="88" d="M588.6522,736.239 C639.1822,781.239 715.47,849.1879 759.57,888.4679 " fill="none" id="RouteFilter-backto-TransportTypeFilter" style="stroke:#181818;stroke-width:1.0;"/><polygon fill="none" points="575.21,724.2679,584.6618,740.7197,592.6426,731.7583,575.21,724.2679" style="stroke:#181818;stroke-width:1.0;"/></g><!--link RouteSearch to RouteFilter--><g id="link_RouteSearch_RouteFilter"><path codeLine="91" d="M538.5,530.7079 C538.5,568.2279 538.5,622.3779 538.5,656.7579 " fill="none" id="RouteSearch-RouteFilter" style="stroke:#181818;stroke-width:1.0;"/><text fill="#000000" font-family="sans-serif" font-size="13" lengthAdjust="spacing" textLength="42" x="539.5" y="584.9649">applies</text><text fill="#000000" font-family="sans-serif" font-size="13" lengthAdjust="spacing" textLength="7" x="530.9641" y="552.556">1</text><text fill="#000000" font-family="sans-serif" font-size="13" lengthAdjust="spacing" textLength="7" x="530.8109" y="645.388">*</text></g><!--reverse link PersonalStatistics to EmissionStatistics--><g id="link_PersonalStatistics_EmissionStatistics"><path d="M751.979,538.9275 C743.449,579.7575 732.76,630.8879 725.31,666.5479 " fill="none" id="PersonalStatistics-backto-EmissionStatistics" style="stroke:#181818;stroke-width:1.0;"/><polygon fill="none" points="755.66,521.3079,746.1058,537.7005,757.8522,540.1545,755.66,521.3079" style="stroke:#181818;stroke-width:1.0;"/></g><!--reverse link PersonalStatistics to ExpenditureSummary--><g id="link_PersonalStatistics_ExpenditureSummary"><path d="M799.3634,535.4596 C824.1934,567.0496 851.05,601.2179 879.95,637.9779 " fill="none" id="PersonalStatistics-backto-ExpenditureSummary" style="stroke:#181818;stroke-width:1.0;"/><polygon fill="none" points="788.24,521.3079,794.6461,539.1674,804.0806,531.7518,788.24,521.3079" style="stroke:#181818;stroke-width:1.0;"/></g><!--link LightSpeedUser to PersonalStatistics--><g id="link_LightSpeedUser_PersonalStatistics"><path codeLine="104" d="M665.6,337.3279 C685.13,367.4079 719.24,419.9379 741.34,453.9779 " fill="none" id="LightSpeedUser-PersonalStatistics" style="stroke:#181818;stroke-width:1.0;"/><text fill="#000000" font-family="sans-serif" font-size="13" lengthAdjust="spacing" textLength="33" x="707.5" y="400.9649">views</text><text fill="#000000" font-family="sans-serif" font-size="13" lengthAdjust="spacing" textLength="7" x="661.2825" y="358.8823">1</text><text fill="#000000" font-family="sans-serif" font-size="13" lengthAdjust="spacing" textLength="7" x="729.2539" y="442.2597">*</text></g><!--link DataAnalyst to StatisticsPlatform--><g id="link_DataAnalyst_StatisticsPlatform"><path codeLine="121" d="M870.21,337.3279 C898.28,367.4079 947.31,419.9379 979.08,453.9779 " fill="none" id="DataAnalyst-StatisticsPlatform" style="stroke:#181818;stroke-width:1.0;"/><text fill="#000000" font-family="sans-serif" font-size="13" lengthAdjust="spacing" textLength="27" x="930.5" y="400.9649">uses</text><text fill="#000000" font-family="sans-serif" font-size="13" lengthAdjust="spacing" textLength="7" x="867.4211" y="358.8823">1</text><text fill="#000000" font-family="sans-serif" font-size="13" lengthAdjust="spacing" textLength="7" x="965.084" y="442.2597">1</text></g><!--link StatisticsPlatform to SeasonalTrendsModule--><g id="link_StatisticsPlatform_SeasonalTrendsModule"><path codeLine="122" d="M1030.68,521.3079 C1049.38,550.2279 1077.15,593.1679 1099.96,628.4279 " fill="none" id="StatisticsPlatform-SeasonalTrendsModule" style="stroke:#181818;stroke-width:1.0;"/><text fill="#000000" font-family="sans-serif" font-size="13" lengthAdjust="spacing" textLength="34" x="1075.5" y="584.9649">offers</text><text fill="#000000" font-family="sans-serif" font-size="13" lengthAdjust="spacing" textLength="7" x="1026.9398" y="543.0518">1</text><text fill="#000000" font-family="sans-serif" font-size="13" lengthAdjust="spacing" textLength="7" x="1087.7145" y="616.7421">*</text></g><!--link SeasonalTrendsModule to SeasonalTravelPatternReport--><g id="link_SeasonalTrendsModule_SeasonalTravelPatternReport"><path codeLine="123" d="M1139.5,752.8479 C1139.5,789.9779 1139.5,836.3779 1139.5,869.3979 " fill="none" id="SeasonalTrendsModule-SeasonalTravelPatternReport" style="stroke:#181818;stroke-width:1.0;"/><text fill="#000000" font-family="sans-serif" font-size="13" lengthAdjust="spacing" textLength="56" x="1140.5" y="806.9649">produces</text><text fill="#000000" font-family="sans-serif" font-size="13" lengthAdjust="spacing" textLength="7" x="1132.0953" y="774.954">1</text><text fill="#000000" font-family="sans-serif" font-size="13" lengthAdjust="spacing" textLength="7" x="1131.9203" y="857.7843">*</text></g><!--SRC=[ZLPBR-Cs4BxhLn0vT84M1jehiLb0QtjJeyuwaEm6FJBII2PM8WMIIjPjyzyxV4YXB6tGYsNDyvkFCqCPRXeW-vniPCku8FUoX2RHtxZec68jAHgcTMgCua-zWLqXHSx_1l9hPDAnuXkh8JSNZAIWC4pK3IJ9XzlRMx8LVGkA6Iw59YX800Kkow4wAlOC3Vad8UHBcX_niVvzcpxWyoxRRhychzuOpOJkf38kol7IWNFvVChnzvYbz_YutnwpWmsGPbQrM_-rtc_ntsEw_sE8amDJnVd8MnXZRBOFQNOyPTOqpRBTd-aUhJtoamRb8JiEtBjp-eNq-7TNKd8wxJPE85WBbEJ8agWnW7VOy_fiyWwWjAv1k666fO8r5ssIn8Ny-EzgTMtxffZOErmv68DfDFafL7I5STHxh6r4DPqGxzGlPu2cE3Ekqg80hVbJ0mVHN2ZvB6K3J3WhCpi2JH6pDX_dX_C92PYMGsv-ko5OYtrC459oPZe9s3E93HOgyj0LLA10563FZ5egt3-FA1mZlJhM7oV_-MQIWX8kkE4OKmTYdPOSEj-hbjsw1M7Y7d0ctY9WBAGs20qAtZBFQDdxTgTa15imzIJ5jkN8hrLCp06doFHggKYc57zcpPNcDOdhk2uleAEaug8SoNrWvXpg2S2bAa5HiXC6QkoueLNemhWvfVRUctbrGREUCH4Kyxf31G5gL44CaoAtRISrb8TgA6Cl2nQHtuJN7y-Yiq8RqzlIDhB7zWwkefvANvCukqMpMdrouCQib6Y3XpMy_ny74ELeFYbwsRm4ZQFXpNrNVk6DiOk8QP9gBGlkbAkrvGDyRx8dZGDQ618rgNSBF5NkvUlIahfJ0C8R1ydZk14cuh4jR4S4JHAdSkig3ZTJpYBFB1QJV20fjf9hzfPT2EkwvaBQlZ6ymml7rwRVdOcGWZfVFWuyxWXH8XauwmyOGkAQHNhOPE87XPNZlkF5i5Th4FPUWp8razdqRaFFHsxmtM2wfOY3ptU7n-w2l6zRfYxl-0GK7IWkoznsfKSHIRUYZ6H66lJ732QUmtUMvK9EIfuvl0pqkMl9oHzmn2gfMYGo0tjyCODl_gDPm1vUn-aToCDJT9cFoXQFLrRVGF2nQ_yH5vjycOouWjejc4Y4NoHtIlRTH6ZT3zM6NMPpy9RJNequsDWmmXSpm9LTtp35pSNXciGjePMrOjsP5_cPLoOAdqGtU7mHBj12xOU5JXOqqR4iaaE9h2ex1OlQHUzvcPHq2XtmAo3v3m00]--></g></svg>