<svg xmlns="http://www.w3.org/2000/svg" xmlns:xlink="http://www.w3.org/1999/xlink" contentStyleType="text/css" data-diagram-type="DESCRIPTION" height="865px" preserveAspectRatio="none" style="width:569px;height:865px;background:#FFFFFF;" version="1.1" viewBox="0 0 569 865" width="569px" zoomAndPan="magnify"><defs/><g><!--cluster LightSpeed App--><g id="cluster_LightSpeed App"><rect fill="transparent" height="852" rx="2.5" ry="2.5" style="stroke:#181818;stroke-width:1;" width="333" x="230" y="7"/><text fill="#000000" font-family="sans-serif" font-size="14" font-weight="bold" lengthAdjust="spacing" textLength="125.2686" x="333.8657" y="21.9951">LightSpeed App</text></g><!--cluster Route Search--><g id="cluster_Route Search"><rect fill="transparent" height="370" rx="2.5" ry="2.5" style="stroke:#181818;stroke-width:1;" width="261" x="266" y="50"/><text fill="#000000" font-family="sans-serif" font-size="14" font-weight="bold" lengthAdjust="spacing" textLength="105.6221" x="343.689" y="64.9951">Route Search</text></g><!--cluster Statistics & Analytics--><g id="cluster_Statistics &amp; Analytics"><rect fill="transparent" height="391" rx="2.5" ry="2.5" style="stroke:#181818;stroke-width:1;" width="285" x="254" y="444"/><text fill="#000000" font-family="sans-serif" font-size="14" font-weight="bold" lengthAdjust="spacing" textLength="168.4238" x="312.2881" y="458.9951">Statistics &amp; Analytics</text></g><g id="elem_UC_Search"><ellipse cx="396.3521" cy="378.0473" fill="#F1F1F1" rx="114.3521" ry="26.0473" style="stroke:#181818;stroke-width:0.5;"/><text fill="#000000" font-family="sans-serif" font-size="14" lengthAdjust="spacing" textLength="125.6582" x="333.523" y="372.7455">Search a Route to</text><text fill="#000000" font-family="sans-serif" font-size="14" lengthAdjust="spacing" textLength="145.4756" x="323.6143" y="389.0424">Selected Destination</text></g><g id="elem_UC_FilterTransport"><ellipse cx="396.3389" cy="273.7642" fill="#F1F1F1" rx="113.8389" ry="26.2642" style="stroke:#181818;stroke-width:0.5;"/><text fill="#000000" font-family="sans-serif" font-size="14" lengthAdjust="spacing" textLength="143.2881" x="321.6949" y="269.3633">Filter Transportation</text><text fill="#000000" font-family="sans-serif" font-size="14" lengthAdjust="spacing" textLength="41.6309" x="372.5235" y="285.6602">Types</text></g><g id="elem_UC_Green"><ellipse cx="396.5018" cy="104.9004" fill="#F1F1F1" rx="87.5018" ry="19.9004" style="stroke:#181818;stroke-width:0.5;"/><text fill="#000000" font-family="sans-serif" font-size="14" lengthAdjust="spacing" textLength="136.0625" x="328.4705" y="107.747">Select Green Route</text></g><g id="elem_UC_Wheel"><ellipse cx="396.4094" cy="186.0473" fill="#F1F1F1" rx="100.9094" ry="26.0473" style="stroke:#181818;stroke-width:0.5;"/><text fill="#000000" font-family="sans-serif" font-size="14" lengthAdjust="spacing" textLength="118.7676" x="337.0256" y="180.7455">Filter Wheelchair</text><text fill="#000000" font-family="sans-serif" font-size="14" lengthAdjust="spacing" textLength="126.4648" x="333.177" y="197.0424">Accessible Routes</text></g><g id="elem_UC_Expenditure"><ellipse cx="396.437" cy="507.1874" fill="#F1F1F1" rx="126.437" ry="27.6874" style="stroke:#181818;stroke-width:0.5;"/><text fill="#000000" font-family="sans-serif" font-size="14" lengthAdjust="spacing" textLength="171.1172" x="307.8784" y="502.7865">View Travel Expenditure</text><text fill="#000000" font-family="sans-serif" font-size="14" lengthAdjust="spacing" textLength="67.6553" x="359.6094" y="519.0834">Summary</text></g><g id="elem_Stat"><ellipse cx="396.6936" cy="605.2387" fill="#F1F1F1" rx="84.1936" ry="19.2387" style="stroke:#181818;stroke-width:0.5;"/><text fill="#000000" font-family="sans-serif" font-size="14" lengthAdjust="spacing" textLength="128.4609" x="332.2664" y="608.1532">Personal Statistics</text></g><g id="elem_UC_Emissions"><ellipse cx="396.5061" cy="702.148" fill="#F1F1F1" rx="89.5061" ry="26.148" style="stroke:#181818;stroke-width:0.5;"/><text fill="#000000" font-family="sans-serif" font-size="14" lengthAdjust="spacing" textLength="109.8057" x="338.6033" y="697.7471">Check Emission</text><text fill="#000000" font-family="sans-serif" font-size="14" lengthAdjust="spacing" textLength="63.998" x="361.5071" y="714.044">Statistics</text></g><g id="elem_UC_Seasonal"><ellipse cx="396.4027" cy="791.1805" fill="#F1F1F1" rx="126.4027" ry="27.6805" style="stroke:#181818;stroke-width:0.5;"/><text fill="#000000" font-family="sans-serif" font-size="14" lengthAdjust="spacing" textLength="171.0215" x="307.8919" y="786.7797">Analyze Seasonal Travel</text><text fill="#000000" font-family="sans-serif" font-size="14" lengthAdjust="spacing" textLength="58.5361" x="364.1346" y="803.0765">Patterns</text></g><!--entity GreenU--><g id="elem_GreenU"><ellipse cx="63.5322" cy="60.5" fill="#F1F1F1" rx="8" ry="8" style="stroke:#181818;stroke-width:0.5;"/><path d="M63.5322,68.5 L63.5322,95.5 M50.5322,76.5 L76.5322,76.5 M63.5322,95.5 L50.5322,110.5 M63.5322,95.5 L76.5322,110.5 " fill="transparent" style="stroke:#181818;stroke-width:0.5;"/><text fill="#000000" font-family="sans-serif" font-size="14" lengthAdjust="spacing" textLength="79.0645" x="24" y="124.9951">Green User</text></g><!--entity DisabledUser--><g id="elem_DisabledUser"><ellipse cx="63.5898" cy="171.5" fill="#F1F1F1" rx="8" ry="8" style="stroke:#181818;stroke-width:0.5;"/><path d="M63.5898,179.5 L63.5898,206.5 M50.5898,187.5 L76.5898,187.5 M63.5898,206.5 L50.5898,221.5 M63.5898,206.5 L76.5898,221.5 " fill="transparent" style="stroke:#181818;stroke-width:0.5;"/><text fill="#000000" font-family="sans-serif" font-size="14" lengthAdjust="spacing" textLength="97.1797" x="15" y="235.9951">Disabled User</text></g><!--entity User--><g id="elem_User"><ellipse cx="63.5928" cy="477.5" fill="#F1F1F1" rx="8" ry="8" style="stroke:#181818;stroke-width:0.5;"/><path d="M63.5928,485.5 L63.5928,512.5 M50.5928,493.5 L76.5928,493.5 M63.5928,512.5 L50.5928,527.5 M63.5928,512.5 L76.5928,527.5 " fill="transparent" style="stroke:#181818;stroke-width:0.5;"/><text fill="#000000" font-family="sans-serif" font-size="14" lengthAdjust="spacing" textLength="115.1855" x="6" y="541.9951">LightSpeed User</text></g><!--entity Analyst--><g id="elem_Analyst"><ellipse cx="63.4326" cy="761.5" fill="#F1F1F1" rx="8" ry="8" style="stroke:#181818;stroke-width:0.5;"/><path d="M63.4326,769.5 L63.4326,796.5 M50.4326,777.5 L76.4326,777.5 M63.4326,796.5 L50.4326,811.5 M63.4326,796.5 L76.4326,811.5 " fill="transparent" style="stroke:#181818;stroke-width:0.5;"/><text fill="#000000" font-family="sans-serif" font-size="14" lengthAdjust="spacing" textLength="89.8652" x="18.5" y="825.9951">Data Analyst</text></g><!--link UC_FilterTransport to UC_Search--><g id="link_UC_FilterTransport_UC_Search"><path d="M396.5,300.6 C396.5,316.3 396.5,330.11 396.5,345.76 " fill="transparent" id="UC_FilterTransport-to-UC_Search" style="stroke:#181818;stroke-width:1;stroke-dasharray:7.0,7.0;"/><polygon fill="#181818" points="396.5,351.76,400.5,342.76,396.5,346.76,392.5,342.76,396.5,351.76" style="stroke:#181818;stroke-width:1;"/><text fill="#000000" font-family="sans-serif" font-size="13" lengthAdjust="spacing" textLength="61.1851" x="354.5" y="330.8169">&#171;extend&#187;</text></g><!--link UC_Green to UC_Search--><g id="link_UC_Green_UC_Search"><path d="M308.86,106.5 C278.33,111.13 245.79,121.22 222,142 C186.26,173.21 194.12,195.75 186,242.5 C174.88,306.52 242.7798,340.2905 305.9898,358.7205 " fill="transparent" id="UC_Green-to-UC_Search" style="stroke:#181818;stroke-width:1;stroke-dasharray:7.0,7.0;"/><polygon fill="#181818" points="311.75,360.4,304.2294,354.0407,306.9499,359.0004,301.9901,361.7209,311.75,360.4" style="stroke:#181818;stroke-width:1;"/><text fill="#000000" font-family="sans-serif" font-size="13" lengthAdjust="spacing" textLength="61.1851" x="152" y="255.5669">&#171;extend&#187;</text></g><!--link UC_Wheel to UC_Search--><g id="link_UC_Wheel_UC_Search"><path d="M301.03,194.9 C273.27,201.28 244.43,212.02 222,230 C172.9,269.35 164.66,290.29 186,318.5 C209.2,349.17 241.0977,363.6487 278.2977,371.4487 " fill="transparent" id="UC_Wheel-to-UC_Search" style="stroke:#181818;stroke-width:1;stroke-dasharray:7.0,7.0;"/><polygon fill="#181818" points="284.17,372.68,276.1824,366.9182,279.2764,371.6539,274.5407,374.7479,284.17,372.68" style="stroke:#181818;stroke-width:1;"/><text fill="#000000" font-family="sans-serif" font-size="13" lengthAdjust="spacing" textLength="61.1851" x="152" y="314.5669">&#171;extend&#187;</text></g><!--link UC_Expenditure to Stat--><g id="link_UC_Expenditure_Stat"><path d="M396.5,534.86 C396.5,551.08 396.5,565.14 396.5,579.64 " fill="transparent" id="UC_Expenditure-to-Stat" style="stroke:#181818;stroke-width:1;stroke-dasharray:7.0,7.0;"/><polygon fill="#181818" points="396.5,585.64,400.5,576.64,396.5,580.64,392.5,576.64,396.5,585.64" style="stroke:#181818;stroke-width:1;"/><text fill="#000000" font-family="sans-serif" font-size="13" lengthAdjust="spacing" textLength="61.1851" x="354.5" y="564.8169">&#171;extend&#187;</text></g><!--link UC_Emissions to Stat--><g id="link_UC_Emissions_Stat"><path d="M396.5,675.75 C396.5,659.48 396.5,644.94 396.5,630.19 " fill="transparent" id="UC_Emissions-to-Stat" style="stroke:#181818;stroke-width:1;stroke-dasharray:7.0,7.0;"/><polygon fill="#181818" points="396.5,624.19,392.5,633.19,396.5,629.19,400.5,633.19,396.5,624.19" style="stroke:#181818;stroke-width:1;"/><text fill="#000000" font-family="sans-serif" font-size="13" lengthAdjust="spacing" textLength="61.1851" x="354.5" y="654.5669">&#171;extend&#187;</text></g><!--link User to UC_Search--><g id="link_User_UC_Search"><path d="M121.02,484.97 C181.59,461.37 271.6097,426.2892 332.5097,402.5492 " fill="transparent" id="User-to-UC_Search" style="stroke:#181818;stroke-width:1;"/><polygon fill="#181818" points="338.1,400.37,328.2618,399.9119,333.4414,402.186,331.1674,407.3656,338.1,400.37" style="stroke:#181818;stroke-width:1;"/></g><!--link User to UC_Expenditure--><g id="link_User_UC_Expenditure"><path d="M121.02,507 C161.83,507 212.55,507 263.84,507 " fill="transparent" id="User-to-UC_Expenditure" style="stroke:#181818;stroke-width:1;"/><polygon fill="#181818" points="269.84,507,260.84,503,264.84,507,260.84,511,269.84,507" style="stroke:#181818;stroke-width:1;"/></g><!--link User to Stat--><g id="link_User_Stat"><path d="M121.02,523.74 C183.8,542.32 278.4868,570.3569 338.8868,588.2369 " fill="transparent" id="User-to-Stat" style="stroke:#181818;stroke-width:1;"/><polygon fill="#181818" points="344.64,589.94,337.1456,583.5499,339.8457,588.5207,334.8748,591.2208,344.64,589.94" style="stroke:#181818;stroke-width:1;"/></g><!--link User to UC_Emissions--><g id="link_User_UC_Emissions"><path d="M101.27,545.19 C131.41,574.7 176.4,614.8 222,641 C255.22,660.09 289.6791,672.9357 323.0191,683.0657 " fill="transparent" id="User-to-UC_Emissions" style="stroke:#181818;stroke-width:1;"/><polygon fill="#181818" points="328.76,684.81,321.3116,678.3663,323.976,683.3564,318.9859,686.0208,328.76,684.81" style="stroke:#181818;stroke-width:1;"/></g><!--link User to UC_FilterTransport--><g id="link_User_UC_FilterTransport"><path d="M90.39,468.8 C118.58,429.86 167.05,370.2 222,334 C250.08,315.5 278.7428,303.8163 309.4828,294.4063 " fill="transparent" id="User-to-UC_FilterTransport" style="stroke:#181818;stroke-width:1;"/><polygon fill="#181818" points="315.22,292.65,305.4434,291.4596,310.439,294.1135,307.785,299.1092,315.22,292.65" style="stroke:#181818;stroke-width:1;"/></g><!--link GreenU to UC_Green--><g id="link_GreenU_UC_Green"><path d="M103.12,91.75 C153.68,94.04 237.7462,97.8483 304.5862,100.8783 " fill="transparent" id="GreenU-to-UC_Green" style="stroke:#181818;stroke-width:1;"/><polygon fill="#181818" points="310.58,101.15,301.7704,96.7465,305.5851,100.9236,301.4081,104.7383,310.58,101.15" style="stroke:#181818;stroke-width:1;"/></g><!--link DisabledUser to UC_Wheel--><g id="link_DisabledUser_UC_Wheel"><path d="M112.28,198.83 C160.35,196.66 229.8961,193.5013 290.8761,190.7413 " fill="transparent" id="DisabledUser-to-UC_Wheel" style="stroke:#181818;stroke-width:1;"/><polygon fill="#181818" points="296.87,190.47,287.6983,186.881,291.8751,190.6961,288.0601,194.8728,296.87,190.47" style="stroke:#181818;stroke-width:1;"/></g><!--link Analyst to UC_Seasonal--><g id="link_Analyst_UC_Seasonal"><path d="M108.8,791 C149.93,791 207.18,791 263.81,791 " fill="transparent" id="Analyst-to-UC_Seasonal" style="stroke:#181818;stroke-width:1;"/><polygon fill="#181818" points="269.81,791,260.81,787,264.81,791,260.81,795,269.81,791" style="stroke:#181818;stroke-width:1;"/></g><!--SRC=[ZLJBJkCm5DtxAwwoW1Np0GXLgbg63Gj4A6mgeJlkfR7gEf7j0fqHMpvWFd6-PFn8Kpi9Ab4MKUuvvnxVOrlIYmLRWnRhoi9AQE9Mr8gPZL0DQjn2Wto3QohjNXBuCggr9CQGsrf3SQE952mCwGBI1ms4qk80d0k3loIj-bW7F9HyvG2_zORAXle41qzXSxG8KuLoRsoHjs__CjQPpbIdJLF07mRWtdQDKDpNEqjG4cfUnIh0pX17uuhnDo14bAsNgYJfn9tQd8mL2ltiYjJ4OlOSQRdKJo4jQNZGg4nJQnk8I_MmRyZaSyoa8grZzUrvBt7gqUAeKbypu4VTFLL4abSez59DEITZX4ifIkSkerB0io0rz0e_9iTXm2LSNT6x9RMQJ0w4Q3nvJZ92m-yoFbWQTEb7xYBZ1ixYJl7VWyWV1Rtvb5vTd-ltnca9kzFaWjzjjwZtnVXC4sYkTqVQrAuR7FkV22aHzfnSRbOHty3rLhXe_FuvgThQQmacLmjZ-1ssVpGP5xvKTsXTb6eWsktl0E-IJrRl4_6cHkFhR7o5-c0kj7EO-gF-x_ElE_SpRrGAjJ7Ctm97AnSNIVJZjJIK8I0CTvpNJMkqt3-JyTRhe-8fIo-whXIFJNjR3POJHliV]--></g></svg>