<svg xmlns="http://www.w3.org/2000/svg" xmlns:xlink="http://www.w3.org/1999/xlink" contentStyleType="text/css" data-diagram-type="DESCRIPTION" height="865px" preserveAspectRatio="none" style="width:575px;height:865px;background:#FFFFFF;" version="1.1" viewBox="0 0 575 865" width="575px" zoomAndPan="magnify"><defs/><g><!--cluster LightSpeed App--><g id="cluster_LightSpeed App"><rect fill="transparent" height="852" rx="2.5" ry="2.5" style="stroke:#181818;stroke-width:1;" width="333" x="236" y="7"/><text fill="#000000" font-family="sans-serif" font-size="14" font-weight="bold" lengthAdjust="spacing" textLength="125.2686" x="339.8657" y="21.9951">LightSpeed App</text></g><!--cluster Route Search--><g id="cluster_Route Search"><rect fill="transparent" height="370" rx="2.5" ry="2.5" style="stroke:#181818;stroke-width:1;" width="261" x="272" y="50"/><text fill="#000000" font-family="sans-serif" font-size="14" font-weight="bold" lengthAdjust="spacing" textLength="105.6221" x="349.689" y="64.9951">Route Search</text></g><!--cluster Statistics & Analytics--><g id="cluster_Statistics &amp; Analytics"><rect fill="transparent" height="391" rx="2.5" ry="2.5" style="stroke:#181818;stroke-width:1;" width="285" x="260" y="444"/><text fill="#000000" font-family="sans-serif" font-size="14" font-weight="bold" lengthAdjust="spacing" textLength="168.4238" x="318.2881" y="458.9951">Statistics &amp; Analytics</text></g><g id="elem_UC_Search"><ellipse cx="402.3521" cy="378.0473" fill="#F1F1F1" rx="114.3521" ry="26.0473" style="stroke:#181818;stroke-width:0.5;"/><text fill="#000000" font-family="sans-serif" font-size="14" lengthAdjust="spacing" textLength="125.6582" x="339.523" y="372.7455">Search a Route to</text><text fill="#000000" font-family="sans-serif" font-size="14" lengthAdjust="spacing" textLength="145.4756" x="329.6143" y="389.0424">Selected Destination</text></g><g id="elem_UC_FilterTransport"><ellipse cx="402.3389" cy="273.7642" fill="#F1F1F1" rx="113.8389" ry="26.2642" style="stroke:#181818;stroke-width:0.5;"/><text fill="#000000" font-family="sans-serif" font-size="14" lengthAdjust="spacing" textLength="143.2881" x="327.6949" y="269.3633">Filter Transportation</text><text fill="#000000" font-family="sans-serif" font-size="14" lengthAdjust="spacing" textLength="41.6309" x="378.5235" y="285.6602">Types</text></g><g id="elem_UC_Green"><ellipse cx="402.5018" cy="104.9004" fill="#F1F1F1" rx="87.5018" ry="19.9004" style="stroke:#181818;stroke-width:0.5;"/><text fill="#000000" font-family="sans-serif" font-size="14" lengthAdjust="spacing" textLength="136.0625" x="334.4705" y="107.747">Select Green Route</text></g><g id="elem_UC_Wheel"><ellipse cx="402.4094" cy="186.0473" fill="#F1F1F1" rx="100.9094" ry="26.0473" style="stroke:#181818;stroke-width:0.5;"/><text fill="#000000" font-family="sans-serif" font-size="14" lengthAdjust="spacing" textLength="118.7676" x="343.0256" y="180.7455">Filter Wheelchair</text><text fill="#000000" font-family="sans-serif" font-size="14" lengthAdjust="spacing" textLength="126.4648" x="339.177" y="197.0424">Accessible Routes</text></g><g id="elem_UC_Expenditure"><ellipse cx="402.437" cy="507.1874" fill="#F1F1F1" rx="126.437" ry="27.6874" style="stroke:#181818;stroke-width:0.5;"/><text fill="#000000" font-family="sans-serif" font-size="14" lengthAdjust="spacing" textLength="171.1172" x="313.8784" y="502.7865">View Travel Expenditure</text><text fill="#000000" font-family="sans-serif" font-size="14" lengthAdjust="spacing" textLength="67.6553" x="365.6094" y="519.0834">Summary</text></g><g id="elem_Stat"><ellipse cx="402.6936" cy="605.2387" fill="#F1F1F1" rx="84.1936" ry="19.2387" style="stroke:#181818;stroke-width:0.5;"/><text fill="#000000" font-family="sans-serif" font-size="14" lengthAdjust="spacing" textLength="128.4609" x="338.2664" y="608.1532">Personal Statistics</text></g><g id="elem_UC_Emissions"><ellipse cx="402.5061" cy="702.148" fill="#F1F1F1" rx="89.5061" ry="26.148" style="stroke:#181818;stroke-width:0.5;"/><text fill="#000000" font-family="sans-serif" font-size="14" lengthAdjust="spacing" textLength="109.8057" x="344.6033" y="697.7471">Check Emission</text><text fill="#000000" font-family="sans-serif" font-size="14" lengthAdjust="spacing" textLength="63.998" x="367.5071" y="714.044">Statistics</text></g><g id="elem_UC_Seasonal"><ellipse cx="402.4027" cy="791.1805" fill="#F1F1F1" rx="126.4027" ry="27.6805" style="stroke:#181818;stroke-width:0.5;"/><text fill="#000000" font-family="sans-serif" font-size="14" lengthAdjust="spacing" textLength="171.0215" x="313.8919" y="786.7797">Analyze Seasonal Travel</text><text fill="#000000" font-family="sans-serif" font-size="14" lengthAdjust="spacing" textLength="58.5361" x="370.1346" y="803.0765">Patterns</text></g><!--entity GreenU--><g id="elem_GreenU"><ellipse cx="63.5322" cy="60.5" fill="#F1F1F1" rx="8" ry="8" style="stroke:#181818;stroke-width:0.5;"/><path d="M63.5322,68.5 L63.5322,95.5 M50.5322,76.5 L76.5322,76.5 M63.5322,95.5 L50.5322,110.5 M63.5322,95.5 L76.5322,110.5 " fill="transparent" style="stroke:#181818;stroke-width:0.5;"/><text fill="#000000" font-family="sans-serif" font-size="14" lengthAdjust="spacing" textLength="79.0645" x="24" y="124.9951">Green User</text></g><!--entity DisabledUser--><g id="elem_DisabledUser"><ellipse cx="63.5898" cy="171.5" fill="#F1F1F1" rx="8" ry="8" style="stroke:#181818;stroke-width:0.5;"/><path d="M63.5898,179.5 L63.5898,206.5 M50.5898,187.5 L76.5898,187.5 M63.5898,206.5 L50.5898,221.5 M63.5898,206.5 L76.5898,221.5 " fill="transparent" style="stroke:#181818;stroke-width:0.5;"/><text fill="#000000" font-family="sans-serif" font-size="14" lengthAdjust="spacing" textLength="97.1797" x="15" y="235.9951">Disabled User</text></g><!--entity User--><g id="elem_User"><ellipse cx="63.5928" cy="477.5" fill="#F1F1F1" rx="8" ry="8" style="stroke:#181818;stroke-width:0.5;"/><path d="M63.5928,485.5 L63.5928,512.5 M50.5928,493.5 L76.5928,493.5 M63.5928,512.5 L50.5928,527.5 M63.5928,512.5 L76.5928,527.5 " fill="transparent" style="stroke:#181818;stroke-width:0.5;"/><text fill="#000000" font-family="sans-serif" font-size="14" lengthAdjust="spacing" textLength="115.1855" x="6" y="541.9951">LightSpeed User</text></g><!--entity Analyst--><g id="elem_Analyst"><ellipse cx="63.4326" cy="761.5" fill="#F1F1F1" rx="8" ry="8" style="stroke:#181818;stroke-width:0.5;"/><path d="M63.4326,769.5 L63.4326,796.5 M50.4326,777.5 L76.4326,777.5 M63.4326,796.5 L50.4326,811.5 M63.4326,796.5 L76.4326,811.5 " fill="transparent" style="stroke:#181818;stroke-width:0.5;"/><text fill="#000000" font-family="sans-serif" font-size="14" lengthAdjust="spacing" textLength="89.8652" x="18.5" y="825.9951">Data Analyst</text></g><!--link UC_FilterTransport to UC_Search--><g id="link_UC_FilterTransport_UC_Search"><path d="M402.5,300.6 C402.5,316.3 402.5,330.11 402.5,345.76 " fill="transparent" id="UC_FilterTransport-to-UC_Search" style="stroke:#181818;stroke-width:1;stroke-dasharray:7.0,7.0;"/><polygon fill="#181818" points="402.5,351.76,406.5,342.76,402.5,346.76,398.5,342.76,402.5,351.76" style="stroke:#181818;stroke-width:1;"/><text fill="#000000" font-family="sans-serif" font-size="13" lengthAdjust="spacing" textLength="67.958" x="357.5" y="330.8169">&#171;extends&#187;</text></g><!--link UC_Green to UC_Search--><g id="link_UC_Green_UC_Search"><path d="M315.34,107.07 C284.86,111.75 252.24,121.74 228,142 C190.99,172.94 196.28,195.16 187,242.5 C174.24,307.55 244.6384,341.2858 309.9084,359.3958 " fill="transparent" id="UC_Green-to-UC_Search" style="stroke:#181818;stroke-width:1;stroke-dasharray:7.0,7.0;"/><polygon fill="#181818" points="315.69,361,308.0871,354.7394,310.872,359.6632,305.9482,362.4481,315.69,361" style="stroke:#181818;stroke-width:1;"/><text fill="#000000" font-family="sans-serif" font-size="13" lengthAdjust="spacing" textLength="67.958" x="152" y="255.5669">&#171;extends&#187;</text></g><!--link UC_Wheel to UC_Search--><g id="link_UC_Wheel_UC_Search"><path d="M308.07,195.56 C280.2,201.96 251.03,212.54 228,230 C175.45,269.83 164.11,288.43 187,318.5 C211.22,350.31 244.9419,364.9967 283.6419,372.5767 " fill="transparent" id="UC_Wheel-to-UC_Search" style="stroke:#181818;stroke-width:1;stroke-dasharray:7.0,7.0;"/><polygon fill="#181818" points="289.53,373.73,281.4667,368.0747,284.6232,372.7689,279.929,375.9255,289.53,373.73" style="stroke:#181818;stroke-width:1;"/><text fill="#000000" font-family="sans-serif" font-size="13" lengthAdjust="spacing" textLength="67.958" x="152" y="314.5669">&#171;extends&#187;</text></g><!--link UC_Expenditure to Stat--><g id="link_UC_Expenditure_Stat"><path d="M402.5,534.86 C402.5,551.08 402.5,565.14 402.5,579.64 " fill="transparent" id="UC_Expenditure-to-Stat" style="stroke:#181818;stroke-width:1;stroke-dasharray:7.0,7.0;"/><polygon fill="#181818" points="402.5,585.64,406.5,576.64,402.5,580.64,398.5,576.64,402.5,585.64" style="stroke:#181818;stroke-width:1;"/><text fill="#000000" font-family="sans-serif" font-size="13" lengthAdjust="spacing" textLength="67.958" x="357.5" y="564.8169">&#171;extends&#187;</text></g><!--link UC_Emissions to Stat--><g id="link_UC_Emissions_Stat"><path d="M402.5,675.75 C402.5,659.48 402.5,644.94 402.5,630.19 " fill="transparent" id="UC_Emissions-to-Stat" style="stroke:#181818;stroke-width:1;stroke-dasharray:7.0,7.0;"/><polygon fill="#181818" points="402.5,624.19,398.5,633.19,402.5,629.19,406.5,633.19,402.5,624.19" style="stroke:#181818;stroke-width:1;"/><text fill="#000000" font-family="sans-serif" font-size="13" lengthAdjust="spacing" textLength="67.958" x="357.5" y="654.5669">&#171;extends&#187;</text></g><!--link User to UC_Search--><g id="link_User_UC_Search"><path d="M121.29,485.26 C182.91,461.67 275.2064,426.3448 337.4664,402.5148 " fill="transparent" id="User-to-UC_Search" style="stroke:#181818;stroke-width:1;"/><polygon fill="#181818" points="343.07,400.37,333.2348,399.8514,338.4004,402.1573,336.0945,407.3229,343.07,400.37" style="stroke:#181818;stroke-width:1;"/></g><!--link User to UC_Expenditure--><g id="link_User_UC_Expenditure"><path d="M121.29,507 C163.49,507 216.72,507 269.85,507 " fill="transparent" id="User-to-UC_Expenditure" style="stroke:#181818;stroke-width:1;"/><polygon fill="#181818" points="275.85,507,266.85,503,270.85,507,266.85,511,275.85,507" style="stroke:#181818;stroke-width:1;"/></g><!--link User to Stat--><g id="link_User_Stat"><path d="M121.29,523.51 C185.35,542.14 282.8487,570.4943 344.5287,588.4343 " fill="transparent" id="User-to-Stat" style="stroke:#181818;stroke-width:1;"/><polygon fill="#181818" points="350.29,590.11,342.7652,583.7556,345.489,588.7136,340.531,591.4373,350.29,590.11" style="stroke:#181818;stroke-width:1;"/></g><!--link User to UC_Emissions--><g id="link_User_UC_Emissions"><path d="M102.93,545.11 C134.37,574.57 181.14,614.64 228,641 C261.53,659.86 296.2014,672.7282 329.5814,682.9182 " fill="transparent" id="User-to-UC_Emissions" style="stroke:#181818;stroke-width:1;"/><polygon fill="#181818" points="335.32,684.67,327.88,678.2166,330.5379,683.2101,325.5443,685.868,335.32,684.67" style="stroke:#181818;stroke-width:1;"/></g><!--link User to UC_FilterTransport--><g id="link_User_UC_FilterTransport"><path d="M91.69,468.84 C121.22,429.94 171.76,370.31 228,334 C256.38,315.68 285.274,304.0001 316.104,294.5401 " fill="transparent" id="User-to-UC_FilterTransport" style="stroke:#181818;stroke-width:1;"/><polygon fill="#181818" points="321.84,292.78,312.0626,291.5961,317.06,294.2467,314.4093,299.2441,321.84,292.78" style="stroke:#181818;stroke-width:1;"/></g><!--link GreenU to UC_Green--><g id="link_GreenU_UC_Green"><path d="M103.16,91.72 C154.85,94.02 241.9159,97.8931 310.4059,100.9431 " fill="transparent" id="GreenU-to-UC_Green" style="stroke:#181818;stroke-width:1;"/><polygon fill="#181818" points="316.4,101.21,307.5869,96.8136,311.405,100.9876,307.231,104.8056,316.4,101.21" style="stroke:#181818;stroke-width:1;"/></g><!--link DisabledUser to UC_Wheel--><g id="link_DisabledUser_UC_Wheel"><path d="M112.07,198.88 C161.42,196.69 234.0259,193.4571 296.8659,190.6571 " fill="transparent" id="DisabledUser-to-UC_Wheel" style="stroke:#181818;stroke-width:1;"/><polygon fill="#181818" points="302.86,190.39,293.6909,186.7946,297.865,190.6126,294.047,194.7867,302.86,190.39" style="stroke:#181818;stroke-width:1;"/></g><!--link Analyst to UC_Seasonal--><g id="link_Analyst_UC_Seasonal"><path d="M108.56,791 C150.93,791 211.03,791 269.72,791 " fill="transparent" id="Analyst-to-UC_Seasonal" style="stroke:#181818;stroke-width:1;"/><polygon fill="#181818" points="275.72,791,266.72,787,270.72,791,266.72,795,275.72,791" style="stroke:#181818;stroke-width:1;"/></g><!--SRC=[ZLJBJkCm5DtxAwwoW1Np0GXLgbg63Gj4A6mgeJlkfR7gEf7j0fqHMpvWFd6-PFn8Kpi9Ab4MKUuvnyVt-5hIYmLRWnRhoi9AQE9Mr8gPZL0DQjn2Wto3QohjNXBuCggr9CQGsrf3SQE952mCwGBI1ms4qk80d0k3loIj-bW7F9HyvG2_zORAXle41qzXSxG8KuLoRsoHBz_-PQmpdQbEcwQ0Fmp0lUqUeRYlTvQW9DIyYbM0dI6EnXNZRq28A5ilLKdIYJkrEHah5FhU5Qc9nUmvqdAfdq9Qql2WKPccrZOGb-fXtv39-vX9HLh7wjlpNcBNeyLHfRvcm8-wUwg89AzGwAMQSax629TIbCvTHgM0Pq5gw1L-J8xDW4kukg9tIsfb9fC38pfFdjEKiEItAHyipRhqNNUfSGDdyR3uxq7gZuBUV52lRg7hzyQ92RlJvBBVRRUezyLuMnDehdT7sjHkDJYkVoAdHDXpShbPHNm3rrlXql57wAHgQwybc5mjjE5tc81eCcvygUxGkZJLGBGxuW7UXP_itaVYJOq7sFdu4lR1N6pdCFNp_k_phnl-cRSgXTeOvg-2evcBYoJzyLeQon0GsZlEw_erMkuFPhpw-gWuQkbjrvNYxBHNrc0xeRd_0G00]--></g></svg>