<svg xmlns="http://www.w3.org/2000/svg" xmlns:xlink="http://www.w3.org/1999/xlink" contentStyleType="text/css" data-diagram-type="STATE" height="397px" preserveAspectRatio="none" style="width:137px;height:397px;background:#FFFFFF;" version="1.1" viewBox="0 0 137 397" width="137px" zoomAndPan="magnify"><defs/><g><ellipse cx="71.56" cy="16" fill="#222222" rx="10" ry="10" style="stroke:#222222;stroke-width:1;"/><g id="HomePage"><rect fill="#F1F1F1" height="50" rx="12.5" ry="12.5" style="stroke:#181818;stroke-width:0.5;" width="95.8652" x="23.62" y="87"/><line style="stroke:#181818;stroke-width:0.5;" x1="23.62" x2="119.4852" y1="113.2969" y2="113.2969"/><text fill="#000000" font-family="sans-serif" font-size="14" lengthAdjust="spacing" textLength="75.8652" x="33.62" y="104.9951">HomePage</text></g><g id="Preferences"><rect fill="#F1F1F1" height="50" rx="12.5" ry="12.5" style="stroke:#181818;stroke-width:0.5;" width="103.2002" x="19.96" y="214"/><line style="stroke:#181818;stroke-width:0.5;" x1="19.96" x2="123.1602" y1="240.2969" y2="240.2969"/><text fill="#000000" font-family="sans-serif" font-size="14" lengthAdjust="spacing" textLength="83.2002" x="29.96" y="231.9951">Preferences</text></g><g id="Statistics"><rect fill="#F1F1F1" height="50" rx="12.5" ry="12.5" style="stroke:#181818;stroke-width:0.5;" width="83.998" x="29.56" y="341"/><line style="stroke:#181818;stroke-width:0.5;" x1="29.56" x2="113.558" y1="367.2969" y2="367.2969"/><text fill="#000000" font-family="sans-serif" font-size="14" lengthAdjust="spacing" textLength="63.998" x="39.56" y="358.9951">Statistics</text></g><!--link *start* to HomePage--><g class="link" data-entity-1="*start*" data-entity-2="HomePage" data-source-line="1" data-uid="lnk4" id="link_*start*_HomePage"><path d="M71.56,26.36 C71.56,40.29 71.56,60.95 71.56,80.65" fill="none" id="*start*-to-HomePage" style="stroke:#181818;stroke-width:1;"/><polygon fill="#181818" points="71.56,86.65,75.56,77.65,71.56,81.65,67.56,77.65,71.56,86.65" style="stroke:#181818;stroke-width:1;"/></g><!--link HomePage to Preferences--><g class="link" data-entity-1="HomePage" data-entity-2="Preferences" data-source-line="2" data-uid="lnk6" id="link_HomePage_Preferences"><path d="M42.42,137.44 C34.42,145.89 26.8,156.02 22.56,167 C16.03,183.91 22.3806,196.4441 35.3606,209.4441" fill="none" id="HomePage-to-Preferences" style="stroke:#181818;stroke-width:1;"/><polygon fill="#181818" points="39.6,213.69,36.0715,204.4949,36.0672,210.1517,30.4103,210.1474,39.6,213.69" style="stroke:#181818;stroke-width:1;"/><text fill="#000000" font-family="sans-serif" font-size="13" lengthAdjust="spacing" textLength="51.4922" x="23.56" y="180.0669">profile()</text></g><!--link Preferences to HomePage--><g class="link" data-entity-1="Preferences" data-entity-2="HomePage" data-source-line="3" data-uid="lnk7" id="link_Preferences_HomePage"><path d="M76.54,213.73 C78.79,200.03 80.71,182.59 79.56,167 C78.84,157.26 78.3302,152.5475 76.8802,143.3075" fill="none" id="Preferences-to-HomePage" style="stroke:#181818;stroke-width:1;"/><polygon fill="#181818" points="75.95,137.38,73.3936,146.8913,76.7251,142.3195,81.2969,145.6511,75.95,137.38" style="stroke:#181818;stroke-width:1;"/><text fill="#000000" font-family="sans-serif" font-size="13" lengthAdjust="spacing" textLength="41.0376" x="80.56" y="180.0669">back()</text></g><!--link Preferences to Statistics--><g class="link" data-entity-1="Preferences" data-entity-2="Statistics" data-source-line="4" data-uid="lnk9" id="link_Preferences_Statistics"><path d="M36.26,264.35 C27.13,272.6 18.5,282.65 13.56,294 C6,311.37 13.4271,324.0456 28.4371,336.7956" fill="none" id="Preferences-to-Statistics" style="stroke:#181818;stroke-width:1;"/><polygon fill="#181818" points="33.01,340.68,28.7402,331.8048,29.1992,337.443,23.561,337.902,33.01,340.68" style="stroke:#181818;stroke-width:1;"/><text fill="#000000" font-family="sans-serif" font-size="13" lengthAdjust="spacing" textLength="68.0913" x="14.56" y="307.0669">statistics()</text></g><!--link Statistics to Preferences--><g class="link" data-entity-1="Statistics" data-entity-2="Preferences" data-source-line="5" data-uid="lnk10" id="link_Statistics_Preferences"><path d="M80.41,340.6 C83.29,331.45 86.13,320.87 87.56,311 C89.82,295.37 87.9209,283.7841 83.4809,270.1741" fill="none" id="Statistics-to-Preferences" style="stroke:#181818;stroke-width:1;"/><polygon fill="#181818" points="81.62,264.47,80.6085,274.2668,83.1707,269.2234,88.2141,271.7856,81.62,264.47" style="stroke:#181818;stroke-width:1;"/><text fill="#000000" font-family="sans-serif" font-size="13" lengthAdjust="spacing" textLength="41.0376" x="88.56" y="307.0669">back()</text></g><!--SRC=[YzQALT3LjLFmoCzD3KXCJ-M2CS2Y0KMfQQb5gNd9gSKALWe5HVbfcJcf6ffSoEB8ke6AaXAJix6e22v9BCaiBibC1XbK3ES0LIB9O5e9CGq0]--></g></svg>