<svg xmlns="http://www.w3.org/2000/svg" xmlns:xlink="http://www.w3.org/1999/xlink" contentStyleType="text/css" data-diagram-type="STATE" height="778px" preserveAspectRatio="none" style="width:350px;height:778px;background:#FFFFFF;" version="1.1" viewBox="0 0 350 778" width="350px" zoomAndPan="magnify"><defs/><g><ellipse cx="203.93" cy="16" fill="#222222" rx="10" ry="10" style="stroke:#222222;stroke-width:1;"/><g id="HomePage"><rect fill="#F1F1F1" height="50" rx="12.5" ry="12.5" style="stroke:#181818;stroke-width:0.5;" width="95.8652" x="155.99" y="87"/><line style="stroke:#181818;stroke-width:0.5;" x1="155.99" x2="251.8552" y1="113.2969" y2="113.2969"/><text fill="#000000" font-family="sans-serif" font-size="14" lengthAdjust="spacing" textLength="75.8652" x="165.99" y="104.9951">HomePage</text></g><g id="Start_Selection"><rect fill="#F1F1F1" height="50" rx="12.5" ry="12.5" style="stroke:#181818;stroke-width:0.5;" width="125.7178" x="74.07" y="214"/><line style="stroke:#181818;stroke-width:0.5;" x1="74.07" x2="199.7878" y1="240.2969" y2="240.2969"/><text fill="#000000" font-family="sans-serif" font-size="14" lengthAdjust="spacing" textLength="105.7178" x="84.07" y="231.9951">Start_Selection</text></g><g id="Destination_Selection"><rect fill="#F1F1F1" height="50" rx="12.5" ry="12.5" style="stroke:#181818;stroke-width:0.5;" width="171.8535" x="7" y="341"/><line style="stroke:#181818;stroke-width:0.5;" x1="7" x2="178.8535" y1="367.2969" y2="367.2969"/><text fill="#000000" font-family="sans-serif" font-size="14" lengthAdjust="spacing" textLength="151.8535" x="17" y="358.9951">Destination_Selection</text></g><g id="Route_Selection"><rect fill="#F1F1F1" height="50" rx="12.5" ry="12.5" style="stroke:#181818;stroke-width:0.5;" width="132.7861" x="63.53" y="468"/><line style="stroke:#181818;stroke-width:0.5;" x1="63.53" x2="196.3161" y1="494.2969" y2="494.2969"/><text fill="#000000" font-family="sans-serif" font-size="14" lengthAdjust="spacing" textLength="112.7861" x="73.53" y="485.9951">Route_Selection</text></g><g id="Payment"><rect fill="#F1F1F1" height="50" rx="12.5" ry="12.5" style="stroke:#181818;stroke-width:0.5;" width="81.9199" x="145.97" y="595"/><line style="stroke:#181818;stroke-width:0.5;" x1="145.97" x2="227.8899" y1="621.2969" y2="621.2969"/><text fill="#000000" font-family="sans-serif" font-size="14" lengthAdjust="spacing" textLength="61.9199" x="155.97" y="612.9951">Payment</text></g><g id="Payment_Confirmation"><rect fill="#F1F1F1" height="50" rx="12.5" ry="12.5" style="stroke:#181818;stroke-width:0.5;" width="179.7422" x="144.06" y="722"/><line style="stroke:#181818;stroke-width:0.5;" x1="144.06" x2="323.8022" y1="748.2969" y2="748.2969"/><text fill="#000000" font-family="sans-serif" font-size="14" lengthAdjust="spacing" textLength="159.7422" x="154.06" y="739.9951">Payment_Confirmation</text></g><!--link *start* to HomePage--><g class="link" data-entity-1="*start*" data-entity-2="HomePage" data-source-line="1" data-uid="lnk4" id="link_*start*_HomePage"><path d="M203.93,26.36 C203.93,40.29 203.93,60.95 203.93,80.65" fill="none" id="*start*-to-HomePage" style="stroke:#181818;stroke-width:1;"/><polygon fill="#181818" points="203.93,86.65,207.93,77.65,203.93,81.65,199.93,77.65,203.93,86.65" style="stroke:#181818;stroke-width:1;"/></g><!--link HomePage to Start_Selection--><g class="link" data-entity-1="HomePage" data-entity-2="Start_Selection" data-source-line="2" data-uid="lnk6" id="link_HomePage_Start_Selection"><path d="M155.52,127.59 C136.6,135.93 116.84,148.52 105.93,167 C97.17,181.82 101.4547,194.6719 111.3947,208.7219" fill="none" id="HomePage-to-Start_Selection" style="stroke:#181818;stroke-width:1;"/><polygon fill="#181818" points="114.86,213.62,112.9275,203.9626,111.9723,209.5382,106.3966,208.583,114.86,213.62" style="stroke:#181818;stroke-width:1;"/><text fill="#000000" font-family="sans-serif" font-size="13" lengthAdjust="spacing" textLength="53.6123" x="106.93" y="180.0669">search()</text></g><!--link Start_Selection to HomePage--><g class="link" data-entity-1="Start_Selection" data-entity-2="HomePage" data-source-line="4" data-uid="lnk9" id="link_Start_Selection_HomePage"><path d="M149.97,213.66 C161.77,191.66 176.2041,164.7075 188.0141,142.6875" fill="none" id="Start_Selection-to-HomePage" style="stroke:#181818;stroke-width:1;"/><polygon fill="#181818" points="190.85,137.4,183.0712,143.4407,188.4868,141.8063,190.1212,147.2219,190.85,137.4" style="stroke:#181818;stroke-width:1;"/><text fill="#000000" font-family="sans-serif" font-size="13" lengthAdjust="spacing" textLength="52.2539" x="175.93" y="180.0669">cancel()</text></g><!--link Start_Selection to Destination_Selection--><g class="link" data-entity-1="Start_Selection" data-entity-2="Destination_Selection" data-source-line="3" data-uid="lnk8" id="link_Start_Selection_Destination_Selection"><path d="M89.8,264.24 C79.03,272.18 68.98,282.09 62.93,294 C55.23,309.15 59.202,321.761 68.542,335.651" fill="none" id="Start_Selection-to-Destination_Selection" style="stroke:#181818;stroke-width:1;"/><polygon fill="#181818" points="71.89,340.63,70.1873,330.9294,69.1,336.4808,63.5486,335.3935,71.89,340.63" style="stroke:#181818;stroke-width:1;"/><text fill="#000000" font-family="sans-serif" font-size="13" lengthAdjust="spacing" textLength="53.6123" x="63.93" y="307.0669">search()</text></g><!--link Destination_Selection to Start_Selection--><g class="link" data-entity-1="Destination_Selection" data-entity-2="Start_Selection" data-source-line="6" data-uid="lnk12" id="link_Destination_Selection_Start_Selection"><path d="M107.89,340.69 C112.94,331.63 118.24,321.09 121.93,311 C127.42,295.97 130.1564,284.2955 132.5164,270.3855" fill="none" id="Destination_Selection-to-Start_Selection" style="stroke:#181818;stroke-width:1;"/><polygon fill="#181818" points="133.52,264.47,128.0709,272.6741,132.6836,269.3996,135.9582,274.0123,133.52,264.47" style="stroke:#181818;stroke-width:1;"/><text fill="#000000" font-family="sans-serif" font-size="13" lengthAdjust="spacing" textLength="52.2539" x="127.93" y="307.0669">cancel()</text></g><!--link Destination_Selection to Route_Selection--><g class="link" data-entity-1="Destination_Selection" data-entity-2="Route_Selection" data-source-line="5" data-uid="lnk11" id="link_Destination_Selection_Route_Selection"><path d="M76.77,391.49 C69.68,405.41 64.32,423 70.93,438 C75.96,449.44 80.2658,455.5235 89.5458,463.7735" fill="none" id="Destination_Selection-to-Route_Selection" style="stroke:#181818;stroke-width:1;"/><polygon fill="#181818" points="94.03,467.76,89.9614,458.7908,90.2932,464.4379,84.6461,464.7697,94.03,467.76" style="stroke:#181818;stroke-width:1;"/><text fill="#000000" font-family="sans-serif" font-size="13" lengthAdjust="spacing" textLength="48.769" x="71.93" y="434.0669">select()</text></g><!--link Route_Selection to Destination_Selection--><g class="link" data-entity-1="Route_Selection" data-entity-2="Destination_Selection" data-source-line="8" data-uid="lnk15" id="link_Route_Selection_Destination_Selection"><path d="M130.96,467.82 C130.89,453.85 129.64,436.1 124.93,421 C121.71,410.7 119.3815,405.377 113.8215,396.487" fill="none" id="Route_Selection-to-Destination_Selection" style="stroke:#181818;stroke-width:1;"/><polygon fill="#181818" points="110.64,391.4,112.021,401.1516,113.2913,395.6392,118.8037,396.9095,110.64,391.4" style="stroke:#181818;stroke-width:1;"/><text fill="#000000" font-family="sans-serif" font-size="13" lengthAdjust="spacing" textLength="52.2539" x="129.93" y="434.0669">cancel()</text></g><!--link Route_Selection to Payment--><g class="link" data-entity-1="Route_Selection" data-entity-2="Payment" data-source-line="7" data-uid="lnk14" id="link_Route_Selection_Payment"><path d="M110.36,518.39 C101.59,532.43 94.84,550.18 102.93,565 C112.15,581.89 123.8653,591.4864 140.1753,600.1064" fill="none" id="Route_Selection-to-Payment" style="stroke:#181818;stroke-width:1;"/><polygon fill="#181818" points="145.48,602.91,139.392,595.1681,141.0594,600.5737,135.6539,602.2411,145.48,602.91" style="stroke:#181818;stroke-width:1;"/><text fill="#000000" font-family="sans-serif" font-size="13" lengthAdjust="spacing" textLength="48.769" x="103.93" y="561.0669">select()</text></g><!--link Payment to Route_Selection--><g class="link" data-entity-1="Payment" data-entity-2="Route_Selection" data-source-line="11" data-uid="lnk19" id="link_Payment_Route_Selection"><path d="M177.03,594.52 C171.36,580.75 163.98,563.31 156.93,548 C152.41,538.19 149.8664,532.8949 145.1964,523.6549" fill="none" id="Payment-to-Route_Selection" style="stroke:#181818;stroke-width:1;"/><polygon fill="#181818" points="142.49,518.3,142.9797,528.1367,144.7454,522.7624,150.1196,524.5281,142.49,518.3" style="stroke:#181818;stroke-width:1;"/><text fill="#000000" font-family="sans-serif" font-size="13" lengthAdjust="spacing" textLength="52.2539" x="164.93" y="561.0669">cancel()</text></g><!--link Payment to Payment_Confirmation--><g class="link" data-entity-1="Payment" data-entity-2="Payment_Confirmation" data-source-line="9" data-uid="lnk17" id="link_Payment_Payment_Confirmation"><path d="M196.1,645.4 C204.38,667.42 214.3865,694.0445 222.6665,716.0445" fill="none" id="Payment-to-Payment_Confirmation" style="stroke:#181818;stroke-width:1;"/><polygon fill="#181818" points="224.78,721.66,225.3535,711.8279,223.0188,716.9805,217.8662,714.6458,224.78,721.66" style="stroke:#181818;stroke-width:1;"/><text fill="#000000" font-family="sans-serif" font-size="13" lengthAdjust="spacing" textLength="38.2256" x="214.93" y="688.0669">paid()</text></g><!--link Payment_Confirmation to HomePage--><g class="link" data-entity-1="Payment_Confirmation" data-entity-2="HomePage" data-source-line="10" data-uid="lnk18" id="link_Payment_Confirmation_HomePage"><path d="M249.06,721.64 C262.8,697.16 280.93,657.86 280.93,621 C280.93,238 280.93,238 280.93,238 C280.93,198.24 256.4722,164.8607 234.1422,141.4607" fill="none" id="Payment_Confirmation-to-HomePage" style="stroke:#181818;stroke-width:1;"/><polygon fill="#181818" points="230,137.12,233.3195,146.3926,233.4519,140.7373,239.1072,140.8696,230,137.12" style="stroke:#181818;stroke-width:1;"/><text fill="#000000" font-family="sans-serif" font-size="13" lengthAdjust="spacing" textLength="60.8042" x="281.93" y="434.0669">timeout()</text></g><!--SRC=[YzQALT3LjLFmoCzD3KXCJ-M2CS2YmIM9HINnmQavgSabcVbv2bOAnQc9HSaP6ffSw58WvIwfnIMPUOaWFl6Qu1PQAIGdvYMdvW3LOJS8f3eelxGa5Srm41kl9anlm6r2Dm-aF22nCZSrhmJPR6pASFaMRZRC72Gpuvtpyz8oYtB1kgmK2X8pKn0AKIJHmwOaCpSLw0WqOp630sOx0000]--></g></svg>