<svg xmlns="http://www.w3.org/2000/svg" xmlns:xlink="http://www.w3.org/1999/xlink" contentStyleType="text/css" data-diagram-type="STATE" height="397px" preserveAspectRatio="none" style="width:187px;height:397px;background:#FFFFFF;" version="1.1" viewBox="0 0 187 397" width="187px" zoomAndPan="magnify"><defs/><g><ellipse cx="96.93" cy="16" fill="#222222" rx="10" ry="10" style="stroke:#222222;stroke-width:1;"/><g id="HomePage"><rect fill="#F1F1F1" height="50" rx="12.5" ry="12.5" style="stroke:#181818;stroke-width:0.5;" width="95.8652" x="49" y="87"/><line style="stroke:#181818;stroke-width:0.5;" x1="49" x2="144.8652" y1="113.2969" y2="113.2969"/><text fill="#000000" font-family="sans-serif" font-size="14" lengthAdjust="spacing" textLength="75.8652" x="59" y="104.9951">HomePage</text></g><g id="Data_Selection"><rect fill="#F1F1F1" height="50" rx="12.5" ry="12.5" style="stroke:#181818;stroke-width:0.5;" width="124.9453" x="34.46" y="214"/><line style="stroke:#181818;stroke-width:0.5;" x1="34.46" x2="159.4053" y1="240.2969" y2="240.2969"/><text fill="#000000" font-family="sans-serif" font-size="14" lengthAdjust="spacing" textLength="104.9453" x="44.46" y="231.9951">Data_Selection</text></g><g id="Seasonal_Trends"><rect fill="#F1F1F1" height="50" rx="12.5" ry="12.5" style="stroke:#181818;stroke-width:0.5;" width="138.2549" x="27.8" y="341"/><line style="stroke:#181818;stroke-width:0.5;" x1="27.8" x2="166.0549" y1="367.2969" y2="367.2969"/><text fill="#000000" font-family="sans-serif" font-size="14" lengthAdjust="spacing" textLength="118.2549" x="37.8" y="358.9951">Seasonal_Trends</text></g><!--link *start* to HomePage--><g class="link" data-entity-1="*start*" data-entity-2="HomePage" data-source-line="1" data-uid="lnk4" id="link_*start*_HomePage"><path d="M96.93,26.36 C96.93,40.29 96.93,60.95 96.93,80.65" fill="none" id="*start*-to-HomePage" style="stroke:#181818;stroke-width:1;"/><polygon fill="#181818" points="96.93,86.65,100.93,77.65,96.93,81.65,92.93,77.65,96.93,86.65" style="stroke:#181818;stroke-width:1;"/></g><!--link HomePage to Data_Selection--><g class="link" data-entity-1="HomePage" data-entity-2="Data_Selection" data-source-line="2" data-uid="lnk6" id="link_HomePage_Data_Selection"><path d="M71.76,137.46 C64.58,146.05 57.69,156.25 53.93,167 C48.13,183.6 53.6644,195.9886 65.1944,209.1386" fill="none" id="HomePage-to-Data_Selection" style="stroke:#181818;stroke-width:1;"/><polygon fill="#181818" points="69.15,213.65,66.2242,204.2458,65.8536,209.8905,60.2089,209.52,69.15,213.65" style="stroke:#181818;stroke-width:1;"/><text fill="#000000" font-family="sans-serif" font-size="13" lengthAdjust="spacing" textLength="39.4253" x="54.93" y="180.0669">data()</text></g><!--link Data_Selection to HomePage--><g class="link" data-entity-1="Data_Selection" data-entity-2="HomePage" data-source-line="4" data-uid="lnk9" id="link_Data_Selection_HomePage"><path d="M98.18,213.69 C98.74,199.98 99.22,182.53 98.93,167 C98.75,157.34 98.6233,152.7055 98.2633,143.4555" fill="none" id="Data_Selection-to-HomePage" style="stroke:#181818;stroke-width:1;"/><polygon fill="#181818" points="98.03,137.46,94.383,146.6087,98.2244,142.4562,102.377,146.2976,98.03,137.46" style="stroke:#181818;stroke-width:1;"/><text fill="#000000" font-family="sans-serif" font-size="13" lengthAdjust="spacing" textLength="41.0376" x="99.93" y="180.0669">back()</text></g><!--link Data_Selection to Seasonal_Trends--><g class="link" data-entity-1="Data_Selection" data-entity-2="Seasonal_Trends" data-source-line="3" data-uid="lnk8" id="link_Data_Selection_Seasonal_Trends"><path d="M44.18,264.28 C32.87,272.09 22.39,281.93 15.93,294 C6,312.55 15.351,325.3317 34.661,337.3917" fill="none" id="Data_Selection-to-Seasonal_Trends" style="stroke:#181818;stroke-width:1;"/><polygon fill="#181818" points="39.75,340.57,34.2354,332.4098,35.5091,337.9214,29.9976,339.1952,39.75,340.57" style="stroke:#181818;stroke-width:1;"/><text fill="#000000" font-family="sans-serif" font-size="13" lengthAdjust="spacing" textLength="115.6289" x="16.93" y="307.0669">seasonal_trends()</text></g><!--link Seasonal_Trends to Data_Selection--><g class="link" data-entity-1="Seasonal_Trends" data-entity-2="Data_Selection" data-source-line="5" data-uid="lnk10" id="link_Seasonal_Trends_Data_Selection"><path d="M122.52,340.8 C133.36,327.56 142.38,310.53 136.93,294 C133.42,283.36 130.612,277.8396 123.852,269.1796" fill="none" id="Seasonal_Trends-to-Data_Selection" style="stroke:#181818;stroke-width:1;"/><polygon fill="#181818" points="120.16,264.45,122.5448,274.0058,123.2366,268.3914,128.851,269.0832,120.16,264.45" style="stroke:#181818;stroke-width:1;"/><text fill="#000000" font-family="sans-serif" font-size="13" lengthAdjust="spacing" textLength="41.0376" x="138.93" y="307.0669">back()</text></g><!--SRC=[YzQALT3LjLFmoCzD3KXCJ-M2CS2YBeabYV71gJcfoIMP-NaALWefG04DJIuqSP3IuDJ4uloyn9puaABKl9HYeDfYc4W9M0IxDhXrLWf9YSdPG4Ne1c5r1qGj0000]--></g></svg>