<?xml version="1.0" encoding="us-ascii" standalone="no"?><svg xmlns="http://www.w3.org/2000/svg" xmlns:xlink="http://www.w3.org/1999/xlink" contentStyleType="text/css" height="1389px" preserveAspectRatio="none" style="width:3380px;height:1389px;background:#FFFFFF;" version="1.1" viewBox="0 0 3380 1389" width="3380px" zoomAndPan="magnify"><defs/><g><text fill="#000000" font-family="sans-serif" font-size="14" font-weight="bold" lengthAdjust="spacing" textLength="183" x="1591.5" y="24.9659">LightSpeed Domain Model</text><!--cluster Enumerations--><g id="cluster_Enumerations"><path d="M8.5,46.6699 L106.5,46.6699 A3.75,3.75 0 0 1 109,49.1699 L116,71.7378 L407.5,71.7378 A2.5,2.5 0 0 1 410,74.2378 L410,455.6699 A2.5,2.5 0 0 1 407.5,458.1699 L8.5,458.1699 A2.5,2.5 0 0 1 6,455.6699 L6,49.1699 A2.5,2.5 0 0 1 8.5,46.6699 " fill="#F9EBEA" style="stroke:#000000;stroke-width:1.5;"/><line style="stroke:#000000;stroke-width:1.5;" x1="6" x2="116" y1="71.7378" y2="71.7378"/><text fill="#000000" font-family="sans-serif" font-size="14" font-weight="bold" lengthAdjust="spacing" textLength="97" x="10" y="63.6358">Enumerations</text></g><!--cluster User Layer--><g id="cluster_User Layer"><path d="M736.5,75.1699 L811.5,75.1699 A3.75,3.75 0 0 1 814,77.6699 L821,100.2378 L1137.5,100.2378 A2.5,2.5 0 0 1 1140,102.7378 L1140,455.6699 A2.5,2.5 0 0 1 1137.5,458.1699 L736.5,458.1699 A2.5,2.5 0 0 1 734,455.6699 L734,77.6699 A2.5,2.5 0 0 1 736.5,75.1699 " fill="#FFF5CC" style="stroke:#000000;stroke-width:1.5;"/><line style="stroke:#000000;stroke-width:1.5;" x1="734" x2="821" y1="100.2378" y2="100.2378"/><text fill="#000000" font-family="sans-serif" font-size="14" font-weight="bold" lengthAdjust="spacing" textLength="74" x="738" y="92.1358">User Layer</text></g><!--cluster Search and Travel--><g id="cluster_Search and Travel"><path d="M1166.5,318.1699 L1289.5,318.1699 A3.75,3.75 0 0 1 1292,320.6699 L1299,343.2378 L2119.5,343.2378 A2.5,2.5 0 0 1 2122,345.7378 L2122,951.1699 A2.5,2.5 0 0 1 2119.5,953.6699 L1166.5,953.6699 A2.5,2.5 0 0 1 1164,951.1699 L1164,320.6699 A2.5,2.5 0 0 1 1166.5,318.1699 " fill="#E8DAEF" style="stroke:#000000;stroke-width:1.5;"/><line style="stroke:#000000;stroke-width:1.5;" x1="1164" x2="1299" y1="343.2378" y2="343.2378"/><text fill="#000000" font-family="sans-serif" font-size="14" font-weight="bold" lengthAdjust="spacing" textLength="122" x="1168" y="335.1358">Search and Travel</text></g><!--cluster Real World Entities--><g id="cluster_Real World Entities"><path d="M502.5,551.6699 L634.5,551.6699 A3.75,3.75 0 0 1 637,554.1699 L644,576.7378 L1137.5,576.7378 A2.5,2.5 0 0 1 1140,579.2378 L1140,1380.1699 A2.5,2.5 0 0 1 1137.5,1382.6699 L502.5,1382.6699 A2.5,2.5 0 0 1 500,1380.1699 L500,554.1699 A2.5,2.5 0 0 1 502.5,551.6699 " fill="#D5F5E3" style="stroke:#000000;stroke-width:1.5;"/><line style="stroke:#000000;stroke-width:1.5;" x1="500" x2="644" y1="576.7378" y2="576.7378"/><text fill="#000000" font-family="sans-serif" font-size="14" font-weight="bold" lengthAdjust="spacing" textLength="131" x="504" y="568.6358">Real World Entities</text></g><!--cluster Platform Management--><g id="cluster_Platform Management"><path d="M2658.5,84.6699 L2816.5,84.6699 A3.75,3.75 0 0 1 2819,87.1699 L2826,109.7378 L2875.5,109.7378 A2.5,2.5 0 0 1 2878,112.2378 L2878,455.6699 A2.5,2.5 0 0 1 2875.5,458.1699 L2658.5,458.1699 A2.5,2.5 0 0 1 2656,455.6699 L2656,87.1699 A2.5,2.5 0 0 1 2658.5,84.6699 " fill="#D6EAF8" style="stroke:#000000;stroke-width:1.5;"/><line style="stroke:#000000;stroke-width:1.5;" x1="2656" x2="2826" y1="109.7378" y2="109.7378"/><text fill="#000000" font-family="sans-serif" font-size="14" font-weight="bold" lengthAdjust="spacing" textLength="157" x="2660" y="101.6358">Platform Management</text></g><!--cluster Analytics--><g id="cluster_Analytics"><path d="M2928.5,94.1699 L2992.5,94.1699 A3.75,3.75 0 0 1 2995,96.6699 L3002,119.2378 L3370.5,119.2378 A2.5,2.5 0 0 1 3373,121.7378 L3373,465.1699 A2.5,2.5 0 0 1 3370.5,467.6699 L2928.5,467.6699 A2.5,2.5 0 0 1 2926,465.1699 L2926,96.6699 A2.5,2.5 0 0 1 2928.5,94.1699 " fill="#FADBD8" style="stroke:#000000;stroke-width:1.5;"/><line style="stroke:#000000;stroke-width:1.5;" x1="2926" x2="3002" y1="119.2378" y2="119.2378"/><text fill="#000000" font-family="sans-serif" font-size="14" font-weight="bold" lengthAdjust="spacing" textLength="63" x="2930" y="111.1358">Analytics</text></g><!--class ModeOfTravel--><g id="elem_ModeOfTravel"><rect codeLine="12" fill="#F1F1F1" height="105.2038" id="ModeOfTravel" rx="2.5" ry="2.5" style="stroke:#181818;stroke-width:0.5;" width="127" x="22.5" y="113.1699"/><ellipse cx="37.5" cy="129.1699" fill="#EB937F" rx="11" ry="11" style="stroke:#181818;stroke-width:1.0;"/><path d="M33.8594,135.6699 L33.8594,123.5293 L41.5156,123.5293 L41.5156,125.6543 L36.2344,125.6543 L36.2344,128.3105 L41.25,128.3105 L41.25,130.4355 L36.2344,130.4355 L36.2344,133.5449 L41.5156,133.5449 L41.5156,135.6699 L33.8594,135.6699 Z " fill="#000000"/><text fill="#000000" font-family="sans-serif" font-size="14" lengthAdjust="spacing" textLength="95" x="51.5" y="134.6019">ModeOfTravel</text><line style="stroke:#181818;stroke-width:0.5;" x1="23.5" x2="148.5" y1="145.1699" y2="145.1699"/><text fill="#000000" font-family="sans-serif" font-size="14" lengthAdjust="spacing" textLength="32" x="28.5" y="164.1358">FAST</text><text fill="#000000" font-family="sans-serif" font-size="14" lengthAdjust="spacing" textLength="44" x="28.5" y="183.2038">CHEAP</text><text fill="#000000" font-family="sans-serif" font-size="14" lengthAdjust="spacing" textLength="46" x="28.5" y="202.2717">GREEN</text><line style="stroke:#181818;stroke-width:0.5;" x1="23.5" x2="148.5" y1="210.3736" y2="210.3736"/></g><!--class TransportationType--><g id="elem_TransportationType"><rect codeLine="18" fill="#F1F1F1" height="162.4075" id="TransportationType" rx="2.5" ry="2.5" style="stroke:#181818;stroke-width:0.5;" width="164" x="230" y="84.6699"/><ellipse cx="245" cy="100.6699" fill="#EB937F" rx="11" ry="11" style="stroke:#181818;stroke-width:1.0;"/><path d="M241.3594,107.1699 L241.3594,95.0293 L249.0156,95.0293 L249.0156,97.1543 L243.7344,97.1543 L243.7344,99.8105 L248.75,99.8105 L248.75,101.9355 L243.7344,101.9355 L243.7344,105.0449 L249.0156,105.0449 L249.0156,107.1699 L241.3594,107.1699 Z " fill="#000000"/><text fill="#000000" font-family="sans-serif" font-size="14" lengthAdjust="spacing" textLength="132" x="259" y="106.1019">TransportationType</text><line style="stroke:#181818;stroke-width:0.5;" x1="231" x2="393" y1="116.6699" y2="116.6699"/><text fill="#000000" font-family="sans-serif" font-size="14" lengthAdjust="spacing" textLength="27" x="236" y="135.6358">BUS</text><text fill="#000000" font-family="sans-serif" font-size="14" lengthAdjust="spacing" textLength="39" x="236" y="154.7038">TRAM</text><text fill="#000000" font-family="sans-serif" font-size="14" lengthAdjust="spacing" textLength="49" x="236" y="173.7717">METRO</text><text fill="#000000" font-family="sans-serif" font-size="14" lengthAdjust="spacing" textLength="27" x="236" y="192.8396">CAR</text><text fill="#000000" font-family="sans-serif" font-size="14" lengthAdjust="spacing" textLength="55" x="236" y="211.9075">BICYCLE</text><text fill="#000000" font-family="sans-serif" font-size="14" lengthAdjust="spacing" textLength="38" x="236" y="230.9754">WALK</text><line style="stroke:#181818;stroke-width:0.5;" x1="231" x2="393" y1="239.0774" y2="239.0774"/></g><!--class SearchTimeType--><g id="elem_SearchTimeType"><rect codeLine="27" fill="#F1F1F1" height="86.1358" id="SearchTimeType" rx="2.5" ry="2.5" style="stroke:#181818;stroke-width:0.5;" width="143" x="22.5" y="356.1699"/><ellipse cx="37.5" cy="372.1699" fill="#EB937F" rx="11" ry="11" style="stroke:#181818;stroke-width:1.0;"/><path d="M33.8594,378.6699 L33.8594,366.5293 L41.5156,366.5293 L41.5156,368.6543 L36.2344,368.6543 L36.2344,371.3105 L41.25,371.3105 L41.25,373.4355 L36.2344,373.4355 L36.2344,376.5449 L41.5156,376.5449 L41.5156,378.6699 L33.8594,378.6699 Z " fill="#000000"/><text fill="#000000" font-family="sans-serif" font-size="14" lengthAdjust="spacing" textLength="111" x="51.5" y="377.6019">SearchTimeType</text><line style="stroke:#181818;stroke-width:0.5;" x1="23.5" x2="164.5" y1="388.1699" y2="388.1699"/><text fill="#000000" font-family="sans-serif" font-size="14" lengthAdjust="spacing" textLength="79" x="28.5" y="407.1358">DEPARTURE</text><text fill="#000000" font-family="sans-serif" font-size="14" lengthAdjust="spacing" textLength="56" x="28.5" y="426.2038">ARRIVAL</text><line style="stroke:#181818;stroke-width:0.5;" x1="23.5" x2="164.5" y1="434.3057" y2="434.3057"/></g><!--class Traveler--><g id="elem_Traveler"><rect codeLine="34" fill="#F1F1F1" height="105.2038" id="Traveler" rx="2.5" ry="2.5" style="stroke:#181818;stroke-width:0.5;" width="313" x="795.5" y="113.1699"/><ellipse cx="920.25" cy="129.1699" fill="#ADD1B2" rx="11" ry="11" style="stroke:#181818;stroke-width:1.0;"/><path d="M919.7188,136.0918 Q917.9688,136.0918 916.8281,135.3574 Q915.7031,134.6074 915.1406,133.2636 Q914.5938,131.9043 914.5938,130.1074 Q914.5938,128.0761 915.25,126.623 Q915.9063,125.1699 917.1875,124.3886 Q918.4688,123.6074 920.3438,123.6074 Q921.2344,123.6074 921.9063,123.7949 Q922.5781,123.9668 923.2656,124.3105 L922.4531,126.3261 Q921.8281,126.0136 921.2813,125.8886 Q920.75,125.7636 920.2656,125.7636 Q919.0938,125.7636 918.3906,126.2949 Q917.6875,126.8261 917.3906,127.7793 Q917.0938,128.7324 917.0938,129.998 Q917.0938,132.0136 917.8125,132.9824 Q918.5313,133.9355 920.125,133.9355 Q920.7188,133.9355 921.3438,133.7793 Q921.9688,133.623 922.7969,133.248 L922.7969,135.4668 Q922.0625,135.7793 921.2656,135.9355 Q920.4844,136.0918 919.7188,136.0918 Z " fill="#000000"/><text fill="#000000" font-family="sans-serif" font-size="14" lengthAdjust="spacing" textLength="55" x="940.75" y="134.6019">Traveler</text><line style="stroke:#181818;stroke-width:0.5;" x1="796.5" x2="1107.5" y1="145.1699" y2="145.1699"/><text fill="#000000" font-family="sans-serif" font-size="14" lengthAdjust="spacing" textLength="99" x="801.5" y="164.1358">+name : String</text><text fill="#000000" font-family="sans-serif" font-size="14" lengthAdjust="spacing" textLength="249" x="801.5" y="183.2038">+wheelchairAccessibleOnly : Boolean</text><text fill="#000000" font-family="sans-serif" font-size="14" lengthAdjust="spacing" textLength="301" x="801.5" y="202.2717">+preferredModes : List&lt;TransportationType&gt;</text><line style="stroke:#181818;stroke-width:0.5;" x1="796.5" x2="1107.5" y1="210.3736" y2="210.3736"/></g><!--class UserSettings--><g id="elem_UserSettings"><rect codeLine="40" fill="#F1F1F1" height="86.1358" id="UserSettings" rx="2.5" ry="2.5" style="stroke:#181818;stroke-width:0.5;" width="373" x="750.5" y="356.1699"/><ellipse cx="889.75" cy="372.1699" fill="#ADD1B2" rx="11" ry="11" style="stroke:#181818;stroke-width:1.0;"/><path d="M889.2188,379.0918 Q887.4688,379.0918 886.3281,378.3574 Q885.2031,377.6074 884.6406,376.2636 Q884.0938,374.9043 884.0938,373.1074 Q884.0938,371.0761 884.75,369.623 Q885.4063,368.1699 886.6875,367.3886 Q887.9688,366.6074 889.8438,366.6074 Q890.7344,366.6074 891.4063,366.7949 Q892.0781,366.9668 892.7656,367.3105 L891.9531,369.3261 Q891.3281,369.0136 890.7813,368.8886 Q890.25,368.7636 889.7656,368.7636 Q888.5938,368.7636 887.8906,369.2949 Q887.1875,369.8261 886.8906,370.7793 Q886.5938,371.7324 886.5938,372.998 Q886.5938,375.0136 887.3125,375.9824 Q888.0313,376.9355 889.625,376.9355 Q890.2188,376.9355 890.8438,376.7793 Q891.4688,376.623 892.2969,376.248 L892.2969,378.4668 Q891.5625,378.7793 890.7656,378.9355 Q889.9844,379.0918 889.2188,379.0918 Z " fill="#000000"/><text fill="#000000" font-family="sans-serif" font-size="14" lengthAdjust="spacing" textLength="86" x="910.25" y="377.6019">UserSettings</text><line style="stroke:#181818;stroke-width:0.5;" x1="751.5" x2="1122.5" y1="388.1699" y2="388.1699"/><text fill="#000000" font-family="sans-serif" font-size="14" lengthAdjust="spacing" textLength="218" x="756.5" y="407.1358">+preferredMode : ModeOfTravel</text><text fill="#000000" font-family="sans-serif" font-size="14" lengthAdjust="spacing" textLength="361" x="756.5" y="426.2038">+preferredTransportTypes : List&lt;TransportationType&gt;</text><line style="stroke:#181818;stroke-width:0.5;" x1="751.5" x2="1122.5" y1="434.3057" y2="434.3057"/></g><!--class TravelSearch--><g id="elem_TravelSearch"><rect codeLine="47" fill="#F1F1F1" height="86.1358" id="TravelSearch" rx="2.5" ry="2.5" style="stroke:#181818;stroke-width:0.5;" width="205" x="1638.5" y="356.1699"/><ellipse cx="1693.25" cy="372.1699" fill="#ADD1B2" rx="11" ry="11" style="stroke:#181818;stroke-width:1.0;"/><path d="M1692.7188,379.0918 Q1690.9688,379.0918 1689.8281,378.3574 Q1688.7031,377.6074 1688.1406,376.2636 Q1687.5938,374.9043 1687.5938,373.1074 Q1687.5938,371.0761 1688.25,369.623 Q1688.9063,368.1699 1690.1875,367.3886 Q1691.4688,366.6074 1693.3438,366.6074 Q1694.2344,366.6074 1694.9063,366.7949 Q1695.5781,366.9668 1696.2656,367.3105 L1695.4531,369.3261 Q1694.8281,369.0136 1694.2813,368.8886 Q1693.75,368.7636 1693.2656,368.7636 Q1692.0938,368.7636 1691.3906,369.2949 Q1690.6875,369.8261 1690.3906,370.7793 Q1690.0938,371.7324 1690.0938,372.998 Q1690.0938,375.0136 1690.8125,375.9824 Q1691.5313,376.9355 1693.125,376.9355 Q1693.7188,376.9355 1694.3438,376.7793 Q1694.9688,376.623 1695.7969,376.248 L1695.7969,378.4668 Q1695.0625,378.7793 1694.2656,378.9355 Q1693.4844,379.0918 1692.7188,379.0918 Z " fill="#000000"/><text fill="#000000" font-family="sans-serif" font-size="14" lengthAdjust="spacing" textLength="87" x="1713.75" y="377.6019">TravelSearch</text><line style="stroke:#181818;stroke-width:0.5;" x1="1639.5" x2="1842.5" y1="388.1699" y2="388.1699"/><text fill="#000000" font-family="sans-serif" font-size="14" lengthAdjust="spacing" textLength="182" x="1644.5" y="407.1358">+referenceTime : DateTime</text><text fill="#000000" font-family="sans-serif" font-size="14" lengthAdjust="spacing" textLength="193" x="1644.5" y="426.2038">+timeType : SearchTimeType</text><line style="stroke:#181818;stroke-width:0.5;" x1="1639.5" x2="1842.5" y1="434.3057" y2="434.3057"/></g><!--class TravelAlternative--><g id="elem_TravelAlternative"><rect codeLine="52" fill="#F1F1F1" height="143.3396" id="TravelAlternative" rx="2.5" ry="2.5" style="stroke:#181818;stroke-width:0.5;" width="225" x="1860.5" y="551.6699"/><ellipse cx="1911.75" cy="567.6699" fill="#ADD1B2" rx="11" ry="11" style="stroke:#181818;stroke-width:1.0;"/><path d="M1911.2188,574.5918 Q1909.4688,574.5918 1908.3281,573.8574 Q1907.2031,573.1074 1906.6406,571.7636 Q1906.0938,570.4043 1906.0938,568.6074 Q1906.0938,566.5761 1906.75,565.123 Q1907.4063,563.6699 1908.6875,562.8886 Q1909.9688,562.1074 1911.8438,562.1074 Q1912.7344,562.1074 1913.4063,562.2949 Q1914.0781,562.4668 1914.7656,562.8105 L1913.9531,564.8261 Q1913.3281,564.5136 1912.7813,564.3886 Q1912.25,564.2636 1911.7656,564.2636 Q1910.5938,564.2636 1909.8906,564.7949 Q1909.1875,565.3261 1908.8906,566.2793 Q1908.5938,567.2324 1908.5938,568.498 Q1908.5938,570.5136 1909.3125,571.4824 Q1910.0313,572.4355 1911.625,572.4355 Q1912.2188,572.4355 1912.8438,572.2793 Q1913.4688,572.123 1914.2969,571.748 L1914.2969,573.9668 Q1913.5625,574.2793 1912.7656,574.4355 Q1911.9844,574.5918 1911.2188,574.5918 Z " fill="#000000"/><text fill="#000000" font-family="sans-serif" font-size="14" lengthAdjust="spacing" textLength="114" x="1932.25" y="573.1019">TravelAlternative</text><line style="stroke:#181818;stroke-width:0.5;" x1="1861.5" x2="2084.5" y1="583.6699" y2="583.6699"/><text fill="#000000" font-family="sans-serif" font-size="14" lengthAdjust="spacing" textLength="142" x="1866.5" y="602.6358">+totalDuration : Time</text><text fill="#000000" font-family="sans-serif" font-size="14" lengthAdjust="spacing" textLength="133" x="1866.5" y="621.7038">+totalCost : Decimal</text><text fill="#000000" font-family="sans-serif" font-size="14" lengthAdjust="spacing" textLength="213" x="1866.5" y="640.7717">+totalCarbonEmission : Decimal</text><text fill="#000000" font-family="sans-serif" font-size="14" lengthAdjust="spacing" textLength="185" x="1866.5" y="659.8396">+departureTime : DateTime</text><text fill="#000000" font-family="sans-serif" font-size="14" lengthAdjust="spacing" textLength="160" x="1866.5" y="678.9075">+arrivalTime : DateTime</text><line style="stroke:#181818;stroke-width:0.5;" x1="1861.5" x2="2084.5" y1="687.0095" y2="687.0095"/></g><!--class TravelSegment--><g id="elem_TravelSegment"><rect codeLine="60" fill="#F1F1F1" height="143.3396" id="TravelSegment" rx="2.5" ry="2.5" style="stroke:#181818;stroke-width:0.5;" width="265" x="1840.5" y="794.6699"/><ellipse cx="1918.25" cy="810.6699" fill="#ADD1B2" rx="11" ry="11" style="stroke:#181818;stroke-width:1.0;"/><path d="M1917.7188,817.5918 Q1915.9688,817.5918 1914.8281,816.8574 Q1913.7031,816.1074 1913.1406,814.7636 Q1912.5938,813.4043 1912.5938,811.6074 Q1912.5938,809.5761 1913.25,808.123 Q1913.9063,806.6699 1915.1875,805.8886 Q1916.4688,805.1074 1918.3438,805.1074 Q1919.2344,805.1074 1919.9063,805.2949 Q1920.5781,805.4668 1921.2656,805.8105 L1920.4531,807.8261 Q1919.8281,807.5136 1919.2813,807.3886 Q1918.75,807.2636 1918.2656,807.2636 Q1917.0938,807.2636 1916.3906,807.7949 Q1915.6875,808.3261 1915.3906,809.2793 Q1915.0938,810.2324 1915.0938,811.498 Q1915.0938,813.5136 1915.8125,814.4824 Q1916.5313,815.4355 1918.125,815.4355 Q1918.7188,815.4355 1919.3438,815.2793 Q1919.9688,815.123 1920.7969,814.748 L1920.7969,816.9668 Q1920.0625,817.2793 1919.2656,817.4355 Q1918.4844,817.5918 1917.7188,817.5918 Z " fill="#000000"/><text fill="#000000" font-family="sans-serif" font-size="14" lengthAdjust="spacing" textLength="101" x="1938.75" y="816.1019">TravelSegment</text><line style="stroke:#181818;stroke-width:0.5;" x1="1841.5" x2="2104.5" y1="826.6699" y2="826.6699"/><text fill="#000000" font-family="sans-serif" font-size="14" lengthAdjust="spacing" textLength="175" x="1846.5" y="845.6358">+sequenceOrder : Integer</text><text fill="#000000" font-family="sans-serif" font-size="14" lengthAdjust="spacing" textLength="253" x="1846.5" y="864.7038">+transportMode : TransportationType</text><text fill="#000000" font-family="sans-serif" font-size="14" lengthAdjust="spacing" textLength="111" x="1846.5" y="883.7717">+duration : Time</text><text fill="#000000" font-family="sans-serif" font-size="14" lengthAdjust="spacing" textLength="101" x="1846.5" y="902.8396">+cost : Decimal</text><text fill="#000000" font-family="sans-serif" font-size="14" lengthAdjust="spacing" textLength="134" x="1846.5" y="921.9075">+emission : Decimal</text><line style="stroke:#181818;stroke-width:0.5;" x1="1841.5" x2="2104.5" y1="930.0095" y2="930.0095"/></g><!--class RouteFilter--><g id="elem_RouteFilter"><rect codeLine="68" fill="#F1F1F1" height="67.0679" id="RouteFilter" rx="2.5" ry="2.5" style="stroke:#181818;stroke-width:0.5;" width="137" x="1477.5" y="589.6699"/><ellipse cx="1508.7" cy="605.6699" fill="#A9DCDF" rx="11" ry="11" style="stroke:#181818;stroke-width:1.0;"/><path d="M1503.8719,611.4199 L1507.2156,599.2324 L1510.3563,599.2324 L1513.7313,611.4199 L1511.2625,611.4199 L1510.5281,608.4043 L1507.0125,608.4043 L1506.2625,611.4199 L1503.8719,611.4199 Z M1508.2781,603.373 L1507.5281,606.373 L1510.0438,606.373 L1509.325,603.373 Q1509.1844,602.7949 1509.0594,602.248 Q1508.9344,601.6855 1508.7938,601.1074 Q1508.6844,601.6855 1508.5438,602.248 Q1508.4031,602.7949 1508.2781,603.373 Z " fill="#000000"/><text fill="#000000" font-family="sans-serif" font-size="14" font-style="italic" lengthAdjust="spacing" textLength="69" x="1526.3" y="611.1019">RouteFilter</text><line style="stroke:#181818;stroke-width:0.5;" x1="1478.5" x2="1613.5" y1="621.6699" y2="621.6699"/><text fill="#000000" font-family="sans-serif" font-size="14" lengthAdjust="spacing" textLength="125" x="1483.5" y="640.6358">+filterType : String</text><line style="stroke:#181818;stroke-width:0.5;" x1="1478.5" x2="1613.5" y1="648.7378" y2="648.7378"/></g><!--class GreenFilter--><g id="elem_GreenFilter"><rect codeLine="72" fill="#F1F1F1" height="48" id="GreenFilter" rx="2.5" ry="2.5" style="stroke:#181818;stroke-width:0.5;" width="107" x="1424.5" y="842.1699"/><ellipse cx="1439.5" cy="858.1699" fill="#ADD1B2" rx="11" ry="11" style="stroke:#181818;stroke-width:1.0;"/><path d="M1438.9688,865.0918 Q1437.2188,865.0918 1436.0781,864.3574 Q1434.9531,863.6074 1434.3906,862.2636 Q1433.8438,860.9043 1433.8438,859.1074 Q1433.8438,857.0761 1434.5,855.623 Q1435.1563,854.1699 1436.4375,853.3886 Q1437.7188,852.6074 1439.5938,852.6074 Q1440.4844,852.6074 1441.1563,852.7949 Q1441.8281,852.9668 1442.5156,853.3105 L1441.7031,855.3261 Q1441.0781,855.0136 1440.5313,854.8886 Q1440,854.7636 1439.5156,854.7636 Q1438.3438,854.7636 1437.6406,855.2949 Q1436.9375,855.8261 1436.6406,856.7793 Q1436.3438,857.7324 1436.3438,858.998 Q1436.3438,861.0136 1437.0625,861.9824 Q1437.7813,862.9355 1439.375,862.9355 Q1439.9688,862.9355 1440.5938,862.7793 Q1441.2188,862.623 1442.0469,862.248 L1442.0469,864.4668 Q1441.3125,864.7793 1440.5156,864.9355 Q1439.7344,865.0918 1438.9688,865.0918 Z " fill="#000000"/><text fill="#000000" font-family="sans-serif" font-size="14" lengthAdjust="spacing" textLength="75" x="1453.5" y="863.6019">GreenFilter</text><line style="stroke:#181818;stroke-width:0.5;" x1="1425.5" x2="1530.5" y1="874.1699" y2="874.1699"/><line style="stroke:#181818;stroke-width:0.5;" x1="1425.5" x2="1530.5" y1="882.1699" y2="882.1699"/></g><!--class AccessibilityFilter--><g id="elem_AccessibilityFilter"><rect codeLine="73" fill="#F1F1F1" height="48" id="AccessibilityFilter" rx="2.5" ry="2.5" style="stroke:#181818;stroke-width:0.5;" width="148" x="1612" y="842.1699"/><ellipse cx="1627" cy="858.1699" fill="#ADD1B2" rx="11" ry="11" style="stroke:#181818;stroke-width:1.0;"/><path d="M1626.4688,865.0918 Q1624.7188,865.0918 1623.5781,864.3574 Q1622.4531,863.6074 1621.8906,862.2636 Q1621.3438,860.9043 1621.3438,859.1074 Q1621.3438,857.0761 1622,855.623 Q1622.6563,854.1699 1623.9375,853.3886 Q1625.2188,852.6074 1627.0938,852.6074 Q1627.9844,852.6074 1628.6563,852.7949 Q1629.3281,852.9668 1630.0156,853.3105 L1629.2031,855.3261 Q1628.5781,855.0136 1628.0313,854.8886 Q1627.5,854.7636 1627.0156,854.7636 Q1625.8438,854.7636 1625.1406,855.2949 Q1624.4375,855.8261 1624.1406,856.7793 Q1623.8438,857.7324 1623.8438,858.998 Q1623.8438,861.0136 1624.5625,861.9824 Q1625.2813,862.9355 1626.875,862.9355 Q1627.4688,862.9355 1628.0938,862.7793 Q1628.7188,862.623 1629.5469,862.248 L1629.5469,864.4668 Q1628.8125,864.7793 1628.0156,864.9355 Q1627.2344,865.0918 1626.4688,865.0918 Z " fill="#000000"/><text fill="#000000" font-family="sans-serif" font-size="14" lengthAdjust="spacing" textLength="116" x="1641" y="863.6019">AccessibilityFilter</text><line style="stroke:#181818;stroke-width:0.5;" x1="1613" x2="1759" y1="874.1699" y2="874.1699"/><line style="stroke:#181818;stroke-width:0.5;" x1="1613" x2="1759" y1="882.1699" y2="882.1699"/></g><!--class TransportTypeFilter--><g id="elem_TransportTypeFilter"><rect codeLine="74" fill="#F1F1F1" height="48" id="TransportTypeFilter" rx="2.5" ry="2.5" style="stroke:#181818;stroke-width:0.5;" width="164" x="1180" y="842.1699"/><ellipse cx="1195" cy="858.1699" fill="#ADD1B2" rx="11" ry="11" style="stroke:#181818;stroke-width:1.0;"/><path d="M1194.4688,865.0918 Q1192.7188,865.0918 1191.5781,864.3574 Q1190.4531,863.6074 1189.8906,862.2636 Q1189.3438,860.9043 1189.3438,859.1074 Q1189.3438,857.0761 1190,855.623 Q1190.6563,854.1699 1191.9375,853.3886 Q1193.2188,852.6074 1195.0938,852.6074 Q1195.9844,852.6074 1196.6563,852.7949 Q1197.3281,852.9668 1198.0156,853.3105 L1197.2031,855.3261 Q1196.5781,855.0136 1196.0313,854.8886 Q1195.5,854.7636 1195.0156,854.7636 Q1193.8438,854.7636 1193.1406,855.2949 Q1192.4375,855.8261 1192.1406,856.7793 Q1191.8438,857.7324 1191.8438,858.998 Q1191.8438,861.0136 1192.5625,861.9824 Q1193.2813,862.9355 1194.875,862.9355 Q1195.4688,862.9355 1196.0938,862.7793 Q1196.7188,862.623 1197.5469,862.248 L1197.5469,864.4668 Q1196.8125,864.7793 1196.0156,864.9355 Q1195.2344,865.0918 1194.4688,865.0918 Z " fill="#000000"/><text fill="#000000" font-family="sans-serif" font-size="14" lengthAdjust="spacing" textLength="132" x="1209" y="863.6019">TransportTypeFilter</text><line style="stroke:#181818;stroke-width:0.5;" x1="1181" x2="1343" y1="874.1699" y2="874.1699"/><line style="stroke:#181818;stroke-width:0.5;" x1="1181" x2="1343" y1="882.1699" y2="882.1699"/></g><!--class Stop--><g id="elem_Stop"><rect codeLine="78" fill="#F1F1F1" height="124.2717" id="Stop" rx="2.5" ry="2.5" style="stroke:#181818;stroke-width:0.5;" width="339" x="516.5" y="1037.6699"/><ellipse cx="666.75" cy="1053.6699" fill="#ADD1B2" rx="11" ry="11" style="stroke:#181818;stroke-width:1.0;"/><path d="M666.2188,1060.5918 Q664.4688,1060.5918 663.3281,1059.8574 Q662.2031,1059.1074 661.6406,1057.7636 Q661.0938,1056.4043 661.0938,1054.6074 Q661.0938,1052.5761 661.75,1051.123 Q662.4063,1049.6699 663.6875,1048.8886 Q664.9688,1048.1074 666.8438,1048.1074 Q667.7344,1048.1074 668.4063,1048.2949 Q669.0781,1048.4668 669.7656,1048.8105 L668.9531,1050.8261 Q668.3281,1050.5136 667.7813,1050.3886 Q667.25,1050.2636 666.7656,1050.2636 Q665.5938,1050.2636 664.8906,1050.7949 Q664.1875,1051.3261 663.8906,1052.2793 Q663.5938,1053.2324 663.5938,1054.498 Q663.5938,1056.5136 664.3125,1057.4824 Q665.0313,1058.4355 666.625,1058.4355 Q667.2188,1058.4355 667.8438,1058.2793 Q668.4688,1058.123 669.2969,1057.748 L669.2969,1059.9668 Q668.5625,1060.2793 667.7656,1060.4355 Q666.9844,1060.5918 666.2188,1060.5918 Z " fill="#000000"/><text fill="#000000" font-family="sans-serif" font-size="14" lengthAdjust="spacing" textLength="30" x="687.25" y="1059.1019">Stop</text><line style="stroke:#181818;stroke-width:0.5;" x1="517.5" x2="854.5" y1="1069.6699" y2="1069.6699"/><text fill="#000000" font-family="sans-serif" font-size="14" lengthAdjust="spacing" textLength="99" x="522.5" y="1088.6358">+name : String</text><text fill="#000000" font-family="sans-serif" font-size="14" lengthAdjust="spacing" textLength="120" x="522.5" y="1107.7038">+latitude : Double</text><text fill="#000000" font-family="sans-serif" font-size="14" lengthAdjust="spacing" textLength="133" x="522.5" y="1126.7717">+longitude : Double</text><text fill="#000000" font-family="sans-serif" font-size="14" lengthAdjust="spacing" textLength="327" x="522.5" y="1145.8396">+transportationTypes : List&lt;TransportationType&gt;</text><line style="stroke:#181818;stroke-width:0.5;" x1="517.5" x2="854.5" y1="1153.9416" y2="1153.9416"/></g><!--class Location--><g id="elem_Location"><rect codeLine="85" fill="#F1F1F1" height="105.2038" id="Location" rx="2.5" ry="2.5" style="stroke:#181818;stroke-width:0.5;" width="145" x="613.5" y="1261.6699"/><ellipse cx="654.15" cy="1277.6699" fill="#ADD1B2" rx="11" ry="11" style="stroke:#181818;stroke-width:1.0;"/><path d="M653.6188,1284.5918 Q651.8688,1284.5918 650.7281,1283.8574 Q649.6031,1283.1074 649.0406,1281.7636 Q648.4938,1280.4043 648.4938,1278.6074 Q648.4938,1276.5761 649.15,1275.123 Q649.8063,1273.6699 651.0875,1272.8886 Q652.3688,1272.1074 654.2438,1272.1074 Q655.1344,1272.1074 655.8063,1272.2949 Q656.4781,1272.4668 657.1656,1272.8105 L656.3531,1274.8261 Q655.7281,1274.5136 655.1813,1274.3886 Q654.65,1274.2636 654.1656,1274.2636 Q652.9938,1274.2636 652.2906,1274.7949 Q651.5875,1275.3261 651.2906,1276.2793 Q650.9938,1277.2324 650.9938,1278.498 Q650.9938,1280.5136 651.7125,1281.4824 Q652.4313,1282.4355 654.025,1282.4355 Q654.6188,1282.4355 655.2438,1282.2793 Q655.8688,1282.123 656.6969,1281.748 L656.6969,1283.9668 Q655.9625,1284.2793 655.1656,1284.4355 Q654.3844,1284.5918 653.6188,1284.5918 Z " fill="#000000"/><text fill="#000000" font-family="sans-serif" font-size="14" lengthAdjust="spacing" textLength="56" x="673.85" y="1283.1019">Location</text><line style="stroke:#181818;stroke-width:0.5;" x1="614.5" x2="757.5" y1="1293.6699" y2="1293.6699"/><text fill="#000000" font-family="sans-serif" font-size="14" lengthAdjust="spacing" textLength="99" x="619.5" y="1312.6358">+name : String</text><text fill="#000000" font-family="sans-serif" font-size="14" lengthAdjust="spacing" textLength="120" x="619.5" y="1331.7038">+latitude : Double</text><text fill="#000000" font-family="sans-serif" font-size="14" lengthAdjust="spacing" textLength="133" x="619.5" y="1350.7717">+longitude : Double</text><line style="stroke:#181818;stroke-width:0.5;" x1="614.5" x2="757.5" y1="1358.8736" y2="1358.8736"/></g><!--class Vehicle--><g id="elem_Vehicle"><rect codeLine="91" fill="#F1F1F1" height="86.1358" id="Vehicle" rx="2.5" ry="2.5" style="stroke:#181818;stroke-width:0.5;" width="193" x="755.5" y="823.1699"/><ellipse cx="823.75" cy="839.1699" fill="#ADD1B2" rx="11" ry="11" style="stroke:#181818;stroke-width:1.0;"/><path d="M823.2188,846.0918 Q821.4688,846.0918 820.3281,845.3574 Q819.2031,844.6074 818.6406,843.2636 Q818.0938,841.9043 818.0938,840.1074 Q818.0938,838.0761 818.75,836.623 Q819.4063,835.1699 820.6875,834.3886 Q821.9688,833.6074 823.8438,833.6074 Q824.7344,833.6074 825.4063,833.7949 Q826.0781,833.9668 826.7656,834.3105 L825.9531,836.3261 Q825.3281,836.0136 824.7813,835.8886 Q824.25,835.7636 823.7656,835.7636 Q822.5938,835.7636 821.8906,836.2949 Q821.1875,836.8261 820.8906,837.7793 Q820.5938,838.7324 820.5938,839.998 Q820.5938,842.0136 821.3125,842.9824 Q822.0313,843.9355 823.625,843.9355 Q824.2188,843.9355 824.8438,843.7793 Q825.4688,843.623 826.2969,843.248 L826.2969,845.4668 Q825.5625,845.7793 824.7656,845.9355 Q823.9844,846.0918 823.2188,846.0918 Z " fill="#000000"/><text fill="#000000" font-family="sans-serif" font-size="14" lengthAdjust="spacing" textLength="48" x="844.25" y="844.6019">Vehicle</text><line style="stroke:#181818;stroke-width:0.5;" x1="756.5" x2="947.5" y1="855.1699" y2="855.1699"/><text fill="#000000" font-family="sans-serif" font-size="14" lengthAdjust="spacing" textLength="164" x="761.5" y="874.1358">+vehicleNumber : String</text><text fill="#000000" font-family="sans-serif" font-size="14" lengthAdjust="spacing" textLength="181" x="761.5" y="893.2038">+type : TransportationType</text><line style="stroke:#181818;stroke-width:0.5;" x1="756.5" x2="947.5" y1="901.3057" y2="901.3057"/></g><!--class VehicleLocationUpdate--><g id="elem_VehicleLocationUpdate"><rect codeLine="96" fill="#F1F1F1" height="86.1358" id="VehicleLocationUpdate" rx="2.5" ry="2.5" style="stroke:#181818;stroke-width:0.5;" width="188" x="936" y="1056.6699"/><ellipse cx="952.35" cy="1072.6699" fill="#ADD1B2" rx="11" ry="11" style="stroke:#181818;stroke-width:1.0;"/><path d="M951.8188,1079.5918 Q950.0688,1079.5918 948.9281,1078.8574 Q947.8031,1078.1074 947.2406,1076.7636 Q946.6938,1075.4043 946.6938,1073.6074 Q946.6938,1071.5761 947.35,1070.123 Q948.0063,1068.6699 949.2875,1067.8886 Q950.5688,1067.1074 952.4438,1067.1074 Q953.3344,1067.1074 954.0063,1067.2949 Q954.6781,1067.4668 955.3656,1067.8105 L954.5531,1069.8261 Q953.9281,1069.5136 953.3813,1069.3886 Q952.85,1069.2636 952.3656,1069.2636 Q951.1938,1069.2636 950.4906,1069.7949 Q949.7875,1070.3261 949.4906,1071.2793 Q949.1938,1072.2324 949.1938,1073.498 Q949.1938,1075.5136 949.9125,1076.4824 Q950.6313,1077.4355 952.225,1077.4355 Q952.8188,1077.4355 953.4438,1077.2793 Q954.0688,1077.123 954.8969,1076.748 L954.8969,1078.9668 Q954.1625,1079.2793 953.3656,1079.4355 Q952.5844,1079.5918 951.8188,1079.5918 Z " fill="#000000"/><text fill="#000000" font-family="sans-serif" font-size="14" lengthAdjust="spacing" textLength="153" x="966.65" y="1078.1019">VehicleLocationUpdate</text><line style="stroke:#181818;stroke-width:0.5;" x1="937" x2="1123" y1="1088.6699" y2="1088.6699"/><text fill="#000000" font-family="sans-serif" font-size="14" lengthAdjust="spacing" textLength="156" x="942" y="1107.6358">+timestamp : DateTime</text><text fill="#000000" font-family="sans-serif" font-size="14" lengthAdjust="spacing" textLength="176" x="942" y="1126.7038">+delayInSeconds : Integer</text><line style="stroke:#181818;stroke-width:0.5;" x1="937" x2="1123" y1="1134.8057" y2="1134.8057"/></g><!--class ExternalTransportationSystem--><g id="elem_ExternalTransportationSystem"><rect codeLine="101" fill="#F1F1F1" height="67.0679" id="ExternalTransportationSystem" rx="2.5" ry="2.5" style="stroke:#181818;stroke-width:0.5;" width="235" x="811.5" y="589.6699"/><ellipse cx="826.5" cy="605.6699" fill="#ADD1B2" rx="11" ry="11" style="stroke:#181818;stroke-width:1.0;"/><path d="M825.9688,612.5918 Q824.2188,612.5918 823.0781,611.8574 Q821.9531,611.1074 821.3906,609.7636 Q820.8438,608.4043 820.8438,606.6074 Q820.8438,604.5761 821.5,603.123 Q822.1563,601.6699 823.4375,600.8886 Q824.7188,600.1074 826.5938,600.1074 Q827.4844,600.1074 828.1563,600.2949 Q828.8281,600.4668 829.5156,600.8105 L828.7031,602.8261 Q828.0781,602.5136 827.5313,602.3886 Q827,602.2636 826.5156,602.2636 Q825.3438,602.2636 824.6406,602.7949 Q823.9375,603.3261 823.6406,604.2793 Q823.3438,605.2324 823.3438,606.498 Q823.3438,608.5136 824.0625,609.4824 Q824.7813,610.4355 826.375,610.4355 Q826.9688,610.4355 827.5938,610.2793 Q828.2188,610.123 829.0469,609.748 L829.0469,611.9668 Q828.3125,612.2793 827.5156,612.4355 Q826.7344,612.5918 825.9688,612.5918 Z " fill="#000000"/><text fill="#000000" font-family="sans-serif" font-size="14" lengthAdjust="spacing" textLength="203" x="840.5" y="611.1019">ExternalTransportationSystem</text><line style="stroke:#181818;stroke-width:0.5;" x1="812.5" x2="1045.5" y1="621.6699" y2="621.6699"/><text fill="#000000" font-family="sans-serif" font-size="14" lengthAdjust="spacing" textLength="99" x="817.5" y="640.6358">+name : String</text><line style="stroke:#181818;stroke-width:0.5;" x1="812.5" x2="1045.5" y1="648.7378" y2="648.7378"/></g><!--class LightSpeedPlatform--><g id="elem_LightSpeedPlatform"><rect codeLine="107" fill="#F1F1F1" height="86.1358" id="LightSpeedPlatform" rx="2.5" ry="2.5" style="stroke:#181818;stroke-width:0.5;" width="165" x="2672.5" y="122.6699"/><ellipse cx="2687.5" cy="138.6699" fill="#ADD1B2" rx="11" ry="11" style="stroke:#181818;stroke-width:1.0;"/><path d="M2686.9688,145.5918 Q2685.2188,145.5918 2684.0781,144.8574 Q2682.9531,144.1074 2682.3906,142.7636 Q2681.8438,141.4043 2681.8438,139.6074 Q2681.8438,137.5761 2682.5,136.123 Q2683.1563,134.6699 2684.4375,133.8886 Q2685.7188,133.1074 2687.5938,133.1074 Q2688.4844,133.1074 2689.1563,133.2949 Q2689.8281,133.4668 2690.5156,133.8105 L2689.7031,135.8261 Q2689.0781,135.5136 2688.5313,135.3886 Q2688,135.2636 2687.5156,135.2636 Q2686.3438,135.2636 2685.6406,135.7949 Q2684.9375,136.3261 2684.6406,137.2793 Q2684.3438,138.2324 2684.3438,139.498 Q2684.3438,141.5136 2685.0625,142.4824 Q2685.7813,143.4355 2687.375,143.4355 Q2687.9688,143.4355 2688.5938,143.2793 Q2689.2188,143.123 2690.0469,142.748 L2690.0469,144.9668 Q2689.3125,145.2793 2688.5156,145.4355 Q2687.7344,145.5918 2686.9688,145.5918 Z " fill="#000000"/><text fill="#000000" font-family="sans-serif" font-size="14" lengthAdjust="spacing" textLength="133" x="2701.5" y="144.1019">LightSpeedPlatform</text><line style="stroke:#181818;stroke-width:0.5;" x1="2673.5" x2="2836.5" y1="154.6699" y2="154.6699"/><text fill="#000000" font-family="sans-serif" font-size="14" lengthAdjust="spacing" textLength="133" x="2678.5" y="173.6358">+platformId : String</text><text fill="#000000" font-family="sans-serif" font-size="14" lengthAdjust="spacing" textLength="99" x="2678.5" y="192.7038">+name : String</text><line style="stroke:#181818;stroke-width:0.5;" x1="2673.5" x2="2836.5" y1="200.8057" y2="200.8057"/></g><!--class SeasonalTrendReport--><g id="elem_SeasonalTrendReport"><rect codeLine="112" fill="#F1F1F1" height="86.1358" id="SeasonalTrendReport" rx="2.5" ry="2.5" style="stroke:#181818;stroke-width:0.5;" width="190" x="2672" y="356.1699"/><ellipse cx="2692.85" cy="372.1699" fill="#ADD1B2" rx="11" ry="11" style="stroke:#181818;stroke-width:1.0;"/><path d="M2692.3188,379.0918 Q2690.5688,379.0918 2689.4281,378.3574 Q2688.3031,377.6074 2687.7406,376.2636 Q2687.1938,374.9043 2687.1938,373.1074 Q2687.1938,371.0761 2687.85,369.623 Q2688.5063,368.1699 2689.7875,367.3886 Q2691.0688,366.6074 2692.9438,366.6074 Q2693.8344,366.6074 2694.5063,366.7949 Q2695.1781,366.9668 2695.8656,367.3105 L2695.0531,369.3261 Q2694.4281,369.0136 2693.8813,368.8886 Q2693.35,368.7636 2692.8656,368.7636 Q2691.6938,368.7636 2690.9906,369.2949 Q2690.2875,369.8261 2689.9906,370.7793 Q2689.6938,371.7324 2689.6938,372.998 Q2689.6938,375.0136 2690.4125,375.9824 Q2691.1313,376.9355 2692.725,376.9355 Q2693.3188,376.9355 2693.9438,376.7793 Q2694.5688,376.623 2695.3969,376.248 L2695.3969,378.4668 Q2694.6625,378.7793 2693.8656,378.9355 Q2693.0844,379.0918 2692.3188,379.0918 Z " fill="#000000"/><text fill="#000000" font-family="sans-serif" font-size="14" lengthAdjust="spacing" textLength="145" x="2708.15" y="377.6019">SeasonalTrendReport</text><line style="stroke:#181818;stroke-width:0.5;" x1="2673" x2="2861" y1="388.1699" y2="388.1699"/><text fill="#000000" font-family="sans-serif" font-size="14" lengthAdjust="spacing" textLength="108" x="2678" y="407.1358">+season : String</text><text fill="#000000" font-family="sans-serif" font-size="14" lengthAdjust="spacing" textLength="178" x="2678" y="426.2038">+demographicInfo : String</text><line style="stroke:#181818;stroke-width:0.5;" x1="2673" x2="2861" y1="434.3057" y2="434.3057"/></g><!--class DataAnalyst--><g id="elem_DataAnalyst"><rect codeLine="119" fill="#F1F1F1" height="67.0679" id="DataAnalyst" rx="2.5" ry="2.5" style="stroke:#181818;stroke-width:0.5;" width="112" x="2942" y="132.1699"/><ellipse cx="2957" cy="148.1699" fill="#ADD1B2" rx="11" ry="11" style="stroke:#181818;stroke-width:1.0;"/><path d="M2956.4688,155.0918 Q2954.7188,155.0918 2953.5781,154.3574 Q2952.4531,153.6074 2951.8906,152.2636 Q2951.3438,150.9043 2951.3438,149.1074 Q2951.3438,147.0761 2952,145.623 Q2952.6563,144.1699 2953.9375,143.3886 Q2955.2188,142.6074 2957.0938,142.6074 Q2957.9844,142.6074 2958.6563,142.7949 Q2959.3281,142.9668 2960.0156,143.3105 L2959.2031,145.3261 Q2958.5781,145.0136 2958.0313,144.8886 Q2957.5,144.7636 2957.0156,144.7636 Q2955.8438,144.7636 2955.1406,145.2949 Q2954.4375,145.8261 2954.1406,146.7793 Q2953.8438,147.7324 2953.8438,148.998 Q2953.8438,151.0136 2954.5625,151.9824 Q2955.2813,152.9355 2956.875,152.9355 Q2957.4688,152.9355 2958.0938,152.7793 Q2958.7188,152.623 2959.5469,152.248 L2959.5469,154.4668 Q2958.8125,154.7793 2958.0156,154.9355 Q2957.2344,155.0918 2956.4688,155.0918 Z " fill="#000000"/><text fill="#000000" font-family="sans-serif" font-size="14" lengthAdjust="spacing" textLength="80" x="2971" y="153.6019">DataAnalyst</text><line style="stroke:#181818;stroke-width:0.5;" x1="2943" x2="3053" y1="164.1699" y2="164.1699"/><text fill="#000000" font-family="sans-serif" font-size="14" lengthAdjust="spacing" textLength="99" x="2948" y="183.1358">+name : String</text><line style="stroke:#181818;stroke-width:0.5;" x1="2943" x2="3053" y1="191.2378" y2="191.2378"/></g><!--class PersonalStatistics--><g id="elem_PersonalStatistics"><rect codeLine="123" fill="#F1F1F1" height="67.0679" id="PersonalStatistics" rx="2.5" ry="2.5" style="stroke:#181818;stroke-width:0.5;" width="180" x="3134" y="132.1699"/><ellipse cx="3162.5" cy="148.1699" fill="#ADD1B2" rx="11" ry="11" style="stroke:#181818;stroke-width:1.0;"/><path d="M3161.9688,155.0918 Q3160.2188,155.0918 3159.0781,154.3574 Q3157.9531,153.6074 3157.3906,152.2636 Q3156.8438,150.9043 3156.8438,149.1074 Q3156.8438,147.0761 3157.5,145.623 Q3158.1563,144.1699 3159.4375,143.3886 Q3160.7188,142.6074 3162.5938,142.6074 Q3163.4844,142.6074 3164.1563,142.7949 Q3164.8281,142.9668 3165.5156,143.3105 L3164.7031,145.3261 Q3164.0781,145.0136 3163.5313,144.8886 Q3163,144.7636 3162.5156,144.7636 Q3161.3438,144.7636 3160.6406,145.2949 Q3159.9375,145.8261 3159.6406,146.7793 Q3159.3438,147.7324 3159.3438,148.998 Q3159.3438,151.0136 3160.0625,151.9824 Q3160.7813,152.9355 3162.375,152.9355 Q3162.9688,152.9355 3163.5938,152.7793 Q3164.2188,152.623 3165.0469,152.248 L3165.0469,154.4668 Q3164.3125,154.7793 3163.5156,154.9355 Q3162.7344,155.0918 3161.9688,155.0918 Z " fill="#000000"/><text fill="#000000" font-family="sans-serif" font-size="14" lengthAdjust="spacing" textLength="118" x="3179.5" y="153.6019">PersonalStatistics</text><line style="stroke:#181818;stroke-width:0.5;" x1="3135" x2="3313" y1="164.1699" y2="164.1699"/><text fill="#000000" font-family="sans-serif" font-size="14" lengthAdjust="spacing" textLength="168" x="3140" y="183.1358">+generatedAt : DateTime</text><line style="stroke:#181818;stroke-width:0.5;" x1="3135" x2="3313" y1="191.2378" y2="191.2378"/></g><!--class EmissionStatistics--><g id="elem_EmissionStatistics"><rect codeLine="127" fill="#F1F1F1" height="67.0679" id="EmissionStatistics" rx="2.5" ry="2.5" style="stroke:#181818;stroke-width:0.5;" width="173" x="2942.5" y="365.6699"/><ellipse cx="2966.95" cy="381.6699" fill="#ADD1B2" rx="11" ry="11" style="stroke:#181818;stroke-width:1.0;"/><path d="M2966.4188,388.5918 Q2964.6688,388.5918 2963.5281,387.8574 Q2962.4031,387.1074 2961.8406,385.7636 Q2961.2938,384.4043 2961.2938,382.6074 Q2961.2938,380.5761 2961.95,379.123 Q2962.6063,377.6699 2963.8875,376.8886 Q2965.1688,376.1074 2967.0438,376.1074 Q2967.9344,376.1074 2968.6063,376.2949 Q2969.2781,376.4668 2969.9656,376.8105 L2969.1531,378.8261 Q2968.5281,378.5136 2967.9813,378.3886 Q2967.45,378.2636 2966.9656,378.2636 Q2965.7938,378.2636 2965.0906,378.7949 Q2964.3875,379.3261 2964.0906,380.2793 Q2963.7938,381.2324 2963.7938,382.498 Q2963.7938,384.5136 2964.5125,385.4824 Q2965.2313,386.4355 2966.825,386.4355 Q2967.4188,386.4355 2968.0438,386.2793 Q2968.6688,386.123 2969.4969,385.748 L2969.4969,387.9668 Q2968.7625,388.2793 2967.9656,388.4355 Q2967.1844,388.5918 2966.4188,388.5918 Z " fill="#000000"/><text fill="#000000" font-family="sans-serif" font-size="14" lengthAdjust="spacing" textLength="120" x="2983.05" y="387.1019">EmissionStatistics</text><line style="stroke:#181818;stroke-width:0.5;" x1="2943.5" x2="3114.5" y1="397.6699" y2="397.6699"/><text fill="#000000" font-family="sans-serif" font-size="14" lengthAdjust="spacing" textLength="161" x="2948.5" y="416.6358">+carbonSaved : Decimal</text><line style="stroke:#181818;stroke-width:0.5;" x1="2943.5" x2="3114.5" y1="424.7378" y2="424.7378"/></g><!--class SpendingSummary--><g id="elem_SpendingSummary"><rect codeLine="131" fill="#F1F1F1" height="105.2038" id="SpendingSummary" rx="2.5" ry="2.5" style="stroke:#181818;stroke-width:0.5;" width="161" x="3195.5" y="346.6699"/><ellipse cx="3210.5" cy="362.6699" fill="#ADD1B2" rx="11" ry="11" style="stroke:#181818;stroke-width:1.0;"/><path d="M3209.9688,369.5918 Q3208.2188,369.5918 3207.0781,368.8574 Q3205.9531,368.1074 3205.3906,366.7636 Q3204.8438,365.4043 3204.8438,363.6074 Q3204.8438,361.5761 3205.5,360.123 Q3206.1563,358.6699 3207.4375,357.8886 Q3208.7188,357.1074 3210.5938,357.1074 Q3211.4844,357.1074 3212.1563,357.2949 Q3212.8281,357.4668 3213.5156,357.8105 L3212.7031,359.8261 Q3212.0781,359.5136 3211.5313,359.3886 Q3211,359.2636 3210.5156,359.2636 Q3209.3438,359.2636 3208.6406,359.7949 Q3207.9375,360.3261 3207.6406,361.2793 Q3207.3438,362.2324 3207.3438,363.498 Q3207.3438,365.5136 3208.0625,366.4824 Q3208.7813,367.4355 3210.375,367.4355 Q3210.9688,367.4355 3211.5938,367.2793 Q3212.2188,367.123 3213.0469,366.748 L3213.0469,368.9668 Q3212.3125,369.2793 3211.5156,369.4355 Q3210.7344,369.5918 3209.9688,369.5918 Z " fill="#000000"/><text fill="#000000" font-family="sans-serif" font-size="14" lengthAdjust="spacing" textLength="129" x="3224.5" y="368.1019">SpendingSummary</text><line style="stroke:#181818;stroke-width:0.5;" x1="3196.5" x2="3355.5" y1="378.6699" y2="378.6699"/><text fill="#000000" font-family="sans-serif" font-size="14" lengthAdjust="spacing" textLength="143" x="3201.5" y="397.6358">+totalSpent : Decimal</text><text fill="#000000" font-family="sans-serif" font-size="14" lengthAdjust="spacing" textLength="127" x="3201.5" y="416.7038">+periodStart : Date</text><text fill="#000000" font-family="sans-serif" font-size="14" lengthAdjust="spacing" textLength="121" x="3201.5" y="435.7717">+periodEnd : Date</text><line style="stroke:#181818;stroke-width:0.5;" x1="3196.5" x2="3355.5" y1="443.8736" y2="443.8736"/></g><!--reverse link RouteFilter to GreenFilter--><g id="link_RouteFilter_GreenFilter"><path codeLine="139" d="M1504.5,674.6999 C1504.5,724.4399 1504.5,798.5599 1504.5,842.1299 " fill="none" id="RouteFilter-backto-GreenFilter" style="stroke:#181818;stroke-width:1.0;"/><polygon fill="none" points="1504.5,656.6999,1498.5,674.6999,1510.5,674.6999,1504.5,656.6999" style="stroke:#181818;stroke-width:1.0;"/></g><!--reverse link RouteFilter to AccessibilityFilter--><g id="link_RouteFilter_AccessibilityFilter"><path codeLine="140" d="M1632.62,634.6699 C1632.62,634.6699 1626.5,782.3999 1626.5,841.8299 " fill="none" id="RouteFilter-backto-AccessibilityFilter" style="stroke:#181818;stroke-width:1.0;"/><polygon fill="none" points="1614.62,634.6699,1632.62,640.6699,1632.62,628.6699,1614.62,634.6699" style="stroke:#181818;stroke-width:1.0;"/></g><!--reverse link RouteFilter to TransportTypeFilter--><g id="link_RouteFilter_TransportTypeFilter"><path codeLine="141" d="M1459.25,623.6699 C1375.2,623.6699 1262,623.6699 1262,623.6699 C1262,623.6699 1262,780.6899 1262,842.0299 " fill="none" id="RouteFilter-backto-TransportTypeFilter" style="stroke:#181818;stroke-width:1.0;"/><polygon fill="none" points="1477.25,623.6699,1459.25,617.6699,1459.25,629.6699,1477.25,623.6699" style="stroke:#181818;stroke-width:1.0;"/></g><!--link Stop to Location--><g id="link_Stop_Location"><path codeLine="142" d="M686,1161.7099 C686,1193.2599 686,1213.1999 686,1243.3399 " fill="none" id="Stop-to-Location" style="stroke:#181818;stroke-width:1.0;"/><polygon fill="none" points="686,1261.3399,692,1243.3399,680,1243.3399,686,1261.3399" style="stroke:#181818;stroke-width:1.0;"/></g><!--reverse link PersonalStatistics to EmissionStatistics--><g id="link_PersonalStatistics_EmissionStatistics"><path codeLine="143" d="M3115.84,165.6699 C3089.07,165.6699 3084.75,165.6699 3084.75,165.6699 C3084.75,165.6699 3084.75,300.4599 3084.75,365.2199 " fill="none" id="PersonalStatistics-backto-EmissionStatistics" style="stroke:#181818;stroke-width:1.0;"/><polygon fill="none" points="3133.84,165.6699,3115.84,159.6699,3115.84,171.6699,3133.84,165.6699" style="stroke:#181818;stroke-width:1.0;"/></g><!--reverse link PersonalStatistics to SpendingSummary--><g id="link_PersonalStatistics_SpendingSummary"><path codeLine="144" d="M3254.75,217.6199 C3254.75,256.1999 3254.75,301.6299 3254.75,346.6099 " fill="none" id="PersonalStatistics-backto-SpendingSummary" style="stroke:#181818;stroke-width:1.0;"/><polygon fill="none" points="3254.75,199.6199,3248.75,217.6199,3260.75,217.6199,3254.75,199.6199" style="stroke:#181818;stroke-width:1.0;"/></g><!--reverse link Traveler to UserSettings--><g id="link_Traveler_UserSettings"><path codeLine="149" d="M952,230.3599 C952,271.9299 952,317.1799 952,356.0399 " fill="none" id="Traveler-backto-UserSettings" style="stroke:#181818;stroke-width:1.0;"/><polygon fill="#181818" points="952,218.3599,948,224.3599,952,230.3599,956,224.3599,952,218.3599" style="stroke:#181818;stroke-width:1.0;"/><text fill="#000000" font-family="sans-serif" font-size="13" lengthAdjust="spacing" textLength="63" x="888" y="283.0969">configures</text><text fill="#000000" font-family="sans-serif" font-size="13" lengthAdjust="spacing" textLength="7" x="944.5516" y="240.1291">1</text><text fill="#000000" font-family="sans-serif" font-size="13" lengthAdjust="spacing" textLength="7" x="946.9047" y="344.4329">1</text></g><!--reverse link Traveler to TravelSearch--><g id="link_Traveler_TravelSearch"><path codeLine="150" d="M1120.86,216.6699 C1342.02,216.6699 1706.83,216.6699 1706.83,216.6699 C1706.83,216.6699 1706.83,301.9499 1706.83,355.9199 " fill="none" id="Traveler-backto-TravelSearch" style="stroke:#181818;stroke-width:1.0;"/><polygon fill="none" points="1108.86,216.6699,1114.86,220.6699,1120.86,216.6699,1114.86,212.6699,1108.86,216.6699" style="stroke:#181818;stroke-width:1.0;"/><text fill="#000000" font-family="sans-serif" font-size="13" lengthAdjust="spacing" textLength="47" x="1429.47" y="212.5669">initiates</text><text fill="#000000" font-family="sans-serif" font-size="13" lengthAdjust="spacing" textLength="7" x="1116.6274" y="233.4611">1</text><text fill="#000000" font-family="sans-serif" font-size="13" lengthAdjust="spacing" textLength="7" x="1693.5909" y="344.293">*</text></g><!--reverse link Traveler to TravelAlternative--><g id="link_Traveler_TravelAlternative"><path codeLine="151" d="M1120.65,213.6699 C1398.24,213.6699 1935.5,213.6699 1935.5,213.6699 C1935.5,213.6699 1935.5,433.9299 1935.5,551.3699 " fill="none" id="Traveler-backto-TravelAlternative" style="stroke:#181818;stroke-width:1.0;"/><polygon fill="none" points="1108.65,213.6699,1114.65,217.6699,1120.65,213.6699,1114.65,209.6699,1108.65,213.6699" style="stroke:#181818;stroke-width:1.0;"/><text fill="#000000" font-family="sans-serif" font-size="13" lengthAdjust="spacing" textLength="40" x="1649.93" y="209.5669">selects</text><text fill="#000000" font-family="sans-serif" font-size="13" lengthAdjust="spacing" textLength="7" x="1116.4073" y="212.4924">1</text><text fill="#000000" font-family="sans-serif" font-size="13" lengthAdjust="spacing" textLength="7" x="1924.2719" y="540.0049">*</text></g><!--reverse link Traveler to PersonalStatistics--><g id="link_Traveler_PersonalStatistics"><path codeLine="152" d="M1120.92,211.6699 C1625.98,211.6699 3164.75,211.6699 3164.75,211.6699 C3164.75,211.6699 3164.75,206.4799 3164.75,199.5799 " fill="none" id="Traveler-backto-PersonalStatistics" style="stroke:#181818;stroke-width:1.0;"/><polygon fill="none" points="1108.92,211.6699,1114.92,215.6699,1120.92,211.6699,1114.92,207.6699,1108.92,211.6699" style="stroke:#181818;stroke-width:1.0;"/><text fill="#000000" font-family="sans-serif" font-size="13" lengthAdjust="spacing" textLength="33" x="2108.88" y="207.5669">views</text><text fill="#000000" font-family="sans-serif" font-size="13" lengthAdjust="spacing" textLength="7" x="1116.5428" y="230.7854">1</text><text fill="#000000" font-family="sans-serif" font-size="13" lengthAdjust="spacing" textLength="7" x="3146.5727" y="221.088">*</text></g><!--reverse link Traveler to Stop--><g id="link_Traveler_Stop"><path codeLine="153" d="M783.08,165.6699 C702.69,165.6699 633.5,165.6699 633.5,165.6699 C633.5,165.6699 633.5,829.0599 633.5,1037.6599 " fill="none" id="Traveler-backto-Stop" style="stroke:#181818;stroke-width:1.0;"/><polygon fill="none" points="795.08,165.6699,789.08,161.6699,783.08,165.6699,789.08,169.6699,795.08,165.6699" style="stroke:#181818;stroke-width:1.0;"/><text fill="#000000" font-family="sans-serif" font-size="13" lengthAdjust="spacing" textLength="55" x="577.5" y="516.7769">boardsAt</text><text fill="#000000" font-family="sans-serif" font-size="13" lengthAdjust="spacing" textLength="7" x="780.3097" y="162.1674">*</text><text fill="#000000" font-family="sans-serif" font-size="13" lengthAdjust="spacing" textLength="7" x="619.675" y="1025.99">*</text></g><!--reverse link TravelSearch to TravelAlternative--><g id="link_TravelSearch_TravelAlternative"><path codeLine="156" d="M1800.25,454.4499 C1800.25,505.2499 1800.25,570.6699 1800.25,570.6699 C1800.25,570.6699 1827.41,570.6699 1860.18,570.6699 " fill="none" id="TravelSearch-backto-TravelAlternative" style="stroke:#181818;stroke-width:1.0;"/><polygon fill="#181818" points="1800.25,442.4499,1796.25,448.4499,1800.25,454.4499,1804.25,448.4499,1800.25,442.4499" style="stroke:#181818;stroke-width:1.0;"/><text fill="#000000" font-family="sans-serif" font-size="13" lengthAdjust="spacing" textLength="56" x="1743.25" y="532.4269">proposes</text><text fill="#000000" font-family="sans-serif" font-size="13" lengthAdjust="spacing" textLength="7" x="1801.7867" y="464.3194">1</text><text fill="#000000" font-family="sans-serif" font-size="13" lengthAdjust="spacing" textLength="7" x="1845.3648" y="563.4808">*</text></g><!--link TravelSearch to RouteFilter--><g id="link_TravelSearch_RouteFilter"><path codeLine="157" d="M1699.25,442.3699 C1699.25,504.7599 1699.25,612.6699 1699.25,612.6699 C1699.25,612.6699 1655.36,612.6699 1614.56,612.6699 " fill="none" id="TravelSearch-RouteFilter" style="stroke:#181818;stroke-width:1.0;"/><text fill="#000000" font-family="sans-serif" font-size="13" lengthAdjust="spacing" textLength="42" x="1656.25" y="565.7669">applies</text><text fill="#000000" font-family="sans-serif" font-size="13" lengthAdjust="spacing" textLength="7" x="1685.3211" y="464.2271">1</text><text fill="#000000" font-family="sans-serif" font-size="13" lengthAdjust="spacing" textLength="7" x="1622.4416" y="607.5237">*</text></g><!--reverse link TravelAlternative to TravelSegment--><g id="link_TravelAlternative_TravelSegment"><path codeLine="160" d="M1973,706.7599 C1973,738.2599 1973,763.1799 1973,794.6699 " fill="none" id="TravelAlternative-backto-TravelSegment" style="stroke:#181818;stroke-width:1.0;"/><polygon fill="#181818" points="1973,694.7599,1969,700.7599,1973,706.7599,1977,700.7599,1973,694.7599" style="stroke:#181818;stroke-width:1.0;"/><text fill="#000000" font-family="sans-serif" font-size="13" lengthAdjust="spacing" textLength="62" x="1910" y="740.6169">consistsOf</text><text fill="#000000" font-family="sans-serif" font-size="13" lengthAdjust="spacing" textLength="7" x="1965.6391" y="716.9351">1</text><text fill="#000000" font-family="sans-serif" font-size="13" lengthAdjust="spacing" textLength="7" x="1965.6172" y="782.837">*</text></g><!--link TravelSegment to Stop--><g id="link_TravelSegment_Stop"><path codeLine="161" d="M1840.49,918.6699 C1534.66,918.6699 805.5,918.6699 805.5,918.6699 C805.5,918.6699 805.5,979.2399 805.5,1031.6299 " fill="none" id="TravelSegment-to-Stop" style="stroke:#181818;stroke-width:1.0;"/><polygon fill="#181818" points="805.5,1037.6299,809.5,1028.6299,805.5,1032.6299,801.5,1028.6299,805.5,1037.6299" style="stroke:#181818;stroke-width:1.0;"/><text fill="#000000" font-family="sans-serif" font-size="13" lengthAdjust="spacing" textLength="47" x="1215.51" y="914.5669">startsAt</text><text fill="#000000" font-family="sans-serif" font-size="13" lengthAdjust="spacing" textLength="7" x="1825.6269" y="918.1213">*</text><text fill="#000000" font-family="sans-serif" font-size="13" lengthAdjust="spacing" textLength="7" x="812.6375" y="1025.9563">1</text></g><!--link TravelSegment to Stop--><g id="link_TravelSegment_Stop"><path codeLine="162" d="M1840.27,928.6699 C1539.2,928.6699 830.5,928.6699 830.5,928.6699 C830.5,928.6699 830.5,982.5599 830.5,1031.4499 " fill="none" id="TravelSegment-to-Stop-1" style="stroke:#181818;stroke-width:1.0;"/><polygon fill="#181818" points="830.5,1037.4499,834.5,1028.4499,830.5,1032.4499,826.5,1028.4499,830.5,1037.4499" style="stroke:#181818;stroke-width:1.0;"/><text fill="#000000" font-family="sans-serif" font-size="13" lengthAdjust="spacing" textLength="42" x="1237.99" y="943.5669">endsAt</text><text fill="#000000" font-family="sans-serif" font-size="13" lengthAdjust="spacing" textLength="7" x="1825.3942" y="946.6822">*</text><text fill="#000000" font-family="sans-serif" font-size="13" lengthAdjust="spacing" textLength="7" x="840.6844" y="1025.7544">1</text></g><!--reverse link ExternalTransportationSystem to Vehicle--><g id="link_ExternalTransportationSystem_Vehicle"><path codeLine="165" d="M880,668.6999 C880,712.0599 880,775.6199 880,823.1599 " fill="none" id="ExternalTransportationSystem-backto-Vehicle" style="stroke:#181818;stroke-width:1.0;"/><polygon fill="#181818" points="880,656.6999,876,662.6999,880,668.6999,884,662.6999,880,656.6999" style="stroke:#181818;stroke-width:1.0;"/><text fill="#000000" font-family="sans-serif" font-size="13" lengthAdjust="spacing" textLength="53" x="826" y="735.8269">operates</text><text fill="#000000" font-family="sans-serif" font-size="13" lengthAdjust="spacing" textLength="7" x="862.9922" y="678.6697">1</text><text fill="#000000" font-family="sans-serif" font-size="13" lengthAdjust="spacing" textLength="7" x="877.2109" y="811.2526">*</text></g><!--reverse link ExternalTransportationSystem to VehicleLocationUpdate--><g id="link_ExternalTransportationSystem_VehicleLocationUpdate"><path codeLine="166" d="M997.5,668.6799 C997.5,753.0899 997.5,962.4599 997.5,1056.4599 " fill="none" id="ExternalTransportationSystem-backto-VehicleLocationUpdate" style="stroke:#181818;stroke-width:1.0;"/><polygon fill="none" points="997.5,656.6799,993.5,662.6799,997.5,668.6799,1001.5,662.6799,997.5,656.6799" style="stroke:#181818;stroke-width:1.0;"/><text fill="#000000" font-family="sans-serif" font-size="13" lengthAdjust="spacing" textLength="52" x="998.5" y="852.4669">provides</text><text fill="#000000" font-family="sans-serif" font-size="13" lengthAdjust="spacing" textLength="7" x="1002.8906" y="678.6459">1</text><text fill="#000000" font-family="sans-serif" font-size="13" lengthAdjust="spacing" textLength="7" x="984.5375" y="1044.8397">*</text></g><!--reverse link Vehicle to Stop--><g id="link_Vehicle_Stop"><path codeLine="167" d="M780.5,921.2699 C780.5,957.2399 780.5,996.9899 780.5,1037.4599 " fill="none" id="Vehicle-backto-Stop" style="stroke:#181818;stroke-width:1.0;"/><polygon fill="none" points="780.5,909.2699,776.5,915.2699,780.5,921.2699,784.5,915.2699,780.5,909.2699" style="stroke:#181818;stroke-width:1.0;"/><text fill="#000000" font-family="sans-serif" font-size="13" lengthAdjust="spacing" textLength="38" x="741.5" y="969.2569">serves</text><text fill="#000000" font-family="sans-serif" font-size="13" lengthAdjust="spacing" textLength="7" x="762.0156" y="931.1118">*</text><text fill="#000000" font-family="sans-serif" font-size="13" lengthAdjust="spacing" textLength="7" x="784.5906" y="1025.7656">*</text></g><!--reverse link Vehicle to VehicleLocationUpdate--><g id="link_Vehicle_VehicleLocationUpdate"><path codeLine="168" d="M942.25,921.2699 C942.25,963.1699 942.25,1014.4699 942.25,1056.4299 " fill="none" id="Vehicle-backto-VehicleLocationUpdate" style="stroke:#181818;stroke-width:1.0;"/><polygon fill="none" points="942.25,909.2699,938.25,915.2699,942.25,921.2699,946.25,915.2699,942.25,909.2699" style="stroke:#181818;stroke-width:1.0;"/><text fill="#000000" font-family="sans-serif" font-size="13" lengthAdjust="spacing" textLength="60" x="881.25" y="978.7469">trackedBy</text><text fill="#000000" font-family="sans-serif" font-size="13" lengthAdjust="spacing" textLength="7" x="948.5336" y="931.1118">1</text><text fill="#000000" font-family="sans-serif" font-size="13" lengthAdjust="spacing" textLength="7" x="921.2773" y="1045.4479">*</text></g><!--link VehicleLocationUpdate to TravelAlternative--><g id="link_VehicleLocationUpdate_TravelAlternative"><path codeLine="169" d="M1085,1056.2899 C1085,948.2199 1085,675.6699 1085,675.6699 C1085,675.6699 1614.91,675.6699 1854.08,675.6699 " fill="none" id="VehicleLocationUpdate-to-TravelAlternative" style="stroke:#181818;stroke-width:1.0;"/><polygon fill="#181818" points="1860.08,675.6699,1851.08,671.6699,1855.08,675.6699,1851.08,679.6699,1860.08,675.6699" style="stroke:#181818;stroke-width:1.0;"/><text fill="#000000" font-family="sans-serif" font-size="13" lengthAdjust="spacing" textLength="80" x="1201.23" y="671.5669">affectsTiming</text><text fill="#000000" font-family="sans-serif" font-size="13" lengthAdjust="spacing" textLength="7" x="1086.2078" y="1044.964">1</text><text fill="#000000" font-family="sans-serif" font-size="13" lengthAdjust="spacing" textLength="7" x="1845.6218" y="675.3974">*</text></g><!--reverse link LightSpeedPlatform to Traveler--><g id="link_LightSpeedPlatform_Traveler"><path codeLine="172" d="M2660.25,137.6699 C2380.33,137.6699 1477.82,137.6699 1108.65,137.6699 " fill="none" id="LightSpeedPlatform-backto-Traveler" style="stroke:#181818;stroke-width:1.0;"/><polygon fill="none" points="2672.25,137.6699,2666.25,133.6699,2660.25,137.6699,2666.25,141.6699,2672.25,137.6699" style="stroke:#181818;stroke-width:1.0;"/><text fill="#000000" font-family="sans-serif" font-size="13" lengthAdjust="spacing" textLength="54" x="1835.45" y="133.5669">supports</text><text fill="#000000" font-family="sans-serif" font-size="13" lengthAdjust="spacing" textLength="7" x="2657.5684" y="131.3415">1</text><text fill="#000000" font-family="sans-serif" font-size="13" lengthAdjust="spacing" textLength="7" x="1116.4073" y="132.8111">*</text></g><!--reverse link LightSpeedPlatform to TravelSearch--><g id="link_LightSpeedPlatform_TravelSearch"><path codeLine="173" d="M2660.3,151.6699 C2424.08,151.6699 1775.17,151.6699 1775.17,151.6699 C1775.17,151.6699 1775.17,285.1499 1775.17,356.0599 " fill="none" id="LightSpeedPlatform-backto-TravelSearch" style="stroke:#181818;stroke-width:1.0;"/><polygon fill="none" points="2672.3,151.6699,2666.3,147.6699,2660.3,151.6699,2666.3,155.6699,2672.3,151.6699" style="stroke:#181818;stroke-width:1.0;"/><text fill="#000000" font-family="sans-serif" font-size="13" lengthAdjust="spacing" textLength="86" x="2034.54" y="147.5669">enablesSearch</text><text fill="#000000" font-family="sans-serif" font-size="13" lengthAdjust="spacing" textLength="7" x="2657.6228" y="165.1025">1</text><text fill="#000000" font-family="sans-serif" font-size="13" lengthAdjust="spacing" textLength="7" x="1773.2497" y="344.4562">*</text></g><!--reverse link LightSpeedPlatform to TravelAlternative--><g id="link_LightSpeedPlatform_TravelAlternative"><path codeLine="174" d="M2660.48,165.6699 C2466.64,165.6699 2010.5,165.6699 2010.5,165.6699 C2010.5,165.6699 2010.5,422.6799 2010.5,551.4299 " fill="none" id="LightSpeedPlatform-backto-TravelAlternative" style="stroke:#181818;stroke-width:1.0;"/><polygon fill="none" points="2672.48,165.6699,2666.48,161.6699,2660.48,165.6699,2666.48,169.6699,2672.48,165.6699" style="stroke:#181818;stroke-width:1.0;"/><text fill="#000000" font-family="sans-serif" font-size="13" lengthAdjust="spacing" textLength="126" x="2021.61" y="180.5669">managesAlternatives</text><text fill="#000000" font-family="sans-serif" font-size="13" lengthAdjust="spacing" textLength="7" x="2657.55" y="180.3768">1</text><text fill="#000000" font-family="sans-serif" font-size="13" lengthAdjust="spacing" textLength="7" x="2007.0063" y="540.0711">*</text></g><!--reverse link LightSpeedPlatform to VehicleLocationUpdate--><g id="link_LightSpeedPlatform_VehicleLocationUpdate"><path codeLine="175" d="M2660.33,194.6699 C2580.36,194.6699 2483.17,194.6699 2483.17,194.6699 C2483.17,194.6699 2483.17,1099.6699 2483.17,1099.6699 C2483.17,1099.6699 1446.24,1099.6699 1124.23,1099.6699 " fill="none" id="LightSpeedPlatform-backto-VehicleLocationUpdate" style="stroke:#181818;stroke-width:1.0;"/><polygon fill="none" points="2672.33,194.6699,2666.33,190.6699,2660.33,194.6699,2666.33,198.6699,2672.33,194.6699" style="stroke:#181818;stroke-width:1.0;"/><text fill="#000000" font-family="sans-serif" font-size="13" lengthAdjust="spacing" textLength="110" x="2239.78" y="1095.5669">processesUpdates</text><text fill="#000000" font-family="sans-serif" font-size="13" lengthAdjust="spacing" textLength="7" x="2657.3862" y="212.0502">1</text><text fill="#000000" font-family="sans-serif" font-size="13" lengthAdjust="spacing" textLength="7" x="1132.0179" y="1095.9123">*</text></g><!--reverse link LightSpeedPlatform to Stop--><g id="link_LightSpeedPlatform_Stop"><path codeLine="176" d="M2660.38,180.6699 C2527.81,180.6699 2294.33,180.6699 2294.33,180.6699 C2294.33,180.6699 2294.33,1047.6699 2294.33,1047.6699 C2294.33,1047.6699 1269.27,1047.6699 855.84,1047.6699 " fill="none" id="LightSpeedPlatform-backto-Stop" style="stroke:#181818;stroke-width:1.0;"/><polygon fill="none" points="2672.38,180.6699,2666.38,176.6699,2660.38,180.6699,2666.38,184.6699,2672.38,180.6699" style="stroke:#181818;stroke-width:1.0;"/><text fill="#000000" font-family="sans-serif" font-size="13" lengthAdjust="spacing" textLength="93" x="2103.61" y="1043.5669">maintainsStops</text><text fill="#000000" font-family="sans-serif" font-size="13" lengthAdjust="spacing" textLength="7" x="2657.4408" y="196.7596">1</text><text fill="#000000" font-family="sans-serif" font-size="13" lengthAdjust="spacing" textLength="7" x="863.6945" y="1041.8353">*</text></g><!--reverse link LightSpeedPlatform to SeasonalTrendReport--><g id="link_LightSpeedPlatform_SeasonalTrendReport"><path codeLine="177" d="M2755,220.7699 C2755,262.6699 2755,313.9699 2755,355.9299 " fill="none" id="LightSpeedPlatform-backto-SeasonalTrendReport" style="stroke:#181818;stroke-width:1.0;"/><polygon fill="none" points="2755,208.7699,2751,214.7699,2755,220.7699,2759,214.7699,2755,208.7699" style="stroke:#181818;stroke-width:1.0;"/><text fill="#000000" font-family="sans-serif" font-size="13" lengthAdjust="spacing" textLength="107" x="2647" y="278.2469">generatesReports</text><text fill="#000000" font-family="sans-serif" font-size="13" lengthAdjust="spacing" textLength="7" x="2747.4641" y="230.6118">1</text><text fill="#000000" font-family="sans-serif" font-size="13" lengthAdjust="spacing" textLength="7" x="2745.4328" y="344.3047">*</text></g><!--link DataAnalyst to LightSpeedPlatform--><g id="link_DataAnalyst_LightSpeedPlatform"><path codeLine="180" d="M2941.95,154.6699 C2910.97,154.6699 2871.9,154.6699 2837.5,154.6699 " fill="none" id="DataAnalyst-LightSpeedPlatform" style="stroke:#181818;stroke-width:1.0;"/><text fill="#000000" font-family="sans-serif" font-size="13" lengthAdjust="spacing" textLength="79" x="2850.22" y="169.5669">usesPlatform</text><text fill="#000000" font-family="sans-serif" font-size="13" lengthAdjust="spacing" textLength="7" x="2926.948" y="148.9895">1</text><text fill="#000000" font-family="sans-serif" font-size="13" lengthAdjust="spacing" textLength="7" x="2845.4281" y="149.7955">1</text></g><!--reverse link DataAnalyst to SeasonalTrendReport--><g id="link_DataAnalyst_SeasonalTrendReport"><path codeLine="181" d="M2929.95,177.6699 C2887.97,177.6699 2849.75,177.6699 2849.75,177.6699 C2849.75,177.6699 2849.75,291.4799 2849.75,355.9399 " fill="none" id="DataAnalyst-backto-SeasonalTrendReport" style="stroke:#181818;stroke-width:1.0;"/><polygon fill="none" points="2941.95,177.6699,2935.95,173.6699,2929.95,177.6699,2935.95,181.6699,2941.95,177.6699" style="stroke:#181818;stroke-width:1.0;"/><text fill="#000000" font-family="sans-serif" font-size="13" lengthAdjust="spacing" textLength="98" x="2850.75" y="216.5969">analyzesReports</text><text fill="#000000" font-family="sans-serif" font-size="13" lengthAdjust="spacing" textLength="7" x="2926.948" y="175.0801">1</text><text fill="#000000" font-family="sans-serif" font-size="13" lengthAdjust="spacing" textLength="7" x="2855.8758" y="344.3163">*</text></g><!--SRC=[hLTRRzis57xNho2oXsuP3AGOEcH64q29vSwOqmIMqsAFj7Gi4v58ZQISEcl_-mv9IQOisSd37WABFBVlt1dDT0vaphADZak0b4n4GHadToA5F0ZK4-CbbRGWIKwL2hMMR5Lfc2M2n-m5o8N7KjBaYMOGwnsgJ9XCSl2eEUEWToKG8VL6U0IEfXIKvDBN9Ib_CfVlBow2uDtLrHLvSDeLUMPwGmhAAvgJ5LvcKbGy9Od8XLG4MOEWHaBE8buL8AbcWgipyjFqZ-Wc2ic_0I605Elb_NefwHPoUql8D8oNzkFspoXyi5-V5b7q6Rz-18qSId1LeYDMyz9uvQHl7cFxkro4T_RZBbekxfs-SE5OPhT_tyuZ-_qrdF_LKHm3bSbcoGhmb4wYXt2nV5mucN2nc7q9vrRiX-Vgem99vdG7qZWwdNwulRNoDd74-OWSJkMlXDC2o9Z4c52UrNVF6u0ysL0cmoG1fTWgXtkUxv3lHeWSAAyPImbha19I4q25v3bJ-cC_AjUDSmw4WHY3rcXHjK0wkb2LdvD3bjQ2KVwgNJywBh24Og4urHYaw78IHjDUa6hM1f-r3Jm1anKqEQ7QVjPatUHgV92yhkjETPXha1nXRg7LhuMc-QHoHOfQVDs6T2kKDcOXOGNDEnGgLu971SDCMT4kJmhOIhgIHu1JATcMvdrY3tKCMG5SjuWL_5EPWDpB50jgJ6PSGmQoWTPaeyvdFpiDla6Vao5tOSX7YvEk51fCT0ru8N0uJPa9SmjtROzDZffwzxpy906u4shlcWPWETEx0rgd2ckQNsiBmCdqLSWy9H7NJ3CmisVoOVeX-ishjbYBycGxvXWUNTaWJaI5lTZS2vuD4dGlr6_lpRb8N3R-DqIUyY-mORWDMjrRT_vS5IjRGHqZscLgi6xwEXlSZsMA9RplAgmefMbHzWiV5nlTpNWCkCDIrQbVJttqpRPgteKHxvI6ucYCkZFd0SEr5XBN3ELuONh8rC7lKJYzzEfWltnRWNOsrXUpz318VSlxkWAgX4KEF5s0mUwrhg4TAakX49ca9GPqnjVYk4SXgjrfbjXT6avk9huV66Pg6PG-4Q2M_G6aXHcRo2gZj9NAW9kb3MceZuwcPkmDY2TsBiOukjB-mAXZL69i459S5GMLk-umDiJ-32f1Cf6YETc0wX0YdkwlRTJigmLr9OpcxCMzGUppn1zI7x-FHfq1r2CEJQ8Uqz18ilDbDFf-tVPsC11pAzuFvb7MWyZLRYuWhntyELHAeClkPFPjc6KICdVnYtkVlHkX9ljWKGo71fw2ze5ozlwCd2FP_7OU36FS3NpDCjnegiik3FlvMNT_ZmdZE7in8IUv_PKynlx88T5710P2CYPR1iy-__cUtoPWJ5Q2oXIVphNRDRm3n-lRrlaZ-4efIg5QZpofMiYlZ36XPPdZzgajr-zSJwCwXE5RwsDf7W8s4mf3eExNGPTac4UZQojS-wzConZ_N-N4ojh7gPxlheQybMh0dXpEFkvcyOo9AEr8KQ_BYgximOAnETXYr5JGA1_8ETRjrkTuWrhpZ7c2z6ON37Eu95yVBGswNflInKbfHgsBORjGsZGFB9j-JzZQKLLfegFU9j8s7N2Awr-vyzjaktuKTbaglqfVKtCYKsPsWd8th-gfasV-0TRufypvTQ61TJjkLvXoDqqBjWjqdn5_RJQDZ3y3LiUaGb-QOq_mD21gE5_sUFu3]--></g></svg>