<svg xmlns="http://www.w3.org/2000/svg" xmlns:xlink="http://www.w3.org/1999/xlink" contentStyleType="text/css" data-diagram-type="ACTIVITY" height="657px" preserveAspectRatio="none" style="width:516px;height:657px;background:#FFFFFF;" version="1.1" viewBox="0 0 516 657" width="516px" zoomAndPan="magnify"><title>Checking travelling statistics</title><defs/><g><g class="title" data-source-line="1"><text fill="#000000" font-family="sans-serif" font-size="14" font-weight="bold" lengthAdjust="spacing" textLength="230.3506" x="141.4849" y="32.9951">Checking travelling statistics</text></g><path d="M276.8311,47.2969 L276.8311,78.5625 L256.8311,82.5625 L276.8311,86.5625 L276.8311,117.8281 A0,0 0 0 0 276.8311,117.8281 L504.3203,117.8281 A0,0 0 0 0 504.3203,117.8281 L504.3203,57.2969 L494.3203,47.2969 L276.8311,47.2969 A0,0 0 0 0 276.8311,47.2969" fill="#FEFFDD" style="stroke:#181818;stroke-width:0.5;"/><path d="M494.3203,47.2969 L494.3203,57.2969 L504.3203,57.2969 L494.3203,47.2969" fill="#FEFFDD" style="stroke:#181818;stroke-width:0.5;"/><text fill="#000000" font-family="sans-serif" font-size="13" lengthAdjust="spacing" textLength="97.1318" x="282.8311" y="64.3638">Pre-conditions:</text><text fill="#000000" font-family="sans-serif" font-size="13" lengthAdjust="spacing" textLength="72.7568" x="282.8311" y="79.4966">- Logged in</text><text fill="#000000" font-family="sans-serif" font-size="13" lengthAdjust="spacing" textLength="198.2246" x="282.8311" y="94.6294">- On default search homepage</text><text fill="#000000" font-family="sans-serif" font-size="13" lengthAdjust="spacing" textLength="171.209" x="282.8311" y="109.7622">- Wants to check statistics</text><ellipse cx="246.8311" cy="82.5625" fill="#222222" rx="10" ry="10" style="stroke:#222222;stroke-width:1;"/><rect fill="none" height="297.1719" style="stroke:#000000;stroke-width:1.5;" width="291.1211" x="101.2705" y="127.8281"/><text fill="#000000" font-family="sans-serif" font-size="14" lengthAdjust="spacing" textLength="161.1914" x="166.2354" y="142.8232">Navigating to statistics</text><rect fill="#F1F1F1" height="33.9688" rx="12.5" ry="12.5" style="stroke:#181818;stroke-width:0.5;" width="94.4844" x="199.5889" y="164.125"/><text fill="#000000" font-family="sans-serif" font-size="12" lengthAdjust="spacing" textLength="74.4844" x="209.5889" y="185.2637">Go to profile</text><rect fill="#F1F1F1" height="33.9688" rx="12.5" ry="12.5" style="stroke:#181818;stroke-width:0.5;" width="271.1211" x="111.2705" y="233.0938"/><text fill="#000000" font-family="sans-serif" font-size="12" lengthAdjust="spacing" textLength="251.1211" x="121.2705" y="254.2324">System displays profile options dropdown</text><rect fill="#F1F1F1" height="33.9688" rx="12.5" ry="12.5" style="stroke:#181818;stroke-width:0.5;" width="133.2969" x="180.1826" y="302.0625"/><text fill="#000000" font-family="sans-serif" font-size="12" lengthAdjust="spacing" textLength="113.2969" x="190.1826" y="323.2012">Go to statistics tab</text><rect fill="#F1F1F1" height="33.9688" rx="12.5" ry="12.5" style="stroke:#181818;stroke-width:0.5;" width="198.2188" x="147.7217" y="371.0313"/><text fill="#000000" font-family="sans-serif" font-size="12" lengthAdjust="spacing" textLength="178.2188" x="157.7217" y="392.1699">System displays statistics tab</text><rect fill="none" height="159.2344" style="stroke:#000000;stroke-width:1.5;" width="241.457" x="126.1025" y="435"/><text fill="#000000" font-family="sans-serif" font-size="14" lengthAdjust="spacing" textLength="91.4033" x="201.1294" y="449.9951">Statistics tab</text><rect fill="#F1F1F1" height="33.9688" rx="12.5" ry="12.5" style="stroke:#181818;stroke-width:0.5;" width="162.6582" x="165.502" y="471.2969"/><text fill="#000000" font-family="sans-serif" font-size="12" lengthAdjust="spacing" textLength="142.6582" x="175.502" y="492.4355">Select desired statistics</text><rect fill="#F1F1F1" height="33.9688" rx="12.5" ry="12.5" style="stroke:#181818;stroke-width:0.5;" width="221.457" x="136.1025" y="540.2656"/><text fill="#000000" font-family="sans-serif" font-size="12" lengthAdjust="spacing" textLength="201.457" x="146.1025" y="561.4043">System displays filtered statistics</text><path d="M10,605.1016 L10,645.3672 A0,0 0 0 0 10,645.3672 L215.8311,645.3672 A0,0 0 0 0 215.8311,645.3672 L215.8311,629.2344 L235.8311,625.2344 L215.8311,621.2344 L215.8311,615.1016 L205.8311,605.1016 L10,605.1016 A0,0 0 0 0 10,605.1016" fill="#FEFFDD" style="stroke:#181818;stroke-width:0.5;"/><path d="M205.8311,605.1016 L205.8311,615.1016 L215.8311,615.1016 L205.8311,605.1016" fill="#FEFFDD" style="stroke:#181818;stroke-width:0.5;"/><text fill="#000000" font-family="sans-serif" font-size="13" lengthAdjust="spacing" textLength="96.8398" x="16" y="622.1685">Post-condition:</text><text fill="#000000" font-family="sans-serif" font-size="13" lengthAdjust="spacing" textLength="184.8311" x="16" y="637.3013">- User sees filtered statistics</text><ellipse cx="246.8311" cy="625.2344" fill="none" rx="11" ry="11" style="stroke:#222222;stroke-width:1;"/><ellipse cx="246.8311" cy="625.2344" fill="#222222" rx="6" ry="6" style="stroke:#222222;stroke-width:1;"/><line style="stroke:#181818;stroke-width:1;" x1="246.8311" x2="246.8311" y1="198.0938" y2="233.0938"/><polygon fill="#181818" points="242.8311,223.0938,246.8311,233.0938,250.8311,223.0938,246.8311,227.0938" style="stroke:#181818;stroke-width:1;"/><line style="stroke:#181818;stroke-width:1;" x1="246.8311" x2="246.8311" y1="267.0625" y2="302.0625"/><polygon fill="#181818" points="242.8311,292.0625,246.8311,302.0625,250.8311,292.0625,246.8311,296.0625" style="stroke:#181818;stroke-width:1;"/><line style="stroke:#181818;stroke-width:1;" x1="246.8311" x2="246.8311" y1="336.0313" y2="371.0313"/><polygon fill="#181818" points="242.8311,361.0313,246.8311,371.0313,250.8311,361.0313,246.8311,365.0313" style="stroke:#181818;stroke-width:1;"/><line style="stroke:#181818;stroke-width:1;" x1="246.8311" x2="246.8311" y1="92.5625" y2="164.125"/><polygon fill="#181818" points="242.8311,154.125,246.8311,164.125,250.8311,154.125,246.8311,158.125" style="stroke:#181818;stroke-width:1;"/><line style="stroke:#181818;stroke-width:1;" x1="246.8311" x2="246.8311" y1="505.2656" y2="540.2656"/><polygon fill="#181818" points="242.8311,530.2656,246.8311,540.2656,250.8311,530.2656,246.8311,534.2656" style="stroke:#181818;stroke-width:1;"/><line style="stroke:#181818;stroke-width:1;" x1="246.8311" x2="246.8311" y1="405" y2="471.2969"/><polygon fill="#181818" points="242.8311,461.2969,246.8311,471.2969,250.8311,461.2969,246.8311,465.2969" style="stroke:#181818;stroke-width:1;"/><line style="stroke:#181818;stroke-width:1;" x1="246.8311" x2="246.8311" y1="574.2344" y2="614.2344"/><polygon fill="#181818" points="242.8311,604.2344,246.8311,614.2344,250.8311,604.2344,246.8311,608.2344" style="stroke:#181818;stroke-width:1;"/><!--SRC=[RL51JWCn3BplAwpU-u7so84B0gGLuXmIRzOYZQFOBQeGVyVP5dPRxSsn9pEZ6ILD20yZ-a_A4RIw4wRKHb6d94fUEXkhTfaLeL8SjGDuhRZrd0CfSPQTRRRmn35Y0Ce0q_ibGy317PE2eAj-X94FM5p4A-3TPHLG1j_q5ufsnnoWANPTHQykHxEvUNOdYWPgJdc1ty2t4UuUkQrBvO4IxjkcFulY0G99IUuiVpVWClc6KBa4_ihx-Vl2XRgFLPPxoC-DoVxcUhNMOpA4vI5KBQEPOLN0F2hUuqn5bCkbXuJ3L0EBpZrSQdWJh1OuhjByv_eB]--></g></svg>