<svg xmlns="http://www.w3.org/2000/svg" xmlns:xlink="http://www.w3.org/1999/xlink" contentStyleType="text/css" data-diagram-type="ACTIVITY" height="2017px" preserveAspectRatio="none" style="width:687px;height:2017px;background:#FFFFFF;" version="1.1" viewBox="0 0 687 2017" width="687px" zoomAndPan="magnify"><title>Searching a route to selected destination</title><defs/><g><text fill="#000000" font-family="sans-serif" font-size="14" font-weight="bold" lengthAdjust="spacing" textLength="328.248" x="178.3007" y="32.9951">Searching a route to selected destination</text><path d="M432.9009,47.2969 L432.9009,78.5625 L412.9009,82.5625 L432.9009,86.5625 L432.9009,117.8281 A0,0 0 0 0 432.9009,117.8281 L660.3901,117.8281 A0,0 0 0 0 660.3901,117.8281 L660.3901,57.2969 L650.3901,47.2969 L432.9009,47.2969 A0,0 0 0 0 432.9009,47.2969 " fill="#FEFFDD" style="stroke:#181818;stroke-width:0.5;"/><path d="M650.3901,47.2969 L650.3901,57.2969 L660.3901,57.2969 L650.3901,47.2969 " fill="#FEFFDD" style="stroke:#181818;stroke-width:0.5;"/><text fill="#000000" font-family="sans-serif" font-size="13" lengthAdjust="spacing" textLength="97.1318" x="438.9009" y="64.3638">Pre-conditions:</text><text fill="#000000" font-family="sans-serif" font-size="13" lengthAdjust="spacing" textLength="72.7568" x="438.9009" y="79.4966">- Logged in</text><text fill="#000000" font-family="sans-serif" font-size="13" lengthAdjust="spacing" textLength="198.2246" x="438.9009" y="94.6294">- On default search homepage</text><text fill="#000000" font-family="sans-serif" font-size="13" lengthAdjust="spacing" textLength="180.2798" x="438.9009" y="109.7622">- Knows desired destination</text><ellipse cx="402.9009" cy="82.5625" fill="#222222" rx="10" ry="10" style="stroke:#222222;stroke-width:1;"/><rect fill="transparent" height="361.1719" style="stroke:#000000;stroke-width:1.5;" width="538.7207" x="131.0459" y="127.8281"/><text fill="#000000" font-family="sans-serif" font-size="14" lengthAdjust="spacing" textLength="163.3789" x="318.7168" y="142.8232">Starting point selection</text><rect fill="#F1F1F1" height="33.9688" rx="12.5" ry="12.5" style="stroke:#181818;stroke-width:0.5;" width="203.5918" x="301.105" y="164.125"/><text fill="#000000" font-family="sans-serif" font-size="12" lengthAdjust="spacing" textLength="183.5918" x="311.105" y="185.2637">Prompt to select starting point</text><polygon fill="#F1F1F1" points="308.5791,233.0938,497.2227,233.0938,509.2227,245.0938,497.2227,257.0938,308.5791,257.0938,296.5791,245.0938,308.5791,233.0938" style="stroke:#181818;stroke-width:0.5;"/><text fill="#000000" font-family="sans-serif" font-size="11" lengthAdjust="spacing" textLength="188.6436" x="308.5791" y="248.9019">Select &#8220;Current location&#8221; as start?</text><text fill="#000000" font-family="sans-serif" font-size="11" lengthAdjust="spacing" textLength="19.0083" x="277.5708" y="242.4995">yes</text><text fill="#000000" font-family="sans-serif" font-size="11" lengthAdjust="spacing" textLength="13.7017" x="509.2227" y="242.4995">no</text><rect fill="#F1F1F1" height="33.9688" rx="12.5" ry="12.5" style="stroke:#181818;stroke-width:0.5;" width="244.3496" x="151.0459" y="267.0938"/><text fill="#000000" font-family="sans-serif" font-size="12" lengthAdjust="spacing" textLength="224.3496" x="161.0459" y="288.2324">Acquire GPS and set as starting point</text><rect fill="#F1F1F1" height="33.9688" rx="12.5" ry="12.5" style="stroke:#181818;stroke-width:0.5;" width="136.9473" x="464.1074" y="267.0938"/><text fill="#000000" font-family="sans-serif" font-size="12" lengthAdjust="spacing" textLength="116.9473" x="474.1074" y="288.2324">Enter starting point</text><rect fill="#F1F1F1" height="33.9688" rx="12.5" ry="12.5" style="stroke:#181818;stroke-width:0.5;" width="234.3711" x="415.3955" y="336.0625"/><text fill="#000000" font-family="sans-serif" font-size="12" lengthAdjust="spacing" textLength="214.3711" x="425.3955" y="357.2012">Show matching start points on map</text><rect fill="#F1F1F1" height="33.9688" rx="12.5" ry="12.5" style="stroke:#181818;stroke-width:0.5;" width="152.9258" x="456.1182" y="405.0313"/><text fill="#000000" font-family="sans-serif" font-size="12" lengthAdjust="spacing" textLength="132.9258" x="466.1182" y="426.1699">Select a starting point</text><polygon fill="#F1F1F1" points="402.9009,445,414.9009,457,402.9009,469,390.9009,457,402.9009,445" style="stroke:#181818;stroke-width:0.5;"/><rect fill="transparent" height="361.1719" style="stroke:#000000;stroke-width:1.5;" width="543.6079" x="133.2415" y="499"/><text fill="#000000" font-family="sans-serif" font-size="14" lengthAdjust="spacing" textLength="147.7109" x="331.1899" y="513.9951">Destination selection</text><rect fill="#F1F1F1" height="33.9688" rx="12.5" ry="12.5" style="stroke:#181818;stroke-width:0.5;" width="189.9043" x="307.9487" y="535.2969"/><text fill="#000000" font-family="sans-serif" font-size="12" lengthAdjust="spacing" textLength="169.9043" x="317.9487" y="556.4355">Prompt to select destination</text><polygon fill="#F1F1F1" points="290.5725,604.2656,515.2292,604.2656,527.2292,616.2656,515.2292,628.2656,290.5725,628.2656,278.5725,616.2656,290.5725,604.2656" style="stroke:#181818;stroke-width:0.5;"/><text fill="#000000" font-family="sans-serif" font-size="11" lengthAdjust="spacing" textLength="224.6567" x="290.5725" y="620.0737">Select &#8220;Current location&#8221; as destination?</text><text fill="#000000" font-family="sans-serif" font-size="11" lengthAdjust="spacing" textLength="19.0083" x="259.5642" y="613.6714">yes</text><text fill="#000000" font-family="sans-serif" font-size="11" lengthAdjust="spacing" textLength="13.7017" x="527.2292" y="613.6714">no</text><rect fill="#F1F1F1" height="33.9688" rx="12.5" ry="12.5" style="stroke:#181818;stroke-width:0.5;" width="230.6621" x="153.2415" y="638.2656"/><text fill="#000000" font-family="sans-serif" font-size="12" lengthAdjust="spacing" textLength="210.6621" x="163.2415" y="659.4043">Acquire GPS and set as destination</text><rect fill="#F1F1F1" height="33.9688" rx="12.5" ry="12.5" style="stroke:#181818;stroke-width:0.5;" width="123.2598" x="475.5994" y="638.2656"/><text fill="#000000" font-family="sans-serif" font-size="12" lengthAdjust="spacing" textLength="103.2598" x="485.5994" y="659.4043">Enter destination</text><rect fill="#F1F1F1" height="33.9688" rx="12.5" ry="12.5" style="stroke:#181818;stroke-width:0.5;" width="239.2402" x="417.6091" y="707.2344"/><text fill="#000000" font-family="sans-serif" font-size="12" lengthAdjust="spacing" textLength="219.2402" x="427.6091" y="728.373">Show matching destinations on map</text><rect fill="#F1F1F1" height="33.9688" rx="12.5" ry="12.5" style="stroke:#181818;stroke-width:0.5;" width="139.2383" x="467.6101" y="776.2031"/><text fill="#000000" font-family="sans-serif" font-size="12" lengthAdjust="spacing" textLength="119.2383" x="477.6101" y="797.3418">Select a destination</text><polygon fill="#F1F1F1" points="402.9009,816.1719,414.9009,828.1719,402.9009,840.1719,390.9009,828.1719,402.9009,816.1719" style="stroke:#181818;stroke-width:0.5;"/><rect fill="transparent" height="1030.4844" style="stroke:#000000;stroke-width:1.5;" width="306.9082" x="249.4468" y="870.1719"/><text fill="#000000" font-family="sans-serif" font-size="14" lengthAdjust="spacing" textLength="92.5313" x="356.6353" y="885.167">Route search</text><rect fill="transparent" height="366.1406" style="stroke:#000000;stroke-width:1.5;" width="286.9082" x="259.4468" y="906.4688"/><text fill="#000000" font-family="sans-serif" font-size="14" lengthAdjust="spacing" textLength="129.3633" x="338.2192" y="921.4639">Route preferences</text><rect fill="#F1F1F1" height="33.9688" rx="12.5" ry="12.5" style="stroke:#181818;stroke-width:0.5;" width="170.082" x="317.8599" y="942.7656"/><text fill="#000000" font-family="sans-serif" font-size="12" lengthAdjust="spacing" textLength="150.082" x="327.8599" y="963.9043">Go to route options page</text><rect fill="#F1F1F1" height="33.9688" rx="12.5" ry="12.5" style="stroke:#181818;stroke-width:0.5;" width="171.1543" x="317.3237" y="1011.7344"/><text fill="#000000" font-family="sans-serif" font-size="12" lengthAdjust="spacing" textLength="151.1543" x="327.3237" y="1032.873">Select travel preferences</text><rect fill="#F1F1F1" height="33.9688" rx="12.5" ry="12.5" style="stroke:#181818;stroke-width:0.5;" width="184.6719" x="310.5649" y="1080.7031"/><text fill="#000000" font-family="sans-serif" font-size="12" lengthAdjust="spacing" textLength="164.6719" x="320.5649" y="1101.8418">System searches for routes</text><rect fill="#F1F1F1" height="33.9688" rx="12.5" ry="12.5" style="stroke:#181818;stroke-width:0.5;" width="266.9082" x="269.4468" y="1149.6719"/><text fill="#000000" font-family="sans-serif" font-size="12" lengthAdjust="spacing" textLength="246.9082" x="279.4468" y="1170.8105">Show connections filtered by arrival time</text><rect fill="#F1F1F1" height="33.9688" rx="12.5" ry="12.5" style="stroke:#181818;stroke-width:0.5;" width="153.0254" x="326.3882" y="1218.6406"/><text fill="#000000" font-family="sans-serif" font-size="12" lengthAdjust="spacing" textLength="133.0254" x="336.3882" y="1239.7793">Select preferred route</text><rect fill="transparent" height="573.0469" style="stroke:#000000;stroke-width:1.5;" width="223.6035" x="291.0991" y="1307.6094"/><text fill="#000000" font-family="sans-serif" font-size="14" lengthAdjust="spacing" textLength="61.9199" x="371.9409" y="1322.6045">Payment</text><rect fill="#F1F1F1" height="33.9688" rx="12.5" ry="12.5" style="stroke:#181818;stroke-width:0.5;" width="104.7559" x="350.5229" y="1343.9063"/><text fill="#000000" font-family="sans-serif" font-size="12" lengthAdjust="spacing" textLength="84.7559" x="360.5229" y="1365.0449">Calculate cost</text><rect fill="#F1F1F1" height="33.9688" rx="12.5" ry="12.5" style="stroke:#181818;stroke-width:0.5;" width="203.6035" x="301.0991" y="1412.875"/><text fill="#000000" font-family="sans-serif" font-size="12" lengthAdjust="spacing" textLength="183.6035" x="311.0991" y="1434.0137">Show payment options pop-up</text><rect fill="#F1F1F1" height="33.9688" rx="12.5" ry="12.5" style="stroke:#181818;stroke-width:0.5;" width="156.0488" x="324.8765" y="1481.8438"/><text fill="#000000" font-family="sans-serif" font-size="12" lengthAdjust="spacing" textLength="136.0488" x="334.8765" y="1502.9824">Select payment option</text><rect fill="#F1F1F1" height="33.9688" rx="12.5" ry="12.5" style="stroke:#181818;stroke-width:0.5;" width="143.5566" x="331.1226" y="1550.8125"/><text fill="#000000" font-family="sans-serif" font-size="12" lengthAdjust="spacing" textLength="123.5566" x="341.1226" y="1571.9512">Go to payment page</text><rect fill="#F1F1F1" height="33.9688" rx="12.5" ry="12.5" style="stroke:#181818;stroke-width:0.5;" width="140.3223" x="332.7397" y="1619.7813"/><text fill="#000000" font-family="sans-serif" font-size="12" lengthAdjust="spacing" textLength="120.3223" x="342.7397" y="1640.9199">Enter payment data</text><rect fill="#F1F1F1" height="33.9688" rx="12.5" ry="12.5" style="stroke:#181818;stroke-width:0.5;" width="74.0996" x="365.8511" y="1688.75"/><text fill="#000000" font-family="sans-serif" font-size="12" lengthAdjust="spacing" textLength="54.0996" x="375.8511" y="1709.8887">Click Pay</text><rect fill="#F1F1F1" height="33.9688" rx="12.5" ry="12.5" style="stroke:#181818;stroke-width:0.5;" width="180.2656" x="312.7681" y="1757.7188"/><text fill="#000000" font-family="sans-serif" font-size="12" lengthAdjust="spacing" textLength="160.2656" x="322.7681" y="1778.8574">System validates payment</text><rect fill="#F1F1F1" height="33.9688" rx="12.5" ry="12.5" style="stroke:#181818;stroke-width:0.5;" width="200.1758" x="302.813" y="1826.6875"/><text fill="#000000" font-family="sans-serif" font-size="12" lengthAdjust="spacing" textLength="180.1758" x="312.813" y="1847.8262">System processes transaction</text><rect fill="#F1F1F1" height="33.9688" rx="12.5" ry="12.5" style="stroke:#181818;stroke-width:0.5;" width="187.8477" x="308.9771" y="1920.6563"/><text fill="#000000" font-family="sans-serif" font-size="12" lengthAdjust="spacing" textLength="167.8477" x="318.9771" y="1941.7949">Go to Travel Overview page</text><path d="M10,1965.4922 L10,2005.7578 A0,0 0 0 0 10,2005.7578 L371.9009,2005.7578 A0,0 0 0 0 371.9009,2005.7578 L371.9009,1989.625 L391.9009,1985.625 L371.9009,1981.625 L371.9009,1975.4922 L361.9009,1965.4922 L10,1965.4922 A0,0 0 0 0 10,1965.4922 " fill="#FEFFDD" style="stroke:#181818;stroke-width:0.5;"/><path d="M361.9009,1965.4922 L361.9009,1975.4922 L371.9009,1975.4922 L361.9009,1965.4922 " fill="#FEFFDD" style="stroke:#181818;stroke-width:0.5;"/><text fill="#000000" font-family="sans-serif" font-size="13" lengthAdjust="spacing" textLength="96.8398" x="16" y="1982.5591">Post-condition:</text><text fill="#000000" font-family="sans-serif" font-size="13" lengthAdjust="spacing" textLength="340.9009" x="16" y="1997.6919">- User sees route overview on Travel Overview page</text><ellipse cx="402.9009" cy="1985.625" fill="transparent" rx="11" ry="11" style="stroke:#222222;stroke-width:1;"/><ellipse cx="402.9009" cy="1985.625" fill="#222222" rx="6" ry="6" style="stroke:#222222;stroke-width:1;"/><line style="stroke:#181818;stroke-width:1;" x1="532.5811" x2="532.5811" y1="301.0625" y2="336.0625"/><polygon fill="#181818" points="528.5811,326.0625,532.5811,336.0625,536.5811,326.0625,532.5811,330.0625" style="stroke:#181818;stroke-width:1;"/><line style="stroke:#181818;stroke-width:1;" x1="532.5811" x2="532.5811" y1="370.0313" y2="405.0313"/><polygon fill="#181818" points="528.5811,395.0313,532.5811,405.0313,536.5811,395.0313,532.5811,399.0313" style="stroke:#181818;stroke-width:1;"/><line style="stroke:#181818;stroke-width:1;" x1="296.5791" x2="273.2207" y1="245.0938" y2="245.0938"/><line style="stroke:#181818;stroke-width:1;" x1="273.2207" x2="273.2207" y1="245.0938" y2="267.0938"/><polygon fill="#181818" points="269.2207,257.0938,273.2207,267.0938,277.2207,257.0938,273.2207,261.0938" style="stroke:#181818;stroke-width:1;"/><line style="stroke:#181818;stroke-width:1;" x1="509.2227" x2="532.5811" y1="245.0938" y2="245.0938"/><line style="stroke:#181818;stroke-width:1;" x1="532.5811" x2="532.5811" y1="245.0938" y2="267.0938"/><polygon fill="#181818" points="528.5811,257.0938,532.5811,267.0938,536.5811,257.0938,532.5811,261.0938" style="stroke:#181818;stroke-width:1;"/><line style="stroke:#181818;stroke-width:1;" x1="273.2207" x2="273.2207" y1="301.0625" y2="457"/><line style="stroke:#181818;stroke-width:1;" x1="273.2207" x2="390.9009" y1="457" y2="457"/><polygon fill="#181818" points="380.9009,453,390.9009,457,380.9009,461,384.9009,457" style="stroke:#181818;stroke-width:1;"/><line style="stroke:#181818;stroke-width:1;" x1="532.5811" x2="532.5811" y1="439" y2="457"/><line style="stroke:#181818;stroke-width:1;" x1="532.5811" x2="414.9009" y1="457" y2="457"/><polygon fill="#181818" points="424.9009,453,414.9009,457,424.9009,461,420.9009,457" style="stroke:#181818;stroke-width:1;"/><line style="stroke:#181818;stroke-width:1;" x1="402.9009" x2="402.9009" y1="198.0938" y2="233.0938"/><polygon fill="#181818" points="398.9009,223.0938,402.9009,233.0938,406.9009,223.0938,402.9009,227.0938" style="stroke:#181818;stroke-width:1;"/><line style="stroke:#181818;stroke-width:1;" x1="402.9009" x2="402.9009" y1="92.5625" y2="164.125"/><polygon fill="#181818" points="398.9009,154.125,402.9009,164.125,406.9009,154.125,402.9009,158.125" style="stroke:#181818;stroke-width:1;"/><line style="stroke:#181818;stroke-width:1;" x1="537.2292" x2="537.2292" y1="672.2344" y2="707.2344"/><polygon fill="#181818" points="533.2292,697.2344,537.2292,707.2344,541.2292,697.2344,537.2292,701.2344" style="stroke:#181818;stroke-width:1;"/><line style="stroke:#181818;stroke-width:1;" x1="537.2292" x2="537.2292" y1="741.2031" y2="776.2031"/><polygon fill="#181818" points="533.2292,766.2031,537.2292,776.2031,541.2292,766.2031,537.2292,770.2031" style="stroke:#181818;stroke-width:1;"/><line style="stroke:#181818;stroke-width:1;" x1="278.5725" x2="268.5725" y1="616.2656" y2="616.2656"/><line style="stroke:#181818;stroke-width:1;" x1="268.5725" x2="268.5725" y1="616.2656" y2="638.2656"/><polygon fill="#181818" points="264.5725,628.2656,268.5725,638.2656,272.5725,628.2656,268.5725,632.2656" style="stroke:#181818;stroke-width:1;"/><line style="stroke:#181818;stroke-width:1;" x1="527.2292" x2="537.2292" y1="616.2656" y2="616.2656"/><line style="stroke:#181818;stroke-width:1;" x1="537.2292" x2="537.2292" y1="616.2656" y2="638.2656"/><polygon fill="#181818" points="533.2292,628.2656,537.2292,638.2656,541.2292,628.2656,537.2292,632.2656" style="stroke:#181818;stroke-width:1;"/><line style="stroke:#181818;stroke-width:1;" x1="268.5725" x2="268.5725" y1="672.2344" y2="828.1719"/><line style="stroke:#181818;stroke-width:1;" x1="268.5725" x2="390.9009" y1="828.1719" y2="828.1719"/><polygon fill="#181818" points="380.9009,824.1719,390.9009,828.1719,380.9009,832.1719,384.9009,828.1719" style="stroke:#181818;stroke-width:1;"/><line style="stroke:#181818;stroke-width:1;" x1="537.2292" x2="537.2292" y1="810.1719" y2="828.1719"/><line style="stroke:#181818;stroke-width:1;" x1="537.2292" x2="414.9009" y1="828.1719" y2="828.1719"/><polygon fill="#181818" points="424.9009,824.1719,414.9009,828.1719,424.9009,832.1719,420.9009,828.1719" style="stroke:#181818;stroke-width:1;"/><line style="stroke:#181818;stroke-width:1;" x1="402.9009" x2="402.9009" y1="569.2656" y2="604.2656"/><polygon fill="#181818" points="398.9009,594.2656,402.9009,604.2656,406.9009,594.2656,402.9009,598.2656" style="stroke:#181818;stroke-width:1;"/><line style="stroke:#181818;stroke-width:1;" x1="402.9009" x2="402.9009" y1="469" y2="535.2969"/><polygon fill="#181818" points="398.9009,525.2969,402.9009,535.2969,406.9009,525.2969,402.9009,529.2969" style="stroke:#181818;stroke-width:1;"/><line style="stroke:#181818;stroke-width:1;" x1="402.9009" x2="402.9009" y1="976.7344" y2="1011.7344"/><polygon fill="#181818" points="398.9009,1001.7344,402.9009,1011.7344,406.9009,1001.7344,402.9009,1005.7344" style="stroke:#181818;stroke-width:1;"/><line style="stroke:#181818;stroke-width:1;" x1="402.9009" x2="402.9009" y1="1045.7031" y2="1080.7031"/><polygon fill="#181818" points="398.9009,1070.7031,402.9009,1080.7031,406.9009,1070.7031,402.9009,1074.7031" style="stroke:#181818;stroke-width:1;"/><line style="stroke:#181818;stroke-width:1;" x1="402.9009" x2="402.9009" y1="1114.6719" y2="1149.6719"/><polygon fill="#181818" points="398.9009,1139.6719,402.9009,1149.6719,406.9009,1139.6719,402.9009,1143.6719" style="stroke:#181818;stroke-width:1;"/><line style="stroke:#181818;stroke-width:1;" x1="402.9009" x2="402.9009" y1="1183.6406" y2="1218.6406"/><polygon fill="#181818" points="398.9009,1208.6406,402.9009,1218.6406,406.9009,1208.6406,402.9009,1212.6406" style="stroke:#181818;stroke-width:1;"/><line style="stroke:#181818;stroke-width:1;" x1="402.9009" x2="402.9009" y1="1377.875" y2="1412.875"/><polygon fill="#181818" points="398.9009,1402.875,402.9009,1412.875,406.9009,1402.875,402.9009,1406.875" style="stroke:#181818;stroke-width:1;"/><line style="stroke:#181818;stroke-width:1;" x1="402.9009" x2="402.9009" y1="1446.8438" y2="1481.8438"/><polygon fill="#181818" points="398.9009,1471.8438,402.9009,1481.8438,406.9009,1471.8438,402.9009,1475.8438" style="stroke:#181818;stroke-width:1;"/><line style="stroke:#181818;stroke-width:1;" x1="402.9009" x2="402.9009" y1="1515.8125" y2="1550.8125"/><polygon fill="#181818" points="398.9009,1540.8125,402.9009,1550.8125,406.9009,1540.8125,402.9009,1544.8125" style="stroke:#181818;stroke-width:1;"/><line style="stroke:#181818;stroke-width:1;" x1="402.9009" x2="402.9009" y1="1584.7813" y2="1619.7813"/><polygon fill="#181818" points="398.9009,1609.7813,402.9009,1619.7813,406.9009,1609.7813,402.9009,1613.7813" style="stroke:#181818;stroke-width:1;"/><line style="stroke:#181818;stroke-width:1;" x1="402.9009" x2="402.9009" y1="1653.75" y2="1688.75"/><polygon fill="#181818" points="398.9009,1678.75,402.9009,1688.75,406.9009,1678.75,402.9009,1682.75" style="stroke:#181818;stroke-width:1;"/><line style="stroke:#181818;stroke-width:1;" x1="402.9009" x2="402.9009" y1="1722.7188" y2="1757.7188"/><polygon fill="#181818" points="398.9009,1747.7188,402.9009,1757.7188,406.9009,1747.7188,402.9009,1751.7188" style="stroke:#181818;stroke-width:1;"/><line style="stroke:#181818;stroke-width:1;" x1="402.9009" x2="402.9009" y1="1791.6875" y2="1826.6875"/><polygon fill="#181818" points="398.9009,1816.6875,402.9009,1826.6875,406.9009,1816.6875,402.9009,1820.6875" style="stroke:#181818;stroke-width:1;"/><line style="stroke:#181818;stroke-width:1;" x1="402.9009" x2="402.9009" y1="1252.6094" y2="1343.9063"/><polygon fill="#181818" points="398.9009,1333.9063,402.9009,1343.9063,406.9009,1333.9063,402.9009,1337.9063" style="stroke:#181818;stroke-width:1;"/><line style="stroke:#181818;stroke-width:1;" x1="402.9009" x2="402.9009" y1="840.1719" y2="942.7656"/><polygon fill="#181818" points="398.9009,932.7656,402.9009,942.7656,406.9009,932.7656,402.9009,936.7656" style="stroke:#181818;stroke-width:1;"/><line style="stroke:#181818;stroke-width:1;" x1="402.9009" x2="402.9009" y1="1860.6563" y2="1920.6563"/><polygon fill="#181818" points="398.9009,1910.6563,402.9009,1920.6563,406.9009,1910.6563,402.9009,1914.6563" style="stroke:#181818;stroke-width:1;"/><line style="stroke:#181818;stroke-width:1;" x1="402.9009" x2="402.9009" y1="1954.625" y2="1974.625"/><polygon fill="#181818" points="398.9009,1964.625,402.9009,1974.625,406.9009,1964.625,402.9009,1968.625" style="stroke:#181818;stroke-width:1;"/><!--SRC=[bLH1Rjim4Bph5OkSd8C_a1oAmYroQ84OTVk0hRIIY52ambtPC0e3UKZxkRoaIr6o9SL5swCqipkpioJ5Y2NO4OQyDgu2XE0x8H0FJ9PoeG8AOZ4EnNYNiM2Gp7cb15FLaW5i0wrpxmeJ2NodVzRmsLULLXe7q7y_EkrIOcT5sqOjg7r3BLOq43uvV-2ePC9SKN5o1KJ5B0jg25sbZczsqKXqt7hZP32h_1lueGtlji4thLp609xnxxDUrvImsYNyzUNdfWk1j9VrUI_z-l8Ba5FbkrkGcXoiZiItMgaIx_FdJjt2mtO7g1QPv4oV2P5bWfNpGzr79nIkq1JQrVu03KhQHKz9E8CcqM0xyf9dl2QcYoYpqooh3vCu_nhK9Fl_IMbIzkzPBRIk1hNWl4bfWlyffQNCbOY-zAS-dSsKp1km3LIIZfuJ9uPAFFYONBeolaqUugcUEv20UxBJ1YD-PA5ca2M6qeVKZAUZwkLoQMVAC5P3qIlo_GWOWjcZ1J7DGZ0fHLhVBOAd-KXRF3QwnVCW6xHvPr77o3qFnt5YeKtqouo-NNUBdEUSQOkKqeXFyaaR7e421GTWOqt-16fo7fHEQvH5FDRCuJPupPOLriGTOpuQEMMdT9G7Ar_JGXxt5FQ63cTBBBxDqkjcgUmVDqtZyhgbn-qRn_jBAZCiVcoZf-zQv_C3zXi0]--></g></svg>